<svg xmlns="http://www.w3.org/2000/svg" xmlns:xlink="http://www.w3.org/1999/xlink" preserveAspectRatio="none" width="1920" height="1080"><defs><path fill="#120000" d="M1049.55 590.05q-9.7-.75-17.55 2.6-3.15 1.35-6.75 3.75-2.15 1.45-6.3 4.6-8.7 6.65-12.25 10.25-10.9 11.1-15.9 28.2-4.35 14.95-3.8 32.95.75 25.35 9.75 44.15 5.65 11.75 14.55 21.05 9.2 9.6 20.55 15.2 11.65 5.75 24.65 6.85 13.25 1.1 25.3-2.9 10.15-3.4 20-10.65 17.7-13.15 26.25-33.9 8.85-21.3 4.35-42.1-3.9-17.75-18.25-36.9-20.95-28.25-46.95-38.75-9.15-3.7-17.65-4.4m24.5 23.25q16.75 10.35 30.25 27.5t18.25 33.7q2.8 9.65 2.75 19.1-.1 10.1-3.4 18.85-3.95 10.35-12.3 18.7-8 8-18.6 12.7-12.05 5.35-25.35 5.55-13.55.25-25.45-4.9-15.8-6.75-27.6-21.95-11.6-15-16.3-34.9-4.4-18.9-1.9-38.85 3.15-25 16.7-36.3 3.762-3.135 7.65-4.55.78-.245 1.55-.45 4.95-1.2 10.45.4 5.05 1.45 9.5 4.95 3.75 2.9 7.5 7.5 2.3 2.85 6.3 8.65-.35-8.7-5.25-16.35-4.95-7.7-12.75-11.6 19.35.75 38 12.25m-34.55 99.85q-.75-.1-1.25-.5-.247-.185-.35-.4V714q4.65 5.4 12.85 7.6 6.8 1.8 15.55 1.25 17.75-1.15 28.7-9.3 6.35-4.7 9.9-11.6 3.75-7.25 3.05-14.65-2.15 9.4-10.4 16.55-7.65 6.55-17.95 9.2-8.8 2.25-19.95 1.95-7.4-.2-20.15-1.85m-17-68.6q.166-.024.3-.1-.204-.633-.4-1.3.06.729.1 1.4m15.95 16.7q-.25-1-1.1-3.05-.85-1.95-1.1-3.05-.05-.25-.3-2.6-.2-1.55-.65-2.45-.85-1.7-2.95-2.2-2.05-.55-3.6.6-1.55 1.1-1.75 3.25-.2 2.1 1.1 3.5l1.2 1.05q.65.6.85 1.2.15.45.05 1.05 0 .35-.1 1-.2 1.95 1 5.35 1.3 3.65 1.35 5.3.05 1.65-.75 4.45-.9 3.15-1 4.45-.1 1.45.45 2.3.35.5.95.75.6.2 1.1-.05.8-.35 1.1-1.8.6-2.8 1-4.15 1.8-4.95 2.55-7.45 1.35-4.35.6-7.45m26.9-17.8q-.95-.85-2.05-.6-1.05.2-1.85 1.1-.75.85-1.05 2-.45 1.4-.6 4.4-.15 1.4-.7 4.15-.25 2.4.5 3.95.4.75 1.45 1.9 1.15 1.25 1.55 1.9.45.75 1 2.45.5 1.7.95 2.45.95 1.6 3.9 3.45 3.35 2.05 5.05.85-1.55-.75-2.8-3.75-1.6-4.2-1.95-5.9-.25-2.1-.4-3.15-.3-1.85-.95-2.95-.4-.7-1.6-2-1.15-1.2-1.55-2-.55-1.15-.7-3.55-.2-2.5-.65-3.55 1.7-.3 3.15.75.3-1.05-.7-1.9m-34.3-216q-1.4 2.7-1.6 6.45-.15 2.65.3 6.75 2.3 20.25 11.8 46.3Q1047 502 1059.3 531.7q3.85 9.85 4.75 12.1 2.85 6.8 5.5 11.8 7.1 13 16.75 19.55 2 1.4 4.1 1.6 2.45.2 3.3-1.55-2.2.4-3.95-3.35-2.15-4.45-6.05-11.05-5.7-9.8-6.35-10.95-4-7.2-8.15-16.4-2.85-6.2-7.25-16.85-8.15-19.35-11.8-28.75-6.3-16.15-10.2-29.35-2.75-9.15-7.25-27.75-.05-.3.35-.5-1.416-1.096-2-2.8m-113 248.3q-2.55 6.65-2.45 16.05 0 2.3 1.1 16.6.85 11 .5 24.6-.25 8.85-1.25 24.6-4.909 75.79-14.25 154.5-3.033.77-6.45 1.65-15.7 4.05-24.2 5.05-16.85 1.95-26.45-4.65-8.3-5.7-12.45-18.4-4-12.3-3.15-28.2.55-11.2 4.1-28.6 4.95-24.6 10.7-40.85 7.6-21.7 19.05-37.05 5.75-7.65 11.25-10.55 3.6-1.85 7.5-1.9 4.2-.05 7.3 2.05 3.15 2.2 6.25 8.55 3.35 6.95 5.65 9.2-1.25-2.8-2.1-11.8-.7-7.5-3.65-10.8-2.3-2.6-6.15-3.55-3.5-.9-7.35-.2-6.95 1.25-13.4 6.8-5.05 4.35-10.2 11.75-11.2 16.25-19.15 38.05-6.3 17.3-11.55 41.3-3.7 16.8-4.75 28.35-1.4 15.6 1.05 28.35 1.8 9.3 5.75 16.3 4.6 8.1 11.6 12.1 5.75 3.3 13.75 3.95 3.464.318 7.8.1-1.536 1.432-3.05 3-6.4 6.65-13.35 17.8-6.8 10.95-10.7 20.05-4.8 11.3-6 21.7-.85 7.65.3 14.6 1.3 7.6 5 13.55 4.4 7.1 10.65 9.55 2.55 1 5.95 1.4 2.15.25 6.1.35 7.05.2 10.8.05 5.95-.3 10.6-1.45 6.1-1.55 12.85-5.45 4.35-2.45 11.8-7.75-3.45-.45-8.2.65-5.4 1.55-8.1 2.2-5 1.25-11.4 1.75-4.05.3-11.6.4-4.95.1-7.65-.2-4.2-.4-7.3-1.9-6.85-3.3-10.65-12.4-2.35-5.6-2.95-11.65-.85-8.7 2.1-18.6 2.4-7.9 7.5-17.5 11.044-20.625 24.9-30.75 17.642-2.12 30.6-7.8-.305 2.8-.65 5.6-1.5 12-1.8 17.95-.5 10.05 1.05 17.85 1.95-4.4 3.35-10.15.95-3.95 2-10.55 1.758-11.074 3.35-24.35 6.44-3.733 11.45-8.55-4.16.556-10.7 2 .154-1.316.3-2.65 1.1-10.4 3.3-33.65 3.9-42.65 5.45-61.7 2.85-34.45 4.25-61.8 1.25-23.25.8-37.75-.7-20.7-4.75-37.2M969.2 488q-1.95-7.5-4-12.55-3.7-9.1-9.5-13.8-2.85-2.2-4.65-1-1.8 1.2-.6 5.1.15-1.85.8-3.25 5 8.95 8.25 18.15 3.9 11.1 7 27.75 1.65 8.85 3.7 21.7 2.3 13.9 2.6 20.95.15 3.1.25 9.3.2 5.55.9 9.3.4 2.25 1.6 6.6 1.2 4.35 1.6 6.55.6 3.6.6 7.25 2.6-5.55 3.5-11.35.7-4.6.4-10.6-.2-2.85-1-10.6-1.85-16.9-2.15-19.15-1.05-8.3-3.95-24.25-3.3-18.2-5.35-26.1m-64.15-36.8q7.65-.3 21.05 1 1.4.1 1.8.75.25.45-.05 1-.285.407-.65.25.982.472 1.95-.45 1.05-1 .85-2.25-.35-1.95-3.15-3.65-9.05-5.6-20.85-5.4-11.05.15-21.4 5.2-9.15 4.45-17.85 12.6-7.05 6.6-14.7 16.55-.85 1.15-1.1 2.25-.25 1.4.7 1.95.6.35 1.45.1.3-.05 1.45-.55 2.05-.8 4.3-.45 2.25.3 3.95 1.65-.05-1.85-.9-3.55-.9-1.7-2.3-2.8 7.45-7.65 11.75-11.25 6.9-5.85 13.5-8.75 8.55-3.75 20.2-4.2m275.9-170q-.2-1.8-.9-2.45-1.4-1.3-3.15.5-1.4 1.4-2.4 3.9-2.4 6.05-9.75 9.95-4.3 2.25-14.15 5.25-23.9 7.2-45.3 19.85 17.95-.95 35.25-6.5t32.45-15.25q3.1 19.7 1.6 39.5-.45 5.8-1.25 9.75-1.1 5.25-3.2 9.2-2.4 4.55-6.25 7.55-4.15 3.2-8.85 3.65 4.05 2.2 9.15 1.1 4.8-1.05 8.45-4.55 5.75-5.5 8.5-16.85 3.5-14 2.9-32.1-.35-11.2-3.1-32.5m-55.55 87.85q5.535 13.93 8.45 25.95.394.377.75.75 20.15 21.05 30.5 45.75 11 26.25 9.65 54.35-1.4 29.25-16.05 52.1-8.12 12.743-21.05 24.2.473.618.9 1.25 1.229 1.87 2.75 4.7 1.275-1.183 2.5-2.4 16.35-16.3 26.6-36.25 10.7-20.85 13.2-42.8 3.1-27.2-6.45-55.15-9.05-26.55-27.7-48.8-10.635-12.657-24.05-23.65m-34 10.75q-5.65-3.7-13.15-3.65-7 .05-13.6 3.3-10.4 5.1-20.3 18.8-4 5.55-4.9 9.4-.6 2.75 0 5.3.65 2.8 2.55 4.5 1.35-.55 2.9-.3 1.5.25 2.65 1.25-.05-1.4-1.2-2.45-1.1-1.05-2.5-1.05-1.15-4.95 1.55-10.35 2.25-4.55 6.8-8.8 7.1-6.65 14.25-8.85 4.2-1.3 8.4-1 4.45.3 8 2.35 1.95 1.1 5.25 4.05 3.4 2.95 5.25 4.05 4.6 2.75 10.3 2.25 5.65-.45 9.75-3.95-5.75.15-11.95-5.7-3.25-3.2-4.85-4.8-2.9-2.85-5.2-4.35m-87.15-200.7q-9.3-5.95-16.8-5.85-6.65.15-14.35 5-12 7.75-20.6 23-5.8 10.45-11.75 28.85-4.6 14.2-6.4 23.8-1.097 5.956-1.45 11.45-.45-1.952-1-3.9-4.4-15.45-13.35-28.4-7.5-10.85-15.6-14.65-5.9-2.8-13.1-2.65-6.65.1-13.3 2.7-10.2 4-22.4 15.1-26.1 23.75-39.1 53.1-6.85 15.45-9.55 31.75-2.8 16.9-.85 33.1 1.7 14.55 7.7 22.95 1.05 1.5 2.3 2.3 1.5.95 2.85.45-1.7-1.25-2.65-3.75-.65-1.7-1.2-4.7-2.25-12.7-3.15-21.95-1.1-11.95-.4-22.1 1.8-24.5 14.9-47.7 12.35-21.9 32.45-38.75 19-16 33.95-12.2 10.05 2.6 19.1 15.05 6.55 9.15 10.55 19.7 4 10.65 5.1 21.8l2.9 29.85q-25.744 10.066-46.7 27.35-21.45 17.6-36.4 41.55-.634 1.016-1.25 2.05-10.866 13.2-19.05 28.6-13.1 24.6-14 45.8-.023.523-.05 1-10.287 7.865-13.65 9.5-5.55 2.75-11.9 3.45-6.3.65-12.3-.85-7.5-1.9-15-7.25-5.8-4.1-12.7-11.2-7.95-8.2-13.95-15.85 6.3.9 14.75-1.1 4.9-1.15 14.6-4.1l7.65-1.95q4.45-1.2 7.45-2.6 5.75-2.7 12.6-8.95 4-3.6 6.45-6.65 3.1-3.95 4.4-7.95-1.95 2.55-5.2 4.9-1.9 1.4-6.1 3.95-7.9 4.8-13.05 7-4.95 2.05-15.65 4.7-5.3 1.3-8.15 1.8-4.6.85-8.3.95-6-.2-8.95-.05-5.1.25-8.2 2.35-2.7 1.8-4 5-1.3 3.15-.65 6.35.5 2.4 2.2 5 1.05 1.6 3.4 4.35 7.2 8.6 10.75 12.4 6.25 6.65 12 11.05 9.35 7.2 18.85 9.25 8.35 1.8 17.35-.3 8.5-2 16.05-7.1 4.335-2.95 9.65-8.05.602 4.246 2.05 7.6 1.75 4.1 4.85 7 .114.109.2.2 1.052 8.373 3.1 16.7 6.5 26.45 22.7 50.3 15.55 22.9 37.95 40.4 16 12.55 34.45 21.45 12.593 6.125 25.8 10.3.063-5.87.2-12.2-11.35-4.067-22.4-9.6-32.45-16.25-56.55-42.3-25.75-27.8-35.05-58.95-5.15-17.15-5.15-35.65-.003-.887 0-1.8-2.596-5.302-4.8-11.15.276-3.129.8-6.3 2.37-14.517 10.15-29.7-3.42 9.393-5.75 19.15 5.85-7.85 12.5-22.65 8.104-17.948 11.25-23.45 6.277-7.52 13.5-14.3 14.7-13.8 32.2-23.35 6.5-3.6 10.85-3.6 2.2-.1 3.2 1.1.8.95.55 3.5-.25 2.6.5 3.6 0-1.4 1.4-5.45 1.1-3.3.4-5.25-.6-1.75-2.45-2.75-1.7-.95-3.7-.9-1.65 0-3.65.7-1.3.45-3.55 1.5-12.023 5.905-22.95 13.9 4.337-3.892 9.25-7.9 18.6-15.3 35.3-23.2 5.121-2.43 10.55-4.45l1.7 17.2q.2 2 1.1 2.4 1.1.5 2.6-.8 6.25-5.45 8.1-15.75.594-3.35.7-7.5 15.973-4.106 34.35-5.2.069-.004.1 0-1.42 5.636-2 11.15-.036.051-.1.1-3.55 2.7-7 3.85 1.65 1.55 4.45 1.25 1.41-.157 2.9-.75.346.788.9 1.25 2.25 1.95 6.7-1.05 7.85-5.25 12.85-9.2 4.164-3.246 7.55-6.5 11.07.704 22.1 2.55 11.862 1.985 23.3 5.2 3.422 6.493 8.75 7.95 4.329 1.2 10.65-1.45 1.996.795 3.95 1.6.5-1.578-.35-3.25 12.924-6.597 22.75-16.85 7.9-8.25 13.3-18.3 5.45-10.2 7.75-21.2 2.25-10.6 1.5-21.55-.75-10.2-4-18.1-2.45-5.9-8.2-14.15-3-4.3-5.1-6.8-3-3.55-6.05-5.85-3.55-2.7-7.5-3.95-4.3-1.35-8.3-.7-6.3 1.05-12.9 7.5-6.35 6.1-11.75 14.95-4.25 7.05-8.65 17.1-2.2 5.15-3.25 8.6-1.45 4.8-1.6 8.95-.25 7.5 3.35 14-.65-6.7 1.15-15.3 1.15-5.25 3.2-11.5 5.85-17 15.05-27.65 6.1-7.2 12.2-7.9 7.55-.85 15.9 7.65 4.35 4.45 8 9.85 5.15 7.7 8 16.55 2.85 8.95 3 18.05.15 14.8-6.5 27.95-4.4 8.7-11.5 15.8-7 7-15.75 11.55-6.9 3.65-11.85 3.1-4.15-.5-10.35-4.9-6.85-4.85-10.2-5.8.74 1.643 1.8 4.85-.017.01-.05 0-10.5-3.25-23.9-5.25-5.377-.814-10.6-1.35 7.034-8.975 13.85-22.85 6.85-14 9.25-24.85 2.35-10.55 1.4-21.45-1-10.9-5.1-20.85-4.1-9.95-11.05-18.35-7-8.45-16.05-14.3m-30 5.3q6.25-3.35 11.8-2.6 4.2.55 9.95 4.2 9.55 6.15 16.85 14.9 7.4 8.9 11.5 19.3 4.15 10.55 4.5 22 .4 11.55-3.2 22.15-1.4 4.15-3.75 9-1.4 2.95-4.45 8.7-2.75 5.2-4.15 7.55-2.45 4.1-4.85 7.05-1.781 2.188-4.1 4.45-.454-.03-.9-.05 5.47-7.002 8.75-13.3 6.5-12.45 5.7-24-7.005 18.705-22.05 36.95-5.914-.102-11.65.15-20.527.852-40.3 6.6l-.1-3.05q-1.15-33.4.8-66.2-2.449 4.494-4.05 7.8 2.672-12.595 7.25-25 6.9-18.6 16.15-29.1 6.15-5.3 10.3-7.5m5.95 125.8q-.068-.31-.15-.6 4.133-.203 8.25-.25-2.853 3.083-5.95 6.15-.327.323-.65.6-.1-.1-.2-.25-.8-1.2-.95-2.8-.25-2.45-.35-2.85m392.9 535.65q-2.9-4.7-10.8-14.4-18.85-23.15-37.9-53.6-13.95-22.3-33-56.9-43.6-79.3-81.8-160.15-1.6-3.35-4.3-5.25-3.15-2.15-5.2-.05-1.35 1.4-1.15 4.5.4 6.4 4.2 11.35-.75-1.7-.7-3.65 0-1.95.8-3.65 46.1 102.4 107.9 210.15 17.6 30.7 29.9 47.6 18.25 25.05 38.2 40.35-.85-7.8-6.15-16.3Z" id="a"/></defs><use xlink:href="#a"/></svg>