<svg xmlns="http://www.w3.org/2000/svg" xmlns:xlink="http://www.w3.org/1999/xlink" preserveAspectRatio="none" width="1920" height="1080"><defs><path fill="#120000" d="M1235.5 1039.25q-3.8-7.85-9.65-14.1-4.6-5-8.85-5.9-3.2-.7-6.65.5-3.2 1.1-5.85 3.55-2.2 1.95-4.5 5.1-.9 1.25-3.75 5.7-4.85 7.7-11.15 15.8-2.8 3.65-8.35 10.35-6.2 7.55-10.4 12.3 4.6-1.75 9.05-5.1 3.25-2.55 6.9-6.25 9.95-10.15 17.2-22.15 2.85-4.7 4.55-6.35 1.5-1.4 3.3-2.05 2-.75 3.8-.4 2.5.5 5.6 3.7 7.2 7.55 11.3 16.75 4.3 9.7 4.25 19.5-.1 11.4-5.65 20.05-2.6 4-7 8.15-5.25 4.9-9.75 7-5.9 2.85-15.35 3.3-8.9.45-14.2-2.1.7 3.8 3.2 6.9 2.5 3.1 6.05 4.6 6.7 2.8 14.65-.1 5.7-2.1 12.7-7.95 12.15-10.2 17.9-21.25 4-7.6 5.45-16.2 1.45-8.55.2-17.05-1.25-8.45-5-16.3M1038.85 926.2q-12.45-7.1-23-5.65-5.85.8-11.3 4.3-5.1 3.3-8.95 8.35-6.4 8.4-9.9 22.25-4.004 16.017-2.9 30.6-4.236-3.822-9.2-6.8-12.05-7.25-24.9-7.7-12.3-.45-24.85 5.65-11.15 5.5-21 15.35-13.5 13.5-19.45 29.05-3.25 8.4-4.2 17.05-.95 9.05.75 17.5 1.2 6.05 4 12.8 1.207 2.854 2.85 6.2-3.172 4.392-5.8 8.9-7.65 13.15-10.15 26.55-.659 3.482-1 7.05-5.782 1.354-14.1 4.1-14.2 4.65-22.5 3.45-8.35-1.2-15.45-7.35-6.7-5.8-10.4-14.2-3.25-7.45-4.3-16.85-.85-7.75-.2-17.65.4-6.4 3.05-8.75 3.85-3.25 11.4-.45 8.9 3.2 21.95 12.45 15.35 10.8 21.35 13.85 5.05 2.55 7.9 1.25 2.75-1.2 3.1-4.7.3-3.4-1.75-5.9-1.75-2.15-4.9-3.55-2-.9-5.95-2 1.45 1 1.3 2.7l-22.75-15.75q-8.25-5.7-14.05-7.8-8.4-3-14.85-.2-10.7 4.7-13.15 23.85-2.7 20.4 2.4 35 3.05 8.7 8.85 15.3 6.2 7.05 14.2 10 7.05 2.65 15.4 2.1 7.6-.5 15.35-3.55 6.6-2.65 13.85-7.35 1.823-1.197 3.95-2.75-.245 12.212 3.25 25.4 4.55 17.3 15.3 35.3 10.3 17.3 24 32.15 13.7 14.9 30.05 26.6 10.15 7.25 18.8 10.75 10.9 4.5 20.7 3.65-31.8-14.4-57-39.55-25.25-25.15-39.7-56.9-5.25-11.4-7.7-21.15-2.67-10.587-2.35-20.15 1.654-1.254 3.45-2.65-1.448.032-3.35.3 1.098-14.523 9.3-28.95 2.257-3.946 4.95-7.8.308.56.6 1.1 2.55 4.7 4.45 7.35 2.8 3.8 5.95 6-1.254-6.184-6.6-20.15 4.614-5.586 10.25-10.9 23.3-21.85 55.4-32.35 16.486-5.416 33.45-7.25.453 2.044.75 4.15 1.85 12.9-2.85 25.45-4.75 12.7-14.65 20.95-9.6 8-19.35 8-5.5-.05-10.2-2.95-4.95-3-6.7-7.9-1.75 2.95-2 6.4-.25 3.5 1 6.65 1.3 3.1 3.9 5.45 2.65 2.3 5.9 3.2 5.9 1.55 13.85-1.6 7.65-3.05 14.4-8.9 6.3-5.5 11.25-12.9 7.35-10.1 11-21.35 2.892-8.935 3.15-17.65 2.501 2.503 5.25 4.65-1.082-5.366-4.7-12.45 10.22-.456 20.6.35 31.7 2.5 62.25 16.55 2.246 1.033 4.45 2.1-1.935 6.862-5.7 12.9-5.6 8.9-13.95 13.9-9.15 5.5-17.5 4.1-4.7-.8-8.3-3.85-3.8-3.2-4.75-7.55-1.85 7.2-1.05 12.05.5 3.15 2.1 5.7 1.75 2.75 4.35 4.1 4 2.05 10.15.9 13.1-2.5 25.2-15.75 9.05-9.85 14.2-21.75.416-.958.8-1.95 18.315 9.687 34.6 23-3.77 3.846-7.55 5.25-4.35 1.7-7.5-.05-1.95-1.05-4-4.35-2.35-3.85-3.55-4.95.35 1.95.2 4.95-.25 4.7-.25 4.95.1 6.45 3.7 8.85 2.25 1.5 5.4 1.15 2.65-.25 5.55-1.75 6.317-3.201 12.35-10.4 2.446 2.103 4.85 4.3 18.6 17 29.5 35.65 12.55 21.45 13.55 43.1.65 14.55-4 29.65-4.3 14.1-12.85 27.2-14.45 22.25-41.95 42.9-23.45 17.6-47.4 27.3-26.95 10.9-52.85 11.1-42.8.25-89.85-28.6 4 13.3 17.35 22.8 11.35 8.1 27.4 12.25 40.35 10.4 84.55-3.55 41.1-13 74.85-43.25 28.25-25.3 41.5-53.35 7.5-15.95 10-32.5 2.6-17.55-.7-33.75-3.75-18.35-15.35-36.05-10.15-15.45-26-30-2.768-2.542-5.6-5 6.584-10.557 10-22.55 2.9-10 2.95-19.6.05-10.45-3.25-19.4-3.6-9.6-10.95-16.65-7.65-7.35-17.2-9.6-6-1.4-13.7-1-9.4.55-14.25 4.05-3.2 2.25-4.7 5.85-.087.207-.2.4.017-.018 0-.05-4.4-8.2-10.9-16.9-5.2-6.95-12.85-15.55-7.35-8.25-12.9-13.3-7.45-6.85-14.75-11.05m-26 2.6q6.2-.55 14.75 3.65 10 5 19.75 13.75 7.8 7.05 16.6 17.7 7.1 8.6 12.05 15.95 5.9 8.9 9.6 17.4 7.371 17.088 6.4 32.85l-2.3-1q-32.65-14.2-66.5-15.65-11.605-.5-23 .55-2.223-7.977-6.9-15.4-1.514-2.389-3.2-4.6-1.204-5.386-1.65-11.2-.95-12.65 1.75-26.05 2.25-11.35 6.85-17.95 2.85-4.15 6.85-6.8 4.3-2.8 8.95-3.2m78.8 54.6.1-.1-.1.15v-.05l-.05.1-.05.05.1-.15m-.5 1.35q.033-.026.05-.05 1.6-2.45 4.35-3.5 2.25-.85 5.45-1 .9-.05 5.6.1l5.4.15q3.05.15 5.3.55 7.3 1.35 13.9 6.8 7 5.7 11.3 14.15 4.2 8.25 4.95 17.45 1 12.15-3.75 25.45-2.572 7.196-6.3 13.3-17.855-14.557-38.35-24.7 1.282-5.948 1.4-11.95.334-17.965-9.3-36.75m-107.35 19.4q3.847 5.332 6.25 11.1-17.477 2.668-34.4 9.05-33.5 12.65-57.15 37.05-3.658 3.761-6.9 7.6-5.72-14.91-6.6-24.15-.75-7.8.95-15.65 1.7-7.8 5.6-14.7 5.35-9.3 17.1-19.6 7.05-6.25 12.7-9.15 9.75-4.95 21.6-4.4 11.3.55 21.55 5.9 11.5 6.1 19.3 16.95Z" id="a"/></defs><use xlink:href="#a"/></svg>