
<svg xmlns="http://www.w3.org/2000/svg" version="1.1" xmlns:xlink="http://www.w3.org/1999/xlink" preserveAspectRatio="none" x="0px" y="0px" width="1920px" height="1080px" viewBox="0 0 1920 1080">
<defs>
<g id="Layer0_0_FILL">
<path fill="#120000" stroke="none" d="
M 928.3 946.3
Q 927.45 945.25 926.1 944.9 915.15 942.15 900.7 953.7 888.45 963.55 876.65 978.05 866.25 990.8 860.65 1001.7 855.8 1011.3 858.05 1017.35 859.3 1020.7 863.5 1024.55 876.7 1037.05 893.6 1044.15 911.75 1051.8 929.35 1050.95 938.45 1050.5 944.75 1047.5 954.45 1042.85 962.75 1029.15 956.4 1033.9 948.85 1036.75 941.3 1039.55 933.4 1040.15 920.5 1041.15 906 1036.3 897.85 1033.65 890.5 1029.7 879.4 1023.75 870.4 1015.8 868.1 1013.75 866.9 1012.15 865.2 1009.95 864.9 1007.7 864.5 1004.45 867.25 999.45 871.95 990.95 881.35 979.7 892.45 966.15 901.7 958.9 914.65 948.85 927.85 946.85
L 928.45 948.25
Q 929.2 947.4 928.3 946.3
M 1104.7 521.9
Q 1101 520.7 1096.95 521.85 1093.05 523 1090.2 525.85 1087.5 528.6 1086.2 532.55 1084.95 536.35 1085.2 540.35 1085.45 544.15 1086.95 547.7 1088.45 551.3 1091 554.15 1091.75 554.95 1093.3 556.5 1094.7 557.95 1095.4 559.05 1095.75 559.6 1096.3 560.65 1096.85 561.6 1097.45 562.05 1099.35 563.6 1102.05 562.6 1103.85 561.95 1106 559.8 1113.35 552.7 1115.2 544.2 1116.2 539.6 1115.3 535.1 1114.4 530.35 1111.6 526.85 1108.7 523.25 1104.7 521.9
M 1104.55 535.85
Q 1106.75 538.7 1107.4 542.1 1108.05 545.5 1107.15 549 1106.25 552.45 1104 555.15 1102.8 556.7 1101.4 557.3 1099.55 558.05 1098.2 557.05 1097.6 556.6 1096.75 554.95 1093.65 548.4 1093.1 544.6
L 1092.8 541.3
Q 1092.6 539.3 1092.2 538 1091.7 536.55 1091.5 535.8 1091.2 534.5 1091.4 533.55 1091.6 532.45 1092.6 531.65 1093.5 530.9 1094.7 530.7 1096.65 530.3 1099.2 531.5 1102.35 532.95 1104.55 535.85
M 1094.4 501.95
Q 1101.1 501.5 1107.05 504.4 1112.7 507.15 1117.1 512.4 1121.2 517.35 1123.45 523.7 1125.8 530.45 1125.7 537.6 1125.6 544.9 1122.95 551.35 1120.2 557.95 1115.05 562.95 1109.8 568.05 1103.2 570.35 1109.25 572.45 1115.9 568.5 1121.7 565 1125.65 558.5 1129.55 552.1 1131.4 544.7 1133.3 537.35 1132.9 529.85 1132.35 519 1126.9 509.9 1121.15 500.25 1111.85 496.3 1104.1 493 1095.35 494.45 1086.6 495.9 1080.35 501.55 1074.05 507.2 1071.7 515.8 1069.35 524.35 1071.85 532.4 1072.6 513.85 1082.4 506.3 1087.5 502.4 1094.4 501.95
M 976.6 577.9
Q 976.85 579.75 977.95 582.9 985.75 605.4 986.8 635.1 987.5 653.6 985.2 688.75 990.9 679.3 992.6 665.55 993.7 656.9 993.4 640.6 992.95 617.45 990.65 605 987.1 585.5 977.35 573.1 976.2 575.05 976.6 577.9
M 930.05 785.15
Q 927.5 785.7 923.55 787.4 908.6 793.9 899.15 799.75 884.9 808.7 873.45 821.5 862.05 834.2 854.65 849.45 846.7 865.9 843.85 883.95 841.25 900.6 844.3 913.2 846.15 920.7 849.95 926.85 854 933.45 859.75 937.65 868.65 944.15 881.85 945.2 892.2 946.05 906.05 943.55 916.5 941.65 922.95 938.95 928.95 936.45 930 932.7 930.65 930.3 928.7 928.2 926.75 926.05 924.65 927.2
L 926.7 930.6
Q 923.15 930.95 909.95 932.95 899.65 934.5 893.15 934.65 883.95 934.85 876.3 932.6 867.55 930.05 861.85 924.5 855.5 918.35 852.65 908.4 850.25 899.95 850.55 889.4 851.15 868.75 860.15 849.55 869.2 830.35 884.7 816.75 893.45 809.05 905.65 802.05 914.55 796.95 928.6 790.5 933.7 788.1 936.7 787.9 939.15 787.8 939.6 789.2 939.75 788 938.8 786.9 937.9 785.95 936.6 785.45 933.8 784.4 930.05 785.15
M 965.3 568.85
Q 963.7 565.15 960.75 562.85 957.65 560.45 953.65 560.2 949.5 559.95 946.5 562.2 942.45 565.25 941.1 572.75 939.9 579.6 941.2 586.65 942.45 593.65 945.95 599.65 948.6 604 951.55 604.2 954.25 604.3 957.15 601 960.55 597.05 963.35 591.05 967.15 582.95 966.95 576.3 966.85 572.3 965.3 568.85
M 948.3 583.15
Q 946.1 576.4 947.85 569.5 951.65 569.7 955.45 574.25 959.85 579.7 959.15 584.2 958.9 585.7 957.8 587.95 956.4 590.7 956.1 591.65 955.7 591.8 955.35 591.35 955.05 591 954.9 590.45 953.6 585 953.35 582.05 953 577.3 954.35 573.8 950.7 577.9 948.3 583.15
M 950.35 532.95
Q 943.25 531.35 935.3 534.3 928.4 536.9 921.95 542.45 913.35 549.85 908.55 559.3 903.3 569.5 903.8 579.85 904.25 589.3 909.5 597.65 914.75 605.95 923.05 610.45 932.1 615.3 940.8 613.8 945.45 613 949.25 610.25 953.2 607.4 954.95 603.25 948.1 607.35 937.05 603.55 930.7 601.4 925.5 597.65 920 593.7 916.4 588.5 912.65 583 911.45 576.55 910.2 569.85 912.05 563.75 914.4 556.1 921.65 549.35 927.9 543.55 935.4 541.3 943.75 538.8 950.55 541.9 954.2 543.55 957.75 547.15 959.95 549.35 963.55 554
L 973.75 567.1
Q 972.25 554.25 967.35 546.1 964.35 541.15 960.15 537.75 955.55 534.1 950.35 532.95
M 1069.75 558.15
Q 1069.3 559.55 1069.6 561.25 1071.1 569.3 1073.6 578.05 1075.4 584.3 1077.75 590.95 1078.4 592.9 1079.15 594.85 1084.3 608.95 1092.05 625.4 1093.5 628.55 1095.05 631.75 1100.45 642.85 1111.2 663.35 1112.25 665.4 1113.4 667.55 1117.85 676.1 1120.75 680.45 1122.9 683.65 1125.15 686.3 1127.7 689.25 1130.4 691.5 1132.3 693 1134.05 693.55 1136.25 694.25 1137.8 693.2 1135.9 692.25 1134.75 689.7 1134.3 688.75 1133.15 685 1133 684.6 1132.9 684.2 1131.75 680.85 1129.75 677.1 1128.5 674.7 1125.4 669.6 1122.75 665.25 1120.25 660.85 1109.35 642.1 1100.05 622.75 1090.1 602.15 1081.9 580.85 1081.75 580.4 1081.6 580 1077.65 569.75 1074.15 559.4 1073.3 556.6 1071.65 556.55 1070.3 556.5 1069.75 558.15
M 1026.05 332.85
Q 1020.2 334.5 1015.5 338.15 1010.8 341.8 1007.75 347.05 1005.65 350.7 1004.6 354.65 1004.05 352.95 1003.05 351.2 1000.85 347.45 996.5 343.8 988.6 337.1 979.3 332.45 975.15 330.4 970.85 328.8 969.4 326.45 967.15 324.8 964.55 322.95 961.1 322.3 957.9 321.75 954.45 322.25 949.2 323.05 943.65 326.3 939.45 328.8 934.2 333.3 922.9 343.2 914.45 354.95 906.85 365.55 902.1 377 899.25 374.2 896 372.6 889 369.1 879.8 370.8 872.1 372.2 863.85 377 852.2 383.75 842.75 393.9 833.4 403.8 827.1 416 815.25 438.9 814.7 466.9 814.5 476.6 815.9 485.2 814.3 484.4 813.05 483.7 810.85 482.45 805.25 478.85 800.4 475.7 797.4 474.2 787.6 469.25 779.75 471.45 776.1 472.45 772.95 475.05 769.95 477.5 767.95 481 764.35 487.2 764.2 495.95 764 506.65 769.2 517.55 773.8 527.3 782.1 536.05 796.1 550.9 815.05 558.2 822.25 560.95 833.15 563.45 842 565.4 848.05 565.5 852.95 565.6 857.1 564.55 856.15 571.45 855.7 578.6 852.5 628.75 873.75 672.35 894.85 715.55 936.05 744.6 939.6 747.1 943.25 749.5
L 946.15 764.1
Q 951.3 790.55 953 805.85 957.05 842.2 952.4 887.75 949.6 915.2 940.2 969.25 939.75 971.95 940.45 974.1 941.3 976.65 943.4 976.5 945.1 976.35 946.7 973.9 951.15 967.4 954.25 959.65
L 947.45 966.2
Q 955.1 925.95 959.5 884.3 962 859.7 961.95 844.3 961.95 834.85 961.1 823.15 960.55 815.6 959.2 802.05 958.1 790.6 957.25 784.4 956 774.65 954.2 766.85 952.45 759.15 950.1 753.7 970.2 765.65 991.95 772.4 990.95 781.65 991.55 791 993 813.7 1003.9 831.6 1012.25 845.25 1025.65 855.5 1038.6 865.35 1054.35 870.55 1069.4 875.5 1086.25 876 1102.25 876.5 1118.6 872.9 1131.96484375 869.9189453125 1143.05 864.85 1143.1044921875 864.832421875 1143.15 864.8
L 1143.2 864.8
Q 1146.75 863.15 1150.05 861.3 1165.95 852.55 1178.55 838.15 1188.35 826.9 1193.5 814.7 1199.25 801 1198.25 787.9 1198.2 786.9 1198.1 785.95 1197.05 777.15 1192.95 768.5 1188.7 759.45 1181.6 751.65 1179.45 749.25 1177.05 747 1180.95 744.6 1184.7 742.1 1184.3 742.5 1183.9 742.9 1191.95 740.45 1198.8 733 1201 730.6 1203.15 727.65 1214.45 717.3 1223.35 704.9 1222.8 699.25 1223.65 694.3 1224.25 690.7 1225.6 687.45 1224.95 686.35 1224.3 685.15 1223.9 684.4 1223.5 683.55 1225.55 676.95 1227.15 670.1 1232.95 645.55 1232.95 619.55 1232.95 570.7 1213.2 520.1 1210.7 513.65 1208.5 509.3 1205.65 503.55 1202.45 499.25 1198.7 494.3 1194.1 490.95 1189.1 487.3 1183.65 485.95 1202.4 508.7 1212.5 537.55 1219.6 557.85 1223.3 584.85 1229.7 631.75 1221.9 668.8 1218.25 686.3 1211.4 701.9 1202.35 713.9 1190.75 723.75 1180.6 732.4 1168.15 739.6 1159.8 733.35 1149.05 727.8 1145.1 725.75 1141.05 723.9 1117.95 713.15 1092.6 708.7 1086.6 707.65 1081.05 707.1 1068.1 705.85 1057.6 707.5 1050.9 708.55 1043.2 711.1 1037.4 712.95 1029.25 716.3 1022.65 718.95 1018.85 721 1013.3 723.95 1009.55 727.45 1002.2 734.5 997.4 748.4 995.3 754.45 993.95 760.5 968.4 752.9 945.9 738.65 918.15 721.05 899.3 696.05 884 675.7 874.9 650.85 866.05 626.65 864 600.55 861.55 569.3 869.5 540.65 881.35 543.45 892.7 542.1 905 540.7 915.55 534.35 926.45 527.8 932.65 517.65 935.45 512.95 937.8 506.6 939.25 502.65 941.5 494.9 938.1 498.2 936.7 499.7 934.05 502.45 932.35 504.9 931.2 506.6 928.7 511 926.5 514.95 924.9 517 918.7 525.15 907.25 528.6 897.25 531.55 885.3 530.5 879.15 529.95 873.4 528.5 884.45 498.05 906.3 477.5 910.7 473.35 915.45 469.8 924.7 481 937.2 489.95 950.85 499.65 965.45 504.6 981.35 510 996.65 509.15 1007.65 508.45 1015.5 504.65 1027.4 498.85 1035.75 484.35 1037.8 480.8 1039.1 477.5 1039.1 477.55 1039.15 477.55 1050.25 484.5 1067.65 481.65 1078.35 479.95 1088.35 475.2 1097.25 470.95 1102.3 465.45 1107.95 459.25 1110.25 450.25 1111.05 447 1111.4 443.65 1125.25 448 1138.3 454.25 1146.55 458.2 1154.3 462.9 1154.55 457.3 1155.85 452.45 1146.1 447.1 1135.7 442.9 1139.25 440.65 1142.2 436.5 1144.4 433.35 1146.8 428.3 1153.55 413.85 1156.55 398.55 1158.2 390.2 1157.95 383.95 1157.65 377.25 1155.2 369.65 1151.8 359.25 1145.75 351.25 1139.1 342.5 1130.3 337.95 1125.3 335.3 1121.45 335.75 1116.35 336.4 1111.05 342.75 1107.2 347.4 1103.55 353.7 1100.9 358.3 1097.35 365.55 1093.75 372.9 1090.75 379.9 1087.05 373.1 1083.6 367.8 1072.75 351.25 1059.7 341.45 1048.4 332.9 1037.75 331.75 1031.85 331.15 1026.05 332.85
M 1017.5 342.6
Q 1021.85 339.9 1026.8 339.2 1040 337.4 1054.95 349.55 1068.1 360.3 1078.8 377.55 1082.55 383.6 1086.4 391.05 1085.95 392.4 1085.7 393.5 1084.7 397.65 1085.2 401.1 1086.15 398.25 1087.95 394.15 1091.65 401.85 1095.45 410.9 1099.65 421 1101.6 427.75 1102.25 430.15 1102.8 432.5 1068.25 424.5 1032.55 427.65 1028.3 428.05 1023.8 428.6 1023.55 428.05 1023.35 427.55 1019.8 418.85 1015.95 413.4 1013.25 409.7 1010.6 409.35 1008.8 409.15 1007.5 410.6 1006.15 412.05 1006.9 413.55 1006.75 413.15 1007.15 412.85 1007.65 412.5 1008.1 412.75 1008.7 413.05 1008.9 414.4 1010.35 422.45 1012.6 430.25 1005.3 431.4 997.45 433.05 985.3 435.5 962.8 441.1 945.15 445.45 936.5 448.45 926.55 451.85 918.75 456.25 909.1 443.45 904.95 429.35 901.3 417.1 901.95 403.75 902.2 397.9 903.3 392.15 910.3 399.4 915.45 401.15 909.85 388.1 907.95 384.8 907 383.1 905.95 381.65 906.45 380 907.05 378.4 911.45 366.45 919.35 355.7 927 345.3 937.25 337.05 945.7 330.2 952.45 329.5 953.45 329.4 954.45 329.4 954.8 329.85 955.4 330.25 956.85 331.2 959 331.45
L 957.45 330.15 967.4 336
Q 972.45 341.75 971.7 348.8 973.35 344.1 973.45 339.6
L 997.8 353.95
Q 1000.45 355.55 1001.8 356.6 1003 357.6 1003.8 358.65 1003.45 361.6 1004 363.95 1004.75 367.05 1006.95 368.5 1005.75 363.7 1006.65 358.6 1007.55 353.6 1010.35 349.45 1013.15 345.35 1017.5 342.6
M 1119.3 344.9
Q 1120.4 345.2 1122.4 346.1 1128 348.8 1130.45 350.65 1133.6 353.05 1137.95 358.75 1142.15 364.45 1143.85 367.8 1145.35 370.75 1146.55 374.6 1147.35 377.1 1148.5 381.65 1150 387.55 1150.15 390.6 1150.25 393.65 1149.55 398.1 1146.3 417.75 1136.55 435.05
L 1133.45 427.05
Q 1131.6 433.4 1131.2 440.05 1131.2 440.65 1131.25 441.15 1121.65 437.45 1111.5 434.7 1111.4 433.75 1111.3 432.75 1110.4 424.95 1107.25 415.85 1105.05 409.5 1100.55 399.7 1096.55 390.95 1092.8 383.75
L 1092.8 383.7
Q 1098.5 371.95 1101.8 365.85 1107.05 356.05 1112.05 348.7 1112.1 348.65 1112.15 348.55 1114.2 345.5 1116.15 344.9 1117.5 344.45 1119.3 344.9
M 877.25 379.7
Q 884.5 378.6 890.2 381.2 893.5 382.7 898.5 387.35 895.3 398.15 894.75 409.35 894 424.45 898.15 438.25 901.9 450.7 909.7 462.15 897.2 471.65 885.95 488.3 873.75 506.25 866.4 526.45 858.5 523.65 851.3 519.1 837.8 510.55 830.75 498.15 833.25 498.05 835.05 497.35 836.65 496.7 838.35 495.25 839.35 494.4 841.15 492.55 838.4 494.25 835.8 494.05 833.85 493.9 830.35 492.05 829.3 491.55 827.2 490.55 823.1 479.8 822.7 465.2 821.95 439.2 832 418.5 837.35 407.45 845.45 398.7 853.9 389.6 864.4 384.1 871.05 380.65 877.25 379.7
M 928.6 457.35
Q 929 457.15 929.6 457.1 931.8 455.3 934.35 453.65 949.25 444.15 972.65 439 983.95 436.55 992.15 436.8 996.9 436.95 1001 438 1007.65 436.75 1014.35 435.85 1017.95 446.95 1023.25 457.55 1026.65 464.35 1029.9 468.7 1031.4 470.7 1033 472.4 1031.25 482.25 1025.55 488.45 1020.4 494 1012.1 496.55 1004.9 498.75 996.1 498.55 982.6 498.3 968.7 493.15 955.95 488.45 943.85 480 932.55 472.15 924 462.55 924.65 461.7 925.45 460.95 924.45 461.45 923.5 462 923.1 461.55 922.7 461.1 923.95 460.65 924.7 460.2 925.1 459.95 926.6 458.65 927.75 457.7 928.6 457.35
M 912 468.5
Q 912.45 468.15 913.35 467.2 913.65 467.55 913.95 467.95 912.8 468.55 912 468.5
M 818.3 495.9
Q 821.95 507.85 829 516.5 835.7 524.7 846.4 531.1 854.2 535.8 862.5 538.6 859.5 549.15 857.75 560.25 854.4 558.55 852.35 557.6 846.75 554.95 842 553.5 839.65 552.75 835.8 551.75 830.9 550.5 829.6 550.15 818.8 547.1 808.9 541.55 799.05 535.95 790.85 528.25 786.5 524.15 783.5 520.2 776.15 510.65 772.15 496.6 770.6 491.35 770.9 488.05 771.15 485.8 772.15 483.9 773.25 481.85 775 480.75 777.5 479.3 781.65 479.55 788.65 480.05 797.85 485.25 802.95 488.1 813.25 493.9 815.7 495 818.3 495.9
M 1104.1 441.5
Q 1104.2 443.45 1104.2 445.35 1104.1 452.55 1101.45 456.85 1098.45 461.9 1089.75 465.7 1081.1 469.45 1072.45 470.75 1058 473.05 1048 467.6 1044.1 465.5 1040.7 462.05 1040.15 459.85 1039.1 457.8 1036.9 453.55 1033.15 451.45 1031 447.45 1029.05 442.55 1027.4 438.05 1026.1 434.6 1043 433.2 1060.1 434.3 1083 435.75 1104.1 441.5
M 1017.95 734.35
Q 1022.85 729.2 1028.85 726.5 1037.9 722.45 1050.3 723.7 1058.4 724.55 1072.25 728.55
L 1059.6 718.75
Q 1080.1 718.9 1100.15 723.7 1102.65 724.3 1105.1 724.95 1116.4 727.95 1127.1 732.4 1137.6 736.7 1147.55 742.35 1151.25 744.45 1154.65 746.65 1151.6 748.1 1148.45 749.45 1149.4 750.25 1150.3 751.1 1153.6 754.2 1156.4 757.75 1160.6 755.85 1164.6 753.85 1174.8 762.1 1180.85 771.35 1185.2 778 1187.45 785.3 1188.45 788.6 1189.05 792 1191.1 803.7 1187.45 813.8 1183.95 823.3 1174.3 833.6 1165.5 842.85 1155.7 849.3 1149.75 853.1 1143.45 855.95 1132.45 860.95 1118.6 863.55 1089.4 868.95 1063.85 861.75 1050.25 857.95 1038.55 850.75 1026.4 843.25 1017.65 832.9 1005.4 818.45 1000.6 799.45 998.45 790.95 998.05 782.55 997.35 779.2 997.45 775.5 997.65 766.85 1001.9 759.25 1004.2 755.15 1007.5 751.6 1008.7 748.3 1010.15 745.45 1013.3 739.1 1017.95 734.35
M 1008.55 735.65
Q 1007.3 738.05 1005.75 740.4 1006.95 738.05 1008.2 736.2
L 1007.65 737.25 1008.55 735.65
M 999.75 762.15
Q 999.75 762.05 999.75 761.95
L 999.8 762.15 999.75 762.15
M 1001.85 749.4
Q 1002.05 747.4 1004.1 743.6
L 1001.85 749.4
M 1096.8 819.2
Q 1103.7 819.4 1107.4 821.15 1112 823.25 1115.45 828.35 1118.1 832.25 1120.35 838.4 1121.8 842.3 1120.8 844.25 1120.1 845.6 1118.3 846.45 1117.1 846.95 1114.9 847.4
L 1104.25 849.35
Q 1106.8 852.85 1111.5 853.7 1116.1 854.55 1120 852.45 1123.8 850.5 1126.1 846.4 1128.3 842.55 1128.5 838 1128.85 829.75 1123.1 821.7 1119.85 817.1 1116.05 814.6 1109.55 810.3 1100.55 810.55 1090.85 810.8 1083.65 816 1079.95 818.7 1077.45 822.5 1074.9 826.4 1074.15 830.75 1073.75 833.35 1074.3 835.55 1075 838.05 1076.9 839.1 1075.5 833.5 1078.45 828 1081.35 822.5 1086.75 820.45 1090.5 819 1096.8 819.2
M 1103.4 759.9
Q 1102.8 759.75 1102.5 760.7 1101.15 763.8 1101.4 767.4 1101.6 770.35 1103.1 774.25 1106.85 784.3 1113.1 786.5 1114.8 787.15 1116.1 786.8 1116.9 786.6 1117.45 786.05 1118.05 785.45 1118.1 784.7 1117.8 785.2 1117.15 784.95 1116.6 784.7 1116.2 784.15 1114.45 781.75 1112.35 776.6 1110.15 771.15 1108.65 768.9 1106.75 766.4 1105.85 765.1 1104.3 762.85 1104 760.9 1103.75 760 1103.4 759.9
M 1052.05 771.6
Q 1052 773.15 1052.8 774.4 1053.65 775.8 1055 776.15 1053.35 773.85 1054 771.1 1055.65 775.55 1057.9 785.1 1058.6 788 1058.8 789.35 1059.15 791.75 1058.95 793.65 1058.6 796.4 1059.75 796.9 1060.25 797.15 1060.85 797 1061.4 796.8 1061.8 796.35 1062.4 795.7 1062.7 794.2 1064.6 786.35 1063.25 778.4 1062.4 773.7 1060.6 770.45 1059.1 767.85 1056.95 766 1056.3 765.35 1055.75 765.35 1055.1 765.4 1054.4 766.3 1052.15 769.2 1052.05 771.6
M 1335.35 875.85
Q 1325.4 863.5 1315.85 850.85 1296.3 824.95 1273.75 791.3 1260.2 771.1 1233.85 730.2
L 1221.6 711.15
Q 1221.35 719.95 1225.8 730 1228.65 736.45 1235.55 747.35 1267.6 797.85 1284 822.2 1311.7 863.3 1336.45 894.15 1349.05 909.95 1358.75 919.95 1362.15 923.55 1364.85 923.1 1366.15 922.9 1367.05 921.9 1357.45 908.35 1340.3 883.3 1337.55 879.15 1335.35 875.85 Z"/>

<path fill="#120000" fill-opacity="0.00392156862745098" stroke="none" d="
M 1178.25 646.55
Q 1180.55 646.6 1182.7 646.9
L 1184.75 642.1
Q 1183.6 642.8 1182.45 643.6 1180.3 645 1178.25 646.55
M 1132.9 684.2
Q 1133 684.6 1133.15 685 1134.3 688.75 1134.75 689.7 1135.9 692.25 1137.8 693.2 1136.25 694.25 1134.05 693.55 1132.3 693 1130.4 691.5 1127.7 689.25 1125.15 686.3 1110.35 690.05 1099.25 691.05 1080.55 692.7 1064.4 687.15 1057.8 684.9 1052.35 681.65 1052.65 685.3 1052.8 688.15 1053.05 693.7 1052.95 698.8 1068 699.35 1081.05 707.1 1086.6 707.65 1092.6 708.7 1117.95 713.15 1141.05 723.9 1145.5 719.95 1149.6 714.65 1158.3 703.4 1167.5 682.05
L 1171.35 673.15
Q 1169.25 673.5 1166.85 674.15 1144.5 680.8 1133.3 684.05 1133.1 684.1 1132.9 684.2
M 1092.05 625.4
Q 1089.1 625.35 1086.25 623.9 1086.1 624.2 1085.95 624.5 1085.5 625.4 1085.05 626.25 1084.6 627.15 1084.15 628 1083.65 628.85 1083.15 629.7 1082.65 630.55 1082.1 631.4 1081.4 632.25 1080.75 633.1 1080.05 633.95 1079.4 634.85 1078.7 635.7 1078.05 636.6 1077.4 637.45 1076.75 638.35 1076.1 639.25 1075.45 640.15 1074.85 641.05 1074.25 641.95 1073.65 642.9 1073.05 643.8 1072.5 644.75 1071.9 645.7 1071.4 646.6 1070.9 647.55 1070.4 648.45 1069.95 649.35 1069.45 650.3 1069 651.2 1068.55 652.15 1068.05 653.05 1067.6 654 1067.1 654.9 1066.65 655.85 1066.15 656.75 1065.9 657.2 1065.7 657.6 1067.15 658.75 1068.75 659.75 1081.95 667.95 1101.6 665.25 1105.9 664.65 1111.2 663.35 1100.45 642.85 1095.05 631.75 1093.5 628.55 1092.05 625.4
M 1081.6 580
Q 1081.75 580.4 1081.9 580.85 1082.05 580.45 1082.25 580.05 1081.9 580 1081.6 580
M 1049.4 585.75
Q 1048.75 586.55 1048.1 587.3 1047.7 587.8 1047.3 588.3 1046.5 599.7 1046.45 601.15 1045.95 613.65 1047.35 623 1049.1 634.6 1054.25 643.9 1057.3 649.45 1061.3 653.65 1061.55 653.35 1061.85 653.1 1062.4 652.55 1062.95 652 1063.45 651.4 1064 650.85 1064.45 650.2 1064.95 649.6 1065.4 648.9 1065.8 648.25 1066.2 647.55 1066.6 646.85 1066.9 646.15 1067.25 645.45 1067.55 644.7 1067.8 643.95 1068.05 643.15 1068.25 642.4 1068.45 641.6 1068.6 640.8 1068.7 640 1068.8 639.2 1068.85 638.4 1068.9 637.55 1069.45 636.7 1070 635.85 1070.55 635 1071.1 634.1 1071.8 633.3 1072.5 632.45 1073.2 631.6 1073.85 630.75 1074.55 629.9 1075.2 629.05 1075.9 628.35 1076.55 627.7 1077.25 627.05 1077.95 626.4 1078.65 625.75 1079.35 625.1 1080.05 624.5 1080.8 623.85 1081.55 623.25 1082.25 622.65 1082.75 622.3 1083.3 622 1083.05 621.8 1082.8 621.6 1076.55 616.45 1075.35 608.75 1074.35 602.15 1076.7 594.1 1077.1 592.65 1077.75 590.95 1075.4 584.3 1073.6 578.05 1068.5 576.1 1064.2 572.25 1064.2 572.3 1064.15 572.3 1063.3 572.95 1062.5 573.6 1061.8 574.3 1061.1 574.95 1060.35 575.65 1059.7 576.35 1059 577.05 1058.3 577.75 1057.6 578.4 1056.85 579 1056.05 579.65 1055.3 580.3 1054.5 580.9 1053.7 581.55 1052.95 582.2 1052.2 582.9 1051.45 583.55 1050.75 584.25 1050.05 585 1049.4 585.75
M 1163.35 539.9
Q 1162.9 539.7 1162.5 539.5
L 1107.9 614.15
Q 1104.8 618.4 1102.8 620.4 1101.45 621.75 1100.05 622.75 1109.35 642.1 1120.25 660.85 1127.35 658.65 1135.9 655.45 1155.05 648.3 1168.85 646.85 1169.05 646.5 1169.25 646.1 1170.15 644.2 1171 642.3 1171.9 640.25 1172.75 638.15 1173.6 636.1 1174.5 634.05 1175.35 631.95 1176.2 629.9 1176.9 628.2 1177.6 626.5 1178.3 624.7 1178.9 622.9 1179.55 621 1180.15 619.1 1180.7 617.15 1181.25 615.25 1181.6 614.4 1181.95 613.6 1182.3 612.75 1182.6 611.95 1182.95 611.1 1183.25 610.25 1183.6 609.3 1183.9 608.4 1184.15 607.45 1184.4 606.45 1184.6 605.5 1184.8 604.55 1184.95 603.55 1185.05 602.55 1185.1 601.55 1185.15 600.55 1185.15 599.55 1185.15 598.5 1185.2 597.85 1185.25 597.2 1185.3 596.55 1185.35 595.9 1185.5 594.85 1185.6 593.75 1186 590.45 1186.5 587.2 1187.05 583.8 1187.15 580.35 1187.25 577.35 1186.95 574.35 1186.65 571.6 1186 568.95 1185.35 566.3 1184.35 563.75 1183.4 561.25 1182.05 558.85 1181.55 557.95 1181.05 557.15
L 1181.75 556.65
Q 1182.85 555.85 1184.05 555.15 1185.2 554.45 1186.4 553.7 1187.6 552.95 1188.75 552.15 1189.9 551.3 1191.05 550.45 1191.2 550.3 1191.4 550.15 1192.5 549.3 1193.65 548.5 1193.3 548.05 1192.95 547.7 1192.05 546.8 1190.55 545.95 1190.4 545.9 1189.2 545.25 1186.4 547.15 1183.6 549 1180.8 550.85 1178.1 552.95 1176.8 551.4 1175.45 550 1173.65 548.15 1171.75 546.35 1169.85 544.5 1167.75 542.8 1165.65 541.2 1163.35 539.9
M 1187.45 813.8
Q 1191.1 803.7 1189.05 792 1188.45 788.6 1187.45 785.3
L 1159 842.8
Q 1157.2 846.45 1155.7 849.3 1165.5 842.85 1174.3 833.6 1183.95 823.3 1187.45 813.8
M 1105.1 724.95
Q 1102.65 724.3 1100.15 723.7 1104.55 729.1 1107.55 735 1116.45 735 1121.05 734.05 1124.15 733.45 1127.1 732.4 1116.4 727.95 1105.1 724.95
M 1327.25 927.9
Q 1327.6 926.9 1327.95 925.9 1328.3 925.15 1328.65 924.4 1329.05 923.55 1329.45 922.7 1319.35 906.7 1309.1 885 1296.15 856.2 1289.6 841.85 1277.95 816.25 1268.1 799.8 1265.2 794.95 1259.1 785.45 1253.75 777.15 1250.9 772.45 1242.85 779.65 1233.7 783.7 1235.6 791.2 1238.25 797.2 1242.55 807 1249.4 814 1256.9 821.75 1266.1 824.6 1246.45 822.8 1230.6 805.95 1223.2 798.05 1217.75 788.3 1206.5 789.85 1198.1 785.95 1198.2 786.9 1198.25 787.9 1199.25 801 1193.5 814.7 1188.35 826.9 1178.55 838.15 1165.95 852.55 1150.05 861.3 1146.75 863.15 1143.2 864.8
L 1143.15 864.8
Q 1143.1044921875 864.832421875 1143.05 864.85 1140.49921875 866.668359375 1137.65 867.7 1140.2 870.45 1143.1 872.95 1146.9 876.2 1150.9 879.2 1154.65 882.05 1158.55 884.65 1158.7 884.7 1158.85 884.8 1159.05 884.9 1159.3 885 1159.6 885.15 1159.9 885.25 1160.3 885.45 1160.7 885.65 1161.15 885.85 1161.6 886.05 1162.1 886.25 1162.6 886.5 1163.15 886.75 1163.7 887 1164.3 887.25 1164.9 887.5 1165.5 887.8 1166.15 888.05 1166.8 888.35 1167.4 888.6 1168.05 888.9 1168.7 889.2 1169.35 889.45 1170.05 889.7 1170.65 890 1171.3 890.25 1171.95 890.5 1172.6 890.75 1173.2 891 1173.8 891.2 1174.35 891.4 1174.95 891.6 1175.45 891.8 1176 891.95 1176.5 892.1 1176.95 892.25 1177.8 892.45 1178.65 892.7 1179.55 892.9 1180.45 893.05 1181.35 893.25 1182.3 893.4 1183.25 893.6 1184.2 893.75 1185.2 893.9 1186.2 894 1187.2 894.15 1188.2 894.25 1187.35 896.9 1186.95 899.6 1186.45 902.7 1185.7 905.75 1185 908.45 1184.35 911.15 1183.75 913.7 1183.3 916.25 1182.85 918.8 1182.4 921.3 1181.9 924.1 1181.5 926.9 1181.1 929.75 1180.9 932.7 1180.7 935.45 1180.85 938.3 1181.05 941.35 1181.35 944.35 1181.7 947.65 1182.05 950.85 1182.4 954.1 1182.75 956.95
L 1182.65 956.5
Q 1182.65 956.65 1182.65 956.85 1182.7 957.3 1182.7 957.75 1182.8 958.45 1182.85 959.15 1182.95 960.05 1183 960.95 1183.15 962 1183.25 963.05 1183.35 964.2 1183.5 965.35 1183.65 966.6 1183.8 967.8 1183.95 969 1184.15 970.2 1184.3 971.4 1184.5 972.55 1184.7 973.65 1184.9 974.7 1185.05 975.65 1185.3 976.6 1185.45 977.35 1185.75 978.1 1186.2 979.35 1186.7 980.65 1187.5 982.6 1188.3 984.6 1189.15 986.55 1189.95 988.55 1190.8 990.5 1191.65 992.45 1192.5 994.4 1193.35 996.4 1194 997.2 1194.65 998.05 1195.3 998.9 1195.95 999.75 1196.6 1000.6 1197.25 1001.45 1197.9 1002.3 1198.55 1003.15 1199.2 1004 1199.85 1004.85 1200.5 1005.7 1201.15 1006.55 1201.85 1007.4 1202.5 1008.25 1203.15 1009.1 1203.8 1009.9 1205.1 1011.3 1206.5 1012.65 1207.85 1014 1209.35 1015.25 1210.8 1016.5 1212.35 1017.65 1213.9 1018.8 1215.5 1019.9 1217.1 1021 1218.7 1022.1 1220.3 1023.2 1221.95 1024.2 1223.6 1025.3 1225.3 1026.3 1227 1027.25 1228.8 1028.15 1230.6 1029.05 1232.4 1029.8 1234.25 1030.6 1236.15 1031.3 1238 1031.95 1239.9 1032.55 1241.8 1033.1 1243.7 1033.6 1244.75 1033.9 1245.85 1034.1 1246.85 1034.35 1247.85 1034.55 1248.8 1034.75 1249.75 1034.95 1250.65 1035.1 1251.5 1035.25 1252.35 1035.35 1253.2 1035.45 1254 1035.55 1254.8 1035.65 1255.55 1035.7 1256.3 1035.8 1257.05 1035.8 1257.8 1035.85 1258.5 1035.85 1259.2 1035.85 1260.15 1035.85 1261.05 1035.8 1262 1035.8 1262.95 1035.7 1263.85 1035.65 1264.8 1035.55 1265.8 1035.45 1266.75 1035.35 1267.7 1035.35 1268.65 1035.4 1269.55 1035.4 1270.45 1035.45 1274.15 1035.25 1277.9 1034.95 1294.8 1033.55 1309.3 1024.75 1319.3 1018.7 1325.9 1009.05 1329.8 1003.45 1332.4 997.1 1335.1 990.55 1336.1 983.45 1337.25 975.2 1336.1 967.05 1335 958.95 1331.65 951.5 1328.5 944.4 1323.65 938.35 1323.9 937.5 1324.15 936.6 1324.4 935.75 1324.7 934.85 1325 934 1325.3 933.15 1325.6 932.25 1325.95 931.4 1326.3 930.55 1326.6 929.65 1326.95 928.8 1327.25 927.9
M 1317.85 961.1
Q 1317.80625 961.23125 1317.8 961.35 1317.8046875 961.1857421875 1317.85 961.05
L 1317.85 961.1
M 1317.75 961.85
Q 1317.70625 962.025 1317.7 962.15 1317.7048828125 961.980859375 1317.75 961.8
L 1317.75 961.85
M 1317.8 961.45
Q 1317.75625 961.625 1317.75 961.75 1317.7548828125 961.580859375 1317.8 961.4
L 1317.8 961.45
M 1317.65 962.5
Q 1317.654296875 962.3826171875 1317.7 962.2
L 1317.7 962.25
Q 1317.65625 962.425 1317.65 962.5
M 1454.85 770.15
Q 1456.51640625 778.7283203125 1457.25 787.3 1457.923828125 786.694140625 1458.6 786.1 1460 784.85 1461.55 783.8 1463.4 782.6 1465 781.05 1466.6 779.55 1468.15 778.05 1469.4 776.85 1470.6 775.6 1472.1 774.1 1473.15 772.2 1474.35 770.15 1475.7 768.2 1476 767.85 1476.3 767.55 1476.65 767.2 1476.95 766.9 1477.25 766.65 1477.6 766.4 1478.25 765.95 1478.9 765.45 1479.5 764.95 1480.1 764.4 1480.75 763.85 1481.35 763.2 1481.95 762.55 1482.55 761.85 1483.15 761.15 1483.65 760.4 1484.2 759.7 1484.7 758.9 1485.15 758.15 1485.6 757.4 1486.05 756.65 1486.45 755.9 1486.9 755.15 1487.35 754.4 1487.8 753.6 1488.25 752.85 1488.25 753.3 1488.25 753.75 1488.2 755.05 1488.2 756.4 1488.2 757.75 1488.2 759.1 1488.2 760.45 1488.15 761.8 1488.15 762.7 1488.15 763.6 1488.15 764.5 1488.15 765.4 1488.1 766.3 1488.1 767.2 1488.1 768.15 1488.1 769.05 1488.05 770.45 1488.15 771.8 1488.2 773.15 1488.4 774.45 1488.55 775.35 1488.75 776.2 1488.9 776.6 1489 777 1489.2 777.4 1489.35 777.75 1489.55 778.1 1489.75 778.45 1489.95 778.8 1490.2 779.15 1490.2 779.5 1490.2 779.9 1490.25 780.3 1490.25 780.7 1490.25 781.1 1490.3 781.45 1490.35 781.8 1490.35 782.15 1490.4 782.65 1490.5 783.15 1490.55 783.65 1490.65 784.1 1490.7 784.6 1490.8 785.1 1490.95 785.55 1491.1 786 1491.3 786.45 1491.5 786.9 1491.65 787.35 1491.85 787.75 1492.15 788.15 1492.45 788.55 1492.75 788.95 1493.05 789.3 1493.35 789.7 1493.7 790.1 1494 790.35 1494.35 790.65 1494.7 790.9 1495.05 791.2 1495.4 791.5 1495.75 791.75 1496.05 792.05 1496.4 792.3 1496.75 792.6 1497.1 792.85 1497.45 793.1 1497.85 793.35 1498.2 793.6 1498.6 793.8 1498.95 793.95 1499.3 794.15 1499.65 794.3 1500 794.45 1500.35 794.55 1500.7 794.65 1501.1 794.75 1501.45 794.85 1501.8 794.95 1502.2 795 1502.55 795.05 1502.95 795.1 1503.35 795.15 1503.75 795.15 1504.15 795.15 1504.5 795.15 1504.9 795.15 1505.3 795.15 1505.7 795.15 1506.1 795.1 1506.5 795.05 1506.9 795 1507.3 794.9 1507.7 794.85 1508.05 794.7 1508.45 794.6 1508.8 794.45 1509.15 794.35 1509.55 794.2 1509.9 794.05 1510.3 793.95 1510.7 793.8 1511.05 793.65 1511.45 793.5 1511.85 793.4 1512.25 793.25 1512.6 793.1 1513 792.9 1513.35 792.75 1513.75 792.6 1514.1 792.4 1514.45 792.2 1514.8 791.95 1515.15 791.75 1515.45 791.5 1515.8 791.25 1516.1 791 1516.45 790.75 1516.75 790.45 1517.05 790.2 1517.35 789.95 1517.65 789.65 1517.95 789.4 1518.25 789.1 1518.55 788.85 1518.85 788.55 1519.2 788.4 1519.55 788.25 1519.9 788.1 1520.25 787.95 1520.6 787.75 1520.95 787.55 1521.25 787.35 1521.6 787.1 1521.9 786.85 1522.25 786.6 1522.55 786.35 1522.85 786.1 1523.15 785.85 1523.4 785.6 1523.7 785.35 1524 785.1 1524.3 784.85 1524.6 784.55 1524.9 784.3 1525.15 784 1525.5 783.75 1525.8 783.5 1526.1 783.3 1526.4 783.05 1526.65 782.8 1526.95 782.55 1527.25 782.35 1527.5 782.1 1527.75 781.85 1528.05 781.55 1528.3 781.3 1528.55 781 1528.8 780.7 1529.05 780.45 1529.25 780.15 1529.55 779.9 1529.8 779.65 1530.05 779.4 1530.45 779.1 1530.8 778.8 1531.2 778.55 1531.6 778.25 1532 777.95 1532.35 777.65 1532.75 777.35 1533.1 777.05 1533.5 776.75 1533.85 776.45 1534.15 776.2 1534.4 775.95 1534.7 775.7 1535 775.45 1535.25 775.25 1535.55 775 1535.9 774.8 1536.25 774.55 1536.65 774.35 1537.05 774.2 1537.35 774.05 1537.65 773.85 1537.95 773.7 1538.25 773.55 1538.65 773.35 1539 773.1 1539.4 772.85 1539.75 772.6 1540.1 772.4 1540.5 772.15 1540.85 771.9 1541.2 771.7 1541.6 771.45 1542 771.25 1542.3 771.05 1542.65 770.9 1543 770.7 1543.3 770.5 1543.65 770.35 1544 770.15 1544.35 770 1544.65 769.8 1545.05 769.6 1545.45 769.4 1545.85 769.2 1546.25 769 1546.65 768.8 1547.1 768.6 1547.5 768.4 1547.9 768.25 1548.3 768.05 1548.7 767.85 1549.05 767.7 1549.4 767.6 1549.75 767.45 1550.15 767.35 1550.5 767.2 1550.85 767.1 1551.15 767.25 1551.4 767.4 1551.65 767.55 1551.95 767.7 1552.2 767.9 1552.45 768 1552.7 768.15 1552.95 768.3 1553.25 768.7 1553.55 769.05 1553.85 769.45 1554.15 769.8 1554.45 770.15 1554.75 770.55 1555.05 770.9 1555.35 771.25 1555.65 771.65 1555.9 772 1556.05 772.2 1556.2 772.45 1556.35 772.65 1556.45 772.9 1556.6 773.2 1556.75 773.55 1556.9 773.85 1557.05 774.15 1557.25 774.5 1557.45 774.85 1557.65 775.15 1557.9 775.5 1558.1 775.8 1558.35 776.15 1558.6 776.45 1558.8 776.75 1559.05 777.05 1559.3 777.35 1559.6 777.75 1559.85 778.2 1560.1 778.6 1560.3 779.05 1560.4 779.25 1560.45 779.5 1560.45 779.7 1560.45 779.9 1560.45 780.3 1560.5 780.7 1560.5 781.1 1560.5 781.5 1560.65 782.5 1560.75 783.45 1560.9 784.4 1561.05 785.4 1561.25 786.3 1561.45 787.2 1561.65 788.05 1561.9 788.9 1562.15 789.75 1562.4 790.55 1562.65 791.4 1562.9 792.2 1563.1 793 1563.35 793.75 1563.6 794.55 1563.85 795.35 1564.1 796.1 1564.35 796.9 1564.65 797.7 1564.9 798.5 1564.95 798.95 1565 799.4 1565.05 799.9 1565.1 800.35 1565.15 800.85 1565.2 801.3 1565.25 801.75 1565.3 802.15 1565.35 802.6 1565.4 803 1565.5 803.45 1565.55 803.85 1565.6 804.25 1565.7 804.7 1565.8 805.1 1565.95 805.5 1566.05 805.9 1566.2 806.25 1566.35 806.65 1566.55 807.05 1566.7 807.4 1566.9 807.8 1567.1 808.15 1567.3 808.5 1567.85 809.55 1568.6 810.55 1569.65 811.9 1570.6 813.3 1571.55 814.7 1572.5 816.15 1573.45 817.6 1574.4 819.05 1575.2 820.4 1576 821.85 1576.8 823.25 1577.8 824.5 1578.55 825.45 1579.4 826.3 1580.3 827.15 1581.2 827.9 1582.2 828.65 1583.2 829.3 1584.55 830.15 1586 830.75 1587.4 831.4 1588.8 831.75 1589.55 832.2 1590.25 832.65 1591.7 833.55 1593.3 834.2 1594.85 834.9 1596.5 835.35 1598.2 835.85 1599.9 836.2 1601.6 836.55 1603.4 836.7 1605.25 836.85 1607.1 836.85 1608.6 836.85 1610.1 836.85 1612.05 836.85 1614 836.85 1615.75 836.8 1617.55 836.8 1619.35 836.8 1621.25 836.8 1622.95 836.8 1624.75 836.85 1629.55 837.05 1634.25 836.05 1638.9 835.1 1643.45 833.85 1648.25 832.5 1653.15 831.45 1658.45 830.25 1663.45 828.2 1668.5 826.15 1673.5 823.95 1678.5 821.75 1683.6 819.7 1688.2 817.8 1692.75 815.85 1696.7755859375 814.1763671875 1700.8 812.5 1700.924609375 812.4490234375 1701.05 812.4 1701.2248046875 812.3244140625 1701.4 812.25 1701.52578125 812.2015625 1701.65 812.15 1702 812.05 1702.35 811.95 1702.7 811.8 1703 811.65 1703.35 811.5 1703.65 811.3 1703.95 811.1 1704.25 810.9 1704.55 810.7 1704.8 810.5 1705.1 810.25 1705.35 810 1705.6 809.7 1705.8 809.4 1706 809.15 1706.25 808.85 1706.45 808.55 1706.7 808.3 1706.85 807.9 1707.05 807.55 1707.2 807.15 1707.35 806.75 1707.5 806.35 1707.6 805.95 1707.65 805.55 1707.75 805.15 1707.8 804.7 1707.8 804.3 1707.8 803.9 1707.8 803.45 1707.75 803.05 1707.7 802.65 1707.6 802.2 1707.5 801.8 1707.4 801.45 1707.3 801.1 1707.15 800.8 1707 800.45 1706.85 800.15 1706.7 799.8 1706.5 799.5 1706.3 799.2 1706.05 798.95 1705.85 798.65 1705.6 798.4 1705.35 798.1 1705.1 797.85 1704.85 797.6 1704.55 797.4 1704.25 797.2 1703.95 797 1703.65 796.8 1703.35 796.6 1703.05 796.45 1702.7 796.3 1702.35 796.15 1702 796.05 1701.65 795.95 1701.25 795.85 1700.9 795.75 1700.5 795.7 1700.1 795.65 1699.75 795.6 1699.35 795.6 1699 795.6 1698.6 795.6 1698.25 795.65 1697.85 795.75 1697.55 795.85 1697.2 795.95 1696.3 796.3 1695.4 796.65 1691.35 798.2 1687.3 799.75 1682.8 801.45 1678.3 803.2 1673.8 804.95 1669.3 806.75 1664.95 808.5 1660.65 810.4 1656.8 812.1 1652.7 812.95 1648.75 813.8 1644.8 814.75 1641.2 815.65 1637.55 816.5 1633.6 817.5 1629.7 818.3 1628.35 818.35 1626.95 818.35 1625.6 818.35 1624.2 818.3 1622.85 818.25 1621.5 818.2 1620 818.2 1618.55 818.15 1617.55 818.15 1616.55 818.15 1615.55 818.15 1614.55 818.15 1613.65 818.15 1612.75 818.15 1611.35 818.1 1610 818.1 1608.6 818.1 1607.25 818.05 1605.85 818 1604.55 817.9 1604.15 817.85 1603.75 817.75 1603.4 817.65 1603 817.55 1602.65 817.45 1602.25 817.35 1601.9 817.25 1601.5 817.1 1601.15 817 1600.75 816.85 1600.35 816.6 1599.95 816.4 1599.55 816.15 1599.15 815.9 1598.75 815.65 1598.35 815.4 1597.95 815.15 1597.5 814.95 1597.15 814.75 1596.75 814.6 1596.4 814.4 1596 814.25 1595.6 814.1 1595.25 813.95 1594.85 813.8 1594.45 813.7 1594.05 813.55 1593.65 813.45 1593.3 813.2 1593 813 1592.85 812.9 1592.75 812.8 1592.4 812.1 1592 811.4 1591.6 810.75 1591.2 810.05 1590.95 809.65 1590.65 809.25 1590.4 808.85 1590.1 808.45 1589.85 808.05 1589.6 807.7 1589.35 807.3 1589.1 806.9 1588.85 806.55 1588.6 806.15 1588.35 805.75 1588.1 805.4 1587.65 804.7 1587.15 804.05 1586.7 803.4 1586.25 802.75 1585.75 802.05 1585.25 801.4 1584.75 800.75 1584.3 800.05 1584 799.55 1583.75 799.05 1583.7 798.55 1583.65 798.05 1583.6 797.6 1583.55 797.1 1583.5 796.6 1583.45 796.15 1583.4 795.65 1583.3 795.15 1583.25 794.7 1583.15 794.2 1583.05 793.75 1582.95 793.35 1582.85 792.95 1582.7 792.55 1582.55 792.1 1582.4 791.7 1582.25 791.3 1582.1 790.9 1582 790.55 1581.85 790.15 1581.75 789.8 1581.6 789.4 1581.5 789.05 1581.4 788.65 1581.25 788.3 1581.15 787.9 1581 787.5 1580.9 787.1 1580.75 786.65 1580.6 786.25 1580.5 785.85 1580.35 785.4 1580.2 785 1580.05 784.6 1579.95 784.2 1579.85 783.8 1579.7 783.4 1579.6 783 1579.5 782.65 1579.4 782.25 1579.3 781.85 1579.2 781.45 1579.15 781.05 1579.05 780.65 1579 780.2 1579 779.8 1578.95 779.35 1578.95 778.9 1578.9 778.45 1578.85 778 1578.8 777.55 1578.75 777.15 1578.7 776.7 1578.65 776.25 1578.55 775.8 1578.45 775.4 1578.4 774.95 1578.25 774.55 1578.15 774.1 1578.05 773.7 1577.9 773.3 1577.7 772.85 1577.55 772.5 1577.4 772.15 1577.25 771.75 1577.1 771.4 1576.95 771.05 1576.75 770.7 1576.6 770.35 1576.45 770 1576.25 769.65 1576.05 769.3 1575.85 768.95 1575.65 768.65 1575.4 768.3 1575.2 768 1574.95 767.65 1574.7 767.35 1574.5 767.05 1574.25 766.7 1574 766.4 1573.75 766.1 1573.5 765.8 1573.25 765.5 1573.1 765.2 1572.95 764.9 1572.75 764.6 1572.6 764.25 1572.45 763.95 1572.3 763.65 1572.15 763.35 1571.95 763.05 1571.7 762.7 1571.45 762.35 1571.2 762.05 1570.95 761.7 1570.7 761.35 1570.45 761.05 1570.2 760.7 1569.95 760.35 1569.7 760.05 1569.4 759.7 1569.15 759.4 1568.85 759.05 1568.55 758.7 1568.25 758.4 1567.95 758.05 1567.65 757.7 1567.4 757.3 1567.15 756.95 1566.85 756.55 1566.55 756.2 1566.3 755.85 1566 755.5 1565.75 755.2 1565.45 754.9 1565.2 754.65 1564.9 754.4 1564.6 754.15 1564.3 753.9 1563.95 753.7 1563.6 753.5 1563.3 753.3 1563.05 753.15 1562.75 753 1562.45 752.85 1562.15 752.7 1561.85 752.55 1561.45 752.3 1561.05 752.1 1560.7 751.85 1560.3 751.65 1559.9 751.45 1559.5 751.25 1559.1 751.05 1558.7 750.85 1558.3 750.65 1557.9 750.5 1557.5 750.3 1557.15 750.15 1556.75 750 1556.4 749.85 1556 749.7 1555.65 749.55 1555.25 749.4 1554.9 749.3 1554.5 749.2 1554.1 749.15 1553.7 749.1 1553.3 749.05 1552.9 749 1552.5 748.95 1552.1 748.9 1551.7 748.85 1551.3 748.85 1550.9 748.85 1550.5 748.9 1550.1 748.95 1549.7 749 1549.3 749.05 1548.9 749.1 1548.5 749.15 1548.15 749.2 1547.75 749.3 1546.85 749.55 1546 749.8 1544.7 750.2 1543.45 750.7 1542.2 751.2 1540.95 751.75 1540.2 752.1 1539.45 752.45 1538.75 752.75 1538.1 753.05 1537.35 753.45 1536.6 753.85 1535.7 754.3 1534.85 754.75 1534 755.2 1533.2 755.7 1532.4 756.2 1531.6 756.7 1530.8 757.2 1530 757.65 1529.35 758 1528.7 758.35 1528.05 758.7 1527.4 759.05 1527.1 759.2 1526.8 759.4 1526.45 759.65 1526.1 759.9 1525.8 760.15 1525.45 760.4 1525.1 760.65 1524.75 760.9 1524.45 761.15 1524.1 761.45 1523.8 761.7 1523.45 761.95 1523.15 762.25 1522.8 762.5 1522.5 762.8 1522.15 763.1 1521.85 763.35 1521.55 763.65 1521.2 763.95 1520.9 764.25 1520.5 764.5 1520.15 764.75 1519.8 765 1519.45 765.3 1519.1 765.55 1518.75 765.85 1518.4 766.1 1518.05 766.4 1517.75 766.65 1517.5 766.9 1517.25 767.15 1517 767.4 1516.75 767.7 1516.5 767.95 1516.3 768.25 1516.05 768.5 1515.8 768.75 1515.55 769.05 1515.3 769.3 1515 769.55 1514.75 769.8 1514.45 770.05 1514.15 770.3 1513.85 770.55 1513.6 770.8 1513.3 771 1513 771.25 1512.75 771.5 1512.45 771.8 1512.15 772.05 1511.9 772.35 1511.6 772.6 1511.3 772.75 1510.95 772.9 1510.6 773.05 1510.3 773.2 1509.9 773.45 1509.5 773.65 1509.15 773.9 1508.75 774.15 1508.4 774.45 1508.05 774.75 1507.7 775.05 1507.4 775.35 1507.15 775.55 1506.9 775.65
L 1506.85 775.5
Q 1506.8 775.1 1506.7 774.7 1506.6 774.35 1506.5 773.95 1506.35 773.6 1506.2 773.25 1506.05 772.85 1505.9 772.5 1505.75 772.15 1505.6 771.8 1505.4 771.45 1505.25 771.1 1505.15 770.9 1505 770.7 1504.9 768.75 1504.95 766.8 1504.95 763.95 1504.95 761.1 1504.9 758.3 1504.9 755.45 1504.85 752.5 1504.85 749.5 1504.8 746.5 1504.8 743.55 1504.8 741.1 1504.75 738.65 1504.75 736.2 1504.7 733.75 1504.65 731.55 1504.6 729.45 1504.55 727.45 1504.2 725.45 1504.1 725.1 1504 724.8 1503.9 724.45 1503.75 724.15 1503.55 723.85 1503.4 723.55 1503.15 723.2 1502.9 722.9 1502.65 722.55 1502.4 722.25 1502.15 721.95 1501.9 721.6 1501.7 721.4 1501.45 721.15 1501.2 720.9 1500.9 720.7 1500.65 720.55 1500.35 720.4 1500.05 720.25 1499.75 720.1 1499.4 719.95 1499.1 719.85 1498.8 719.7 1498.5 719.6 1498.15 719.45 1497.85 719.35 1497.45 719.25 1497 719.15 1496.6 719.1 1496.15 719.05 1495.75 719.05 1495.3 719.05 1494.9 719.1 1494.45 719.15 1494.05 719.25 1493.6 719.35 1493.25 719.45 1492.9 719.55 1492.55 719.7 1492.2 719.85 1491.85 720.05 1491.5 720.2 1491.15 720.45 1490.8 720.65 1490.5 720.85 1490.15 721.1 1489.9 721.35 1489.6 721.6 1489.35 721.85 1489.1 722.15 1488.85 722.45 1488.6 722.8 1488.35 723.1 1488.1 723.45 1487.85 723.75 1487.6 724.1 1487.4 724.4 1487.15 724.75 1486.95 725.1 1486.75 725.45 1486.5 725.8 1486.25 726.2 1486 726.6 1485.8 726.95 1485.45 727.3 1485.15 727.6 1484.85 727.95 1484.55 728.3 1484.3 728.55 1484.1 728.85 1483.85 729.15 1483.7 729.4 1483.5 729.65 1483.35 729.9 1483.2 730.15 1483.05 730.4 1482.9 730.7 1482.75 730.95 1482.6 731.25 1482.5 731.6 1482.35 731.95 1482.2 732.3 1482.05 732.6 1481.95 732.95 1481.8 733.3 1481.7 733.65 1481.6 734 1481.5 734.35 1481.4 734.7 1481.3 735.1 1481.05 735.4 1480.85 735.7 1480.35 736.35 1479.9 737 1479.45 737.65 1479 738.3 1478.6 738.95 1478.2 739.65 1477.85 740.35 1477.4 741 1477 741.75 1476.55 742.45 1476.05 743.2 1475.6 743.95 1475.1 744.75 1474.65 745.6 1474.15 746.4 1473.7 747.2 1473.25 748 1472.8 748.8 1472.35 749.55 1471.9 750.35 1471.45 751.15 1471 751.9 1470.7 752.2 1470.45 752.55 1470.15 752.85 1469.85 753.15 1469.55 753.45 1469.25 753.7 1468.95 753.95 1468.6 754.15 1468.3 754.4 1467.95 754.65 1467.65 754.85 1467.35 755.1 1467 755.35 1466.7 755.6 1466.45 755.9 1466.15 756.15 1465.85 756.5 1465.55 756.8 1465.25 757.15 1465 757.5 1464.7 757.85 1464.4 758.2 1464.15 758.55 1463.85 758.9 1463.6 759.25 1463.3 759.6 1463.05 759.95 1462.8 760.25 1462.55 760.6 1462.35 760.95 1462.1 761.3 1461.85 761.65 1461.6 762 1461.4 762.4 1461.15 762.75 1460.95 763.1 1460.75 763.45 1460.6 763.8 1460.4 764.1 1460.2 764.45 1460 764.75 1459.8 765.1 1459.55 765.35 1459.25 765.65 1458.95 765.9 1458.65 766.2 1458.35 766.45 1458.1 766.7 1457.8 767 1457.5 767.25 1457.2 767.55 1456.95 767.85 1456.65 768.15 1456.4 768.45 1456.15 768.75 1455.85 769.05 1455.6 769.35 1455.3 769.65 1455.0908203125 769.9427734375 1454.85 770.15
M 1503.9 777.9
Q 1504.05 777.8 1504.25 777.75 1504.1955078125 777.7771484375 1504.15 777.8 1504.05 777.85 1503.9 777.9
M 1504.45 777.65
L 1504.4 777.7
Q 1504.358984375 777.713671875 1504.3 777.7 1504.409375 777.688671875 1504.45 777.65
M 1395.7 790.6
Q 1395.85 790 1396 789.4 1393.6 791.2 1391.05 792.5 1390.75 794.05 1390.6 795.6 1390.3 798.8 1390.25 802 1390.2 805.4 1390.15 808.8 1390.05 812.2 1390 815.6 1390 818.45 1389.9 821.3 1389.9 822.5 1389.85 823.65 1389.85 825.35 1389.8 827 1389.75 829.85 1389.65 832.65 1389.6 835.4 1389.45 838.1 1389.4 839.15 1389.4 840.15 1389.45 841.9 1389.65 843.65 1389.75 844.1 1389.85 844.55 1390 844.85 1390.1 845.15 1390.25 845.4 1390.4 845.65 1390.6 845.95 1390.75 846.2 1390.95 846.45 1391.1 846.7 1391.3 847.05 1391.45 847.4 1391.65 847.75 1391.85 848.1 1392 848.45 1392.2 848.8 1392.45 849.15 1392.7 849.55 1392.95 849.95 1393.2 850.3 1393.45 850.7 1393.75 851.05 1394.05 851.45 1394.3 851.8 1394.6 852.15 1394.95 852.45 1395.2 852.75 1395.5 853 1395.75 853.3 1396.05 853.55 1396.35 853.8 1396.65 854 1397 854.2 1397.35 854.4 1397.75 854.55 1398.1 854.75 1398.5 854.85 1398.85 855 1399.15 855.05 1399.5 855.15 1399.85 855.15 1400.2 855.2 1400.55 855.15 1400.9 855.15 1401.2 855.1 1401.55 855 1401.85 854.9 1402.15 854.8 1402.45 854.65 1402.75 854.5 1403 854.3 1403.3 854.15 1403.65 854.05 1404 853.95 1404.35 853.9 1404.7 853.8 1405.05 853.7 1405.4 853.6 1405.75 853.5 1406.1 853.4 1406.4 853.25 1406.75 853.1 1407.05 852.95 1407.4 852.8 1407.65 852.55 1407.95 852.35 1408.2 852.1 1408.45 851.85 1408.65 851.55 1408.9 851.25 1409.15 850.95 1409.4 850.65 1409.65 850.35 1409.9 850.05 1410.15 849.8 1410.4 849.5 1410.7 849.2 1410.95 848.9 1411.25 848.6 1411.5 848.3 1411.75 848 1412.05 847.65 1412.3 847.35 1412.55 847.05 1412.8 846.75 1413.05 846.4 1413.3 846.1 1413.5 845.75 1413.75 845.4 1413.95 845.05 1414.15 844.7 1414.35 844.35 1414.5 844 1414.7 843.65 1414.9 843.3 1415.15 842.95 1415.4 842.6 1415.7 842.3 1415.95 841.95 1416.25 841.6 1416.5 841.25 1416.75 840.9 1417.05 840.55 1417.25 840.2 1417.5 839.8 1417.75 839.45 1417.95 839.05 1418.2 838.7 1418.35 838.4 1418.5 838.05 1418.7 837.75 1418.85 837.45 1419 837.15 1419.15 836.9
L 1419.15 837.05
Q 1419.1 837.45 1419.1 837.9 1419.1 838.35 1419.1 838.75 1419.1 839.2 1419.1 839.65 1419.05 840.1 1419.05 840.5 1419.05 840.95 1419.05 841.4 1419.05 841.85 1419 842.3 1419 842.75 1419 843.2 1419 843.65 1419 844.15 1419.05 844.6 1419.1 845.05 1419.1 845.4 1419.15 845.7 1419.2 846.1 1419.25 846.45 1419.25 846.8 1419.35 847.2 1419.4 847.55 1419.5 847.9 1419.6 848.25 1419.7 848.6 1419.8 848.95 1419.95 849.3 1420.1 849.6 1420.25 849.95 1420.4 850.3 1420.5 850.65 1420.65 851.05 1420.75 851.5 1420.85 851.9 1420.95 852.35 1421.05 852.75 1421.1 853.2 1421.2 853.6 1421.3 854.05 1421.4 854.45 1421.55 854.9 1421.65 855.3 1421.8 855.75 1421.95 856.15 1422.1 856.6 1422.3 857 1422.45 857.45 1422.65 857.85 1422.85 858.25 1423 858.65 1423.2 859.1 1423.4 859.5 1423.55 859.9 1423.75 860.3 1423.95 860.7 1424.15 861.1 1424.4 861.5 1424.6 861.8 1424.85 862.15 1425.1 862.45 1425.4 862.8 1425.7 863.1 1426 863.4 1426.3 863.65 1426.65 863.9 1426.95 864.15 1427.3 864.35 1427.65 864.55 1428 864.7 1428.3 864.9 1428.65 865.05 1429 865.2 1429.35 865.35 1429.75 865.5 1430.1 865.6 1430.5 865.7 1430.9 865.8 1431.3 865.85 1431.65 865.95 1432.05 866 1432.45 866.05 1432.9 866.1 1433.3 866.15 1433.8 866.2 1434.3 866.25 1434.75 866.3 1435.25 866.35 1435.75 866.4 1436.25 866.4 1436.65 866.45 1437.05 866.5 1437.4 866.5 1437.8 866.55 1438.2 866.5 1438.6 866.5 1439 866.5 1439.4 866.45 1439.85 866.4 1440.25 866.35 1440.65 866.3 1441.05 866.25 1441.45 866.2 1441.9 866.15 1442.3 866.05 1442.7 865.95 1443.05 865.85 1443.4 865.7 1444.15 865.4 1444.9 865.05 1447.2 864 1449.05 862.4 1451.1 860.65 1453 858.8 1453.9 857.9 1454.85 857.05 1454.05 848.5 1452.4 839.95 1452.35 839.95 1452.3 840 1452 840.3 1451.7 840.6 1450.95 841.15 1450.2 841.7 1449.5 842.25 1448.75 842.85 1448.35 843.15 1448 843.4 1447.65 843.7 1447.3 844 1446.95 844.3 1446.6 844.6 1446.3 844.85 1445.95 845.15 1445.65 845.45 1445.35 845.8 1444.75 846.4 1444.1 847 1443.5 847.65 1442.9 848.25 1442.25 848.85 1441.65 849.5 1441 850.1 1440.35 850.7 1439.7 851.3 1439.05 851.85 1438.8 852.05 1438.55 852.15 1438.4 852.25 1438.25 852.25 1437.85 852.3 1437.45 852.3 1437.05 852.3 1436.65 852.3 1436.25 852.3 1435.85 852.3 1435.45 852.3 1435.05 852.3 1434.85 851.95 1434.7 851.55 1434.55 851.15 1434.45 850.7 1434.35 850.25 1434.2 849.8 1434.1 849.4 1434 848.95 1433.85 848.5 1433.75 848.1 1433.6 847.65 1433.45 847.2 1433.3 846.8 1433.1 846.4 1432.95 845.95 1432.75 845.55 1432.55 845.15 1432.35 844.75 1432.3 844.45 1432.2 844.15 1432.15 843.85 1432.1 843.55 1432.05 843.1 1432.05 842.65 1432.05 842.15 1432.05 841.7 1432 841.2 1432 840.7 1432 840.25 1432 839.75 1432 839.3 1432 838.8 1432 838.35 1432 837.85 1432 837.4 1432 836.95 1432 836.5 1432 836 1432 835.55 1432 835.1 1432 834.65 1432 834.15 1432 833.7 1432 833.25 1432 832.8 1432.05 832.3 1432.05 831.85 1432.05 831.4 1432.1 830.95 1432.1 830.45 1432.15 830 1432.2 829.55 1432.3 829.1 1432.4 828.65 1432.55 828.2 1432.7 827.75 1432.8 827.35 1432.95 826.95 1433.05 826.55 1433.2 826.15 1433.3 825.65 1433.4 825.15 1433.5 824.7 1433.55 824.2 1433.65 823.7 1433.75 823.2 1433.8 822.75 1433.85 822.25 1433.95 821.75 1434 821.25 1434.05 820.85 1434.05 820.45 1434.05 820 1434.1 819.6 1434.1 819.2 1434.1 818.8 1434.1 818.35 1434.1 817.95 1434.1 817.55 1434.1 817.15 1434.15 816.7 1434.15 816.25 1434.15 815.8 1434.2 815.35 1434.25 814.95 1434.25 814.5 1434.35 814.05 1434.5 813.65 1434.75 812.85 1435 812 1435.25 811.2 1435.45 810.4 1435.65 809.55 1435.8 808.75 1435.95 807.9 1436 807 1436.1 806.15 1436.15 805.3 1436.2 804.35 1436.15 803.45 1436.15 802.5 1436.15 801.55 1436.15 800.55 1436.15 799.55 1436.2 798.55 1436.2 797.55 1436.25 796.55 1436.3 795.55 1436.45 795.15 1436.55 794.7 1436.65 794.3 1436.8 793.9 1434.35 788.8 1431.55 783.7 1430.3 781.4 1429.05 779.1 1429 779.1 1429 779.15 1428.8 779.45 1428.65 779.8 1428.5 780.1 1428.35 780.45 1428.2 780.8 1428.05 781.15 1427.9 781.5 1427.8 781.8 1427.65 782.15 1427.5 782.5 1427.3 782.9 1427.15 783.25 1426.95 783.65 1426.8 784.05 1426.6 784.4 1426.45 784.8 1426.3 785.2 1426.2 785.6 1426.1 786 1426 786.4 1425.9 786.8 1425.85 787.2 1425.75 787.6 1425.7 788 1425.65 788.4 1425.6 788.8 1425.55 789.25 1425.5 789.65 1425.5 790 1425.45 790.35 1425.45 790.7 1425.45 791.05 1425.45 791.4 1425.4 791.75 1425.3 792.1 1425.25 792.5 1425.15 792.85 1425.1 793.2 1425.05 793.6 1425 793.95 1424.9 794.35 1424.85 794.75 1424.85 795.1 1424.8 795.5 1424.75 795.85 1424.7 796.25 1424.65 796.65 1424.65 797 1424.5 797.4 1424.35 797.8 1423.95 798.9 1423.65 800.05 1423.35 801.05 1423.05 802.05 1422.95 802.25 1422.9 802.45 1422.45 803.7 1422.05 805 1421.65 806.25 1421.4 807.6 1421.1 808.9 1420.75 810.2 1420.35 811.5 1419.9 812.7 1419.5 813.9 1419.15 815.05 1418.8 816.25 1418.4 817.4 1418 818.55 1417.55 819.7 1417.15 820.85 1416.8 822.05 1416.8 822.1 1416.75 822.2 1416.45 823.25 1416.1 824.35 1415.9 824.7 1415.75 825.05 1415.55 825.4 1415.4 825.7 1415.2 826.05 1415 826.4 1414.8 826.75 1414.6 827.05 1414.35 827.4 1414.15 827.75 1413.9 828.05 1413.7 828.4 1413.45 828.7 1413.25 829.05 1413.05 829.4 1412.9 829.8 1412.7 830.15 1412.55 830.5 1412.4 830.9 1412.25 831.3 1412.1 831.7 1412 832.05 1411.9 832.5 1411.75 832.95 1411.65 833.4 1411.5 833.8 1411.3 834.2 1411.1 834.65 1410.9 835.05 1410.65 835.45 1410.45 835.85 1410.2 836.2 1409.95 836.6 1409.7 837 1409.4 837.3 1409.15 837.65 1408.9 837.95 1408.65 838.3 1408.4 838.65 1408.15 839 1407.95 839.35 1407.8 839.75 1407.6 840.15 1407.4 840.55 1407.2 840.95 1407 841.3 1406.8 841.7 1406.55 842.05 1406.3 842.45 1406.05 842.8 1405.75 843.2 1405.45 843.55 1405.15 843.95 1404.85 844.3 1404.55 844.7 1404.25 845.05 1403.9 845.45 1403.65 845.85 1403.35 846.2 1403.05 846.6 1402.65 846.7 1402.3 846.85 1401.95 846.95 1401.55 847.1 1401.2 847.2 1400.85 847.35 1400.6 847.45 1400.35 847.6 1400.1 847.7 1399.95 847.65 1399.6 847.55 1399.3 847.3 1399 847 1398.75 846.7 1398.45 846.4 1398.2 846.1 1398 845.8 1397.8 845.5 1397.55 845.15 1397.35 844.85 1397.15 844.5 1396.95 844.2 1396.75 843.9 1396.55 843.6 1396.3 843.25 1396.1 843 1395.85 842.7 1395.65 842.4
L 1395.6 842.4
Q 1395.4 840.9 1395.35 839.4 1395.35 837.9 1395.3 836.4 1395.3 834.75 1395.25 833.1 1395.2 830 1395.15 826.9 1395.1 824.05 1395 821.2 1395 820.95 1395 820.75 1394.9 818.05 1394.85 815.4 1394.8 812.5 1394.75 809.55 1394.7 807.25 1394.65 804.95 1394.6 802.25 1394.6 799.55 1394.55 796.7 1394.85 793.9 1394.95 793.5 1395.05 793.1 1395.35 791.85 1395.7 790.6
M 1439.3 698.45
Q 1438.9 698.3 1438.55 698.2 1438.1 698.15 1437.7 698.1 1437.3 698.1 1436.9 698.1 1436.5 698.2 1436.1 698.25 1435.75 698.4 1435.45 698.5 1435.15 698.65 1434.85 698.8 1434.55 698.95 1434.3 699.15 1434.05 699.35 1433.8 699.6 1433.55 699.85 1433.35 700.1 1433.15 700.35 1432.95 700.65 1432.8 700.95 1432.65 701.25 1432.55 701.6 1432.45 701.9 1432.4 702.25 1432.3 702.55 1432.3 702.9 1432.25 703.25
L 1432.25 703.3
Q 1432.25 703.75 1432.2 704.15 1432.2 704.6 1432.15 705 1432.15 705.45 1432.15 705.9 1432.1 706.3 1432.1 706.75 1432.05 707.2 1432.05 707.6 1432 707.9 1431.9 708.15 1431.85 708.45 1431.8 708.7 1431.61875 709.0169921875 1431.45 709.3 1432.73515625 711.644140625 1434 713.95 1436.7904296875 719.0412109375 1439.25 724.15 1439.4 723.75 1439.55 723.35 1439.7 722.95 1439.85 722.55 1440 722.15 1440.1 721.8 1440.2 721.4 1440.3 720.95 1440.4 720.5 1440.5 720.05 1440.55 719.6 1440.65 719.1 1440.7 718.65 1440.75 718.2 1440.85 717.7 1440.9 717.25 1440.95 716.8 1441 716.3 1441.1 715.9 1441.2 715.5 1441.35 715.1 1441.5 714.7 1441.6 714.35 1441.75 713.95 1441.9 713.55 1442 713.15 1442.15 712.75 1442.25 712.35 1442.35 711.9 1442.45 711.45 1442.55 711 1442.6 710.55 1442.7 710.05 1442.75 709.6 1442.8 709.15 1442.85 708.7 1442.85 708.25 1442.9 707.75 1442.85 707.3 1442.85 706.85 1442.85 706.4 1442.8 706 1442.8 705.6 1442.75 705.2 1442.75 704.75 1442.7 704.35 1442.7 703.95 1442.65 703.55 1442.6 703.1 1442.55 702.7 1442.5 702.3 1442.45 701.9 1442.35 701.55 1442.25 701.25 1442.1 700.95 1441.95 700.65 1441.75 700.4 1441.6 700.1 1441.35 699.85 1441.1 699.6 1440.85 699.35 1440.6 699.15 1440.35 698.95 1440.05 698.8 1439.7 698.6 1439.3 698.45
M 1314.25 731.25
Q 1305.1 730.5 1298.85 724.55 1294.5 727.2 1289.75 731.3 1290.05 731.85 1290.35 732.45 1293.7 739.1 1305.75 758.7 1318.1 778.8 1328.8 799.45 1334.1 800.55 1339.65 804.15 1343.8 806.9 1349.1 811.85 1357.6 819.8 1366.2 829.65 1366.5 828.45 1366.75 827.2 1368.9 822.8 1370.1 818.1 1370.6 816.15 1371.05 814.15
L 1371.1 814.15
Q 1371.5 814.1 1371.9 814.05 1372.3 813.95 1372.7 813.85 1373.05 813.75 1373.45 813.6 1373.8 813.45 1374.2 813.3 1374.55 813.1 1374.9 812.95 1375.25 812.7 1375.6 812.5 1375.9 812.25 1376.25 812 1376.55 811.75 1376.8 811.45 1377.1 811.15 1377.4 810.85 1377.65 810.5 1377.9 810.15 1378.15 809.75 1378.35 809.4 1378.55 809 1378.75 808.65 1378.9 808.2 1379.05 807.8 1379.15 807.4 1379.3 807 1379.35 806.55 1379.45 806.15 1379.5 805.7 1379.55 805.25 1379.55 804.85 1379.55 804.4 1379.5 804 1379.5 803.55 1379.65 803.2 1379.8 802.8 1379.95 802.45 1380.1 802.05 1380.25 801.65 1380.35 801.3 1380.5 800.85 1380.65 800.45 1380.75 800 1380.9 799.55 1381 799.15 1381.2 798.7 1381.3 798.5 1381.4 798.25 1381.6 797.9 1381.8 797.5 1382 797.1 1382.2 796.7 1382.35 796.3 1382.5 795.9 1382.7 795.5 1382.85 795.1
L 1382.9 795.05
Q 1378.15 795.8 1373.05 794.85 1364.6 793.3 1358.6 787.75 1352.6 782.15 1350.4 773.85 1348.2 765.55 1350.65 757.75 1341.55 754.25 1335.85 745.65 1330.2 737 1330.6 727.3 1323.45 732.05 1314.25 731.25
M 1436.15 667.15
Q 1431.5880859375 666.255078125 1427.35 663.8 1424.15 669.85 1420.15 680.8 1420.1408203125 680.825 1420.1 680.85 1423.0234375 678.36328125 1426.1 676.2 1428.85 674.25 1431.3 671.9 1433.7068359375 669.5361328125 1436.15 667.15 Z"/>

<path fill="#999999" fill-opacity="0" stroke="none" d="
M 688.65 440.25
Q 688.85 439.6 689.05 439 688.2 439.35 687.35 439.8 680.9 443.05 674.55 446.4 673.3 447.05 672.1 447.8 672.85 448.55 673.65 449.4 677.1 447.3 680.7 445.5 684.3 443.65 688.1 442.3 688.35 441.2 688.65 440.25
M 1389.8 827
Q 1389.85 825.35 1389.85 823.65 1388.8 824.3 1387.85 825 1386.3 826.1 1384.65 827.05 1383.1 828 1381.45 828.75 1380.2 829.35 1378.95 830.1 1377.6 830.9 1376.25 831.75 1374.9 832.55 1373.5 833.3 1372.1 834.1 1370.7 834.85 1370.65 834.9 1370.6 834.9 1371.75 836.25 1372.85 837.65 1376.05 841.6 1379.45 846.1 1384.5 843.25 1389.4 840.15 1389.4 839.15 1389.45 838.1 1389.6 835.4 1389.65 832.65 1389.75 829.85 1389.8 827
M 1419.05 802.85
Q 1418.4 803.35 1417.75 803.8 1417.35 804.15 1416.9 804.45 1416.35 804.85 1415.75 805.25 1415.2 805.65 1414.6 806.05 1414.05 806.45 1413.5 806.9 1412.95 807.35 1412.45 807.8 1411.9 808.25 1411.45 808.75 1410.95 809.3 1410.45 809.85 1409.95 810.4 1409.5 810.95 1409 811.5 1408.5 812.05 1408 812.6 1407.5 813.15 1407 813.7 1406.5 814.2 1406.15 814.4 1405.8 814.6 1405.45 814.8 1405.15 815 1404.8 815.2 1404.45 815.4 1404.15 815.6 1403.9 815.8 1403.6 815.95 1403.3 816.15 1403 816.35 1402.75 816.55 1402.45 816.75 1402.2 816.95 1401.9 817.15 1401.6 817.35 1401.3 817.55 1401 817.75 1400.7 817.95 1400.45 818.15 1400.15 818.35 1399.85 818.5 1399.55 818.7 1399.2 818.85 1398.9 819 1398.6 819.2 1398.3 819.35 1397.95 819.5 1396.85 819.95 1395.75 820.4 1395.35 820.55 1395 820.75 1395 820.95 1395 821.2 1395.1 824.05 1395.15 826.9 1395.2 830 1395.25 833.1 1395.3 834.75 1395.3 836.4 1399.35 833.9 1403.6 831.75 1409.1 828.95 1413.75 824.95 1415.3 823.6 1416.75 822.2 1416.8 822.1 1416.8 822.05 1417.15 820.85 1417.55 819.7 1418 818.55 1418.4 817.4 1418.8 816.25 1419.15 815.05 1419.5 813.9 1419.9 812.7 1420.35 811.5 1420.75 810.2 1421.1 808.9 1421.4 807.6 1421.65 806.25 1422.05 805 1422.45 803.7 1422.9 802.45 1422.95 802.25 1423.05 802.05 1422.95 802 1422.85 802 1422.5 802 1422.2 802 1421.85 802 1421.55 802 1421.2 802.05 1420.9 802.1 1420.55 802.2 1420.25 802.3 1419.95 802.4 1419.65 802.55 1419.35 802.7 1419.05 802.85 Z"/>
</g>
</defs>

<g transform="matrix( 1, 0, 0, 1, 0,0) ">
<use xlink:href="#Layer0_0_FILL"/>
</g>
</svg>
