
<svg xmlns="http://www.w3.org/2000/svg" version="1.1" xmlns:xlink="http://www.w3.org/1999/xlink" preserveAspectRatio="none" x="0px" y="0px" width="1920px" height="1080px" viewBox="0 0 1920 1080">
<defs>
<g id="Layer0_0_FILL">
<path fill="#120000" stroke="none" d="
M 925.45 951.6
L 926.05 952.85
Q 926.8 952.1 925.9 951.1 925.05 950.1 923.7 949.8 912.75 947.25 898.3 957.9 886.05 966.95 874.25 980.3 863.85 992 858.25 1002.05 853.4 1010.9 855.65 1016.45 856.9 1019.55 861.1 1023.05 874.3 1034.55 891.2 1041.1 909.35 1048.15 926.95 1047.35 936.05 1046.95 942.35 1044.2 952.05 1039.9 960.35 1027.3 954 1031.65 946.45 1034.3 938.9 1036.85 931 1037.4 918.1 1038.35 903.6 1033.9 895.45 1031.45 888.1 1027.8 877 1022.35 868 1015 865.7 1013.15 864.5 1011.65 862.8 1009.65 862.5 1007.55 862.1 1004.6 864.85 1000 869.55 992.15 878.95 981.8 890.05 969.35 899.3 962.65 912.25 953.45 925.45 951.6
M 934.3 805.35
Q 936.75 805.25 937.2 806.55 937.35 805.45 936.4 804.45 935.5 803.55 934.2 803.1 931.4 802.15 927.65 802.8 925.1 803.35 921.15 804.9 906.2 810.85 896.75 816.25 882.5 824.5 871.05 836.25 859.65 847.95 852.25 862 844.3 877.1 841.45 893.7 838.85 909.05 841.9 920.65 843.75 927.55 847.55 933.2 851.6 939.25 857.35 943.1 866.25 949.1 879.45 950.05 889.8 950.85 903.65 948.55 914.1 946.8 920.55 944.3 926.55 942 927.6 938.55 928.25 936.35 926.3 934.45 924.35 932.45 922.25 933.5
L 924.3 936.65
Q 920.75 936.95 907.55 938.8 897.25 940.2 890.75 940.35 881.55 940.55 873.9 938.5 865.15 936.15 859.45 931 853.1 925.35 850.25 916.2 847.85 908.45 848.15 898.75 848.75 879.75 857.75 862.05 866.8 844.4 882.3 831.9 891.05 824.8 903.25 818.35 912.15 813.7 926.2 807.75 931.3 805.55 934.3 805.35
M 974.95 607.75
Q 973.8 609.55 974.2 612.15 974.45 613.85 975.55 616.75 983.35 637.45 984.4 664.8 985.1 681.8 982.8 714.15 988.5 705.45 990.2 692.8 991.3 684.85 991 669.85 990.55 648.55 988.25 637.1 984.7 619.15 974.95 607.75
M 1088.6 590.3
Q 1089.35 591.05 1090.9 592.45 1092.3 593.8 1093 594.8 1093.35 595.3 1093.9 596.3 1094.45 597.15 1095.05 597.6 1096.95 599 1099.65 598.1 1101.45 597.5 1103.6 595.5 1110.95 588.95 1112.8 581.15 1113.8 576.9 1112.9 572.8 1112 568.4 1109.2 565.2 1106.3 561.9 1102.3 560.65 1098.6 559.55 1094.55 560.6 1090.65 561.65 1087.8 564.25 1085.1 566.8 1083.8 570.45 1082.55 573.95 1082.8 577.6 1083.05 581.1 1084.55 584.35 1086.05 587.7 1088.6 590.3
M 1090.4 578.5
Q 1090.2 576.65 1089.8 575.45 1089.3 574.1 1089.1 573.45 1088.8 572.25 1089 571.35 1089.2 570.35 1090.2 569.6 1091.1 568.9 1092.3 568.75 1094.25 568.35 1096.8 569.45 1099.95 570.8 1102.15 573.45 1104.35 576.1 1105 579.2 1105.65 582.35 1104.75 585.55 1103.85 588.75 1101.6 591.25 1100.4 592.65 1099 593.2 1097.15 593.9 1095.8 593 1095.2 592.55 1094.35 591.05 1091.25 585 1090.7 581.5
L 1090.4 578.5
M 1092.95 535.4
Q 1084.2 536.7 1077.95 541.9 1071.65 547.1 1069.3 555.05 1066.95 562.9 1069.45 570.3 1070.2 553.25 1080 546.3 1085.1 542.7 1092 542.3 1098.7 541.85 1104.65 544.55 1110.3 547.05 1114.7 551.9 1118.8 556.45 1121.05 562.3 1123.4 568.5 1123.3 575.1 1123.2 581.8 1120.55 587.75 1117.8 593.8 1112.65 598.4 1107.4 603.1 1100.8 605.2 1106.85 607.15 1113.5 603.5 1119.3 600.3 1123.25 594.3 1127.15 588.4 1129 581.6 1130.9 574.85 1130.5 567.95 1129.95 557.95 1124.5 549.6 1118.75 540.7 1109.45 537.1 1101.7 534.05 1092.95 535.4
M 964.55 610.7
Q 964.45 607 962.9 603.85 961.3 600.45 958.35 598.3 955.25 596.1 951.25 595.85 947.1 595.65 944.1 597.7 940.05 600.5 938.7 607.4 937.5 613.7 938.8 620.2 940.05 626.65 943.55 632.15 946.2 636.15 949.15 636.35 951.85 636.45 954.75 633.4 958.15 629.8 960.95 624.25 964.75 616.8 964.55 610.7
M 953.05 608.8
Q 957.45 613.8 956.75 617.95 956.5 619.35 955.4 621.4 954 623.95 953.7 624.8 953.3 624.95 952.95 624.55 952.65 624.2 952.5 623.7 951.2 618.7 950.95 616 950.6 611.6 951.95 608.4 948.3 612.15 945.9 617 943.7 610.8 945.45 604.45 949.25 604.6 953.05 608.8
M 933 578.5
Q 941.35 576.2 948.15 579.05 951.8 580.55 955.35 583.85 957.55 585.9 961.15 590.15
L 971.35 602.2
Q 969.85 590.4 964.95 582.9 961.95 578.35 957.75 575.2 953.15 571.85 947.95 570.8 940.85 569.35 932.9 572.05 926 574.45 919.55 579.55 910.95 586.35 906.15 595.05 900.9 604.45 901.4 613.95 901.85 622.65 907.1 630.35 912.35 637.95 920.65 642.1 929.7 646.55 938.4 645.2 943.05 644.45 946.85 641.9 950.8 639.3 952.55 635.5 945.7 639.25 934.65 635.75 928.3 633.8 923.1 630.35 917.6 626.7 914 621.9 910.25 616.85 909.05 610.9 907.8 604.75 909.65 599.15 912 592.1 919.25 585.9 925.5 580.55 933 578.5
M 1079.5 614.85
Q 1079.35 614.45 1079.2 614.1 1075.25 604.65 1071.75 595.15 1070.9 592.55 1069.25 592.5 1067.9 592.45 1067.35 594 1066.9 595.3 1067.2 596.85 1068.7 604.25 1071.2 612.3 1073 618.05 1075.35 624.15 1076 625.95 1076.75 627.75 1081.9 640.7 1089.65 655.85 1091.1 658.75 1092.65 661.7 1098.05 671.9 1108.8 690.75 1109.85 692.65 1111 694.65 1115.45 702.5 1118.35 706.5 1120.5 709.45 1122.75 711.9 1125.3 714.6 1128 716.65 1129.9 718.05 1131.65 718.55 1133.85 719.2 1135.4 718.25 1133.5 717.35 1132.35 715 1131.9 714.15 1130.75 710.7 1130.6 710.3 1130.5 709.95 1129.35 706.85 1127.35 703.4 1126.1 701.2 1123 696.5 1120.35 692.5 1117.85 688.45 1106.95 671.2 1097.65 653.4 1087.7 634.45 1079.5 614.85
M 1023.65 386.7
Q 1017.8 388.25 1013.1 391.6 1008.4 394.95 1005.35 399.8 1003.25 403.15 1002.2 406.75 1001.65 405.2 1000.65 403.6 998.45 400.15 994.1 396.8 986.2 390.65 976.9 386.35 972.75 384.45 968.45 383 967 380.85 964.75 379.3 962.15 377.6 958.7 377 955.5 376.5 952.05 376.95 946.8 377.7 941.25 380.7 937.05 383 931.8 387.15 920.5 396.25 912.05 407.05 904.45 416.8 899.7 427.35 896.85 424.75 893.6 423.3 886.6 420.05 877.4 421.65 869.7 422.9 861.45 427.35 849.8 433.55 840.35 442.9 831 452 824.7 463.2 812.85 484.3 812.3 510.05 812.1 518.95 813.5 526.9 811.9 526.15 810.65 525.5 808.45 524.35 802.85 521.05 798 518.15 795 516.75 785.2 512.2 777.35 514.25 773.7 515.15 770.55 517.55 767.55 519.8 765.55 523 761.95 528.7 761.8 536.75 761.6 546.6 766.8 556.65 771.4 565.6 779.7 573.65 793.7 587.3 812.65 594.05 819.85 596.55 830.75 598.85 839.6 600.65 845.65 600.75 850.55 600.85 854.7 599.9 853.75 606.2 853.3 612.8 850.1 658.95 871.35 699.05 892.45 738.8 933.65 765.5 937.2 767.8 940.85 770.05
L 943.75 783.45
Q 948.9 807.8 950.6 821.85 954.65 855.3 950 897.2 947.2 922.45 937.8 972.2 937.35 974.7 938.05 976.65 938.9 979 941 978.85 942.7 978.75 944.3 976.45 948.75 970.5 951.85 963.35
L 945.05 969.4
Q 952.7 932.35 957.1 894.05 959.6 871.4 959.55 857.25 959.55 848.55 958.7 837.8 958.15 830.85 956.8 818.35 955.7 807.85 954.85 802.15 953.6 793.15 951.8 786 950.05 778.9 947.7 773.9 967.8 784.9 989.55 791.1 988.55 799.6 989.15 808.2 990.6 829.1 1001.5 845.55 1009.85 858.1 1023.25 867.55 1036.2 876.6 1051.95 881.4 1067 885.95 1083.85 886.4 1099.85 886.85 1116.2 883.55 1129.55 880.8 1140.65 876.2 1140.7 876.15 1140.75 876.1
L 1140.8 876.1
Q 1144.35 874.6 1147.65 872.9 1163.55 864.85 1176.15 851.6 1185.95 841.25 1191.1 830 1196.85 817.4 1195.85 805.35 1195.8 804.45 1195.7 803.55 1194.65 795.45 1190.55 787.5 1186.3 779.2 1179.2 772 1177.05 769.8 1174.65 767.75 1178.55 765.5 1182.3 763.2 1181.9 763.6 1181.5 763.95 1189.55 761.7 1196.4 754.85 1198.6 752.65 1200.75 749.95 1212.05 740.4 1220.95 729 1220.4 723.8 1221.25 719.25 1221.85 715.95 1223.2 712.95 1222.55 711.95 1221.9 710.85 1221.5 710.15 1221.1 709.35 1223.15 703.3 1224.75 697 1230.55 674.4 1230.55 650.5 1230.55 605.55 1210.8 559 1208.3 553.05 1206.1 549.05 1203.25 543.75 1200.05 539.8 1196.3 535.25 1191.7 532.15 1186.7 528.8 1181.25 527.55 1200 548.5 1210.1 575.05 1217.2 593.7 1220.9 618.55 1227.3 661.7 1219.5 695.8 1215.85 711.9 1209 726.25 1199.95 737.3 1188.35 746.35 1178.2 754.3 1165.75 760.9 1157.4 755.15 1146.65 750.05 1142.7 748.2 1138.65 746.5 1115.55 736.6 1090.2 732.5 1084.2 731.55 1078.65 731 1065.7 729.85 1055.2 731.4 1048.5 732.35 1040.8 734.7 1035 736.4 1026.85 739.5 1020.25 741.9 1016.45 743.8 1010.9 746.5 1007.15 749.75 999.8 756.25 995 769 992.9 774.6 991.55 780.15 966 773.15 943.5 760.05 915.75 743.85 896.9 720.85 881.6 702.15 872.5 679.25 863.65 657 861.6 633 859.15 604.25 867.1 577.9 878.95 580.45 890.3 579.2 902.6 577.95 913.15 572.1 924.05 566.05 930.25 556.75 933.05 552.4 935.4 546.55 936.85 542.95 939.1 535.8 935.7 538.85 934.3 540.2 931.65 542.75 929.95 545 928.8 546.55 926.3 550.6 924.1 554.25 922.5 556.15 916.3 563.65 904.85 566.8 894.85 569.5 882.9 568.55 876.75 568.05 871 566.7 882.05 538.7 903.9 519.8 908.3 515.95 913.05 512.7 922.3 523 934.8 531.25 948.45 540.15 963.05 544.7 978.95 549.7 994.25 548.9 1005.25 548.25 1013.1 544.75 1025 539.45 1033.35 526.1 1035.4 522.85 1036.7 519.8 1036.7 519.85 1036.75 519.85 1047.85 526.25 1065.25 523.6 1075.95 522.05 1085.95 517.7 1094.85 513.75 1099.9 508.7 1105.55 503 1107.85 494.7 1108.65 491.75 1109 488.65 1122.85 492.65 1135.9 498.4 1144.15 502.05 1151.9 506.35 1152.15 501.2 1153.45 496.75 1143.7 491.8 1133.3 487.95 1136.85 485.9 1139.8 482.05 1142 479.15 1144.4 474.55 1151.15 461.25 1154.15 447.15 1155.8 439.5 1155.55 433.75 1155.25 427.55 1152.8 420.55 1149.4 411 1143.35 403.65 1136.7 395.6 1127.9 391.4 1122.9 388.95 1119.05 389.4 1113.95 390 1108.65 395.8 1104.8 400.1 1101.15 405.9 1098.5 410.15 1094.95 416.8 1091.35 423.55 1088.35 430 1084.65 423.75 1081.2 418.85 1070.35 403.65 1057.3 394.65 1046 386.75 1035.35 385.7 1029.45 385.15 1023.65 386.7
M 1015.1 395.7
Q 1019.45 393.2 1024.4 392.55 1037.6 390.9 1052.55 402.1 1065.7 411.95 1076.4 427.85 1080.15 433.4 1084 440.25 1083.55 441.5 1083.3 442.5 1082.3 446.35 1082.8 449.5 1083.75 446.9 1085.55 443.1 1089.25 450.2 1093.05 458.5 1097.25 467.8 1099.2 474 1099.85 476.25 1100.4 478.4 1065.85 471.05 1030.15 473.95 1025.9 474.3 1021.4 474.8 1021.15 474.3 1020.95 473.85 1017.4 465.85 1013.55 460.8 1010.85 457.4 1008.2 457.1 1006.4 456.9 1005.1 458.25 1003.75 459.6 1004.5 460.95 1004.35 460.6 1004.75 460.3 1005.25 460 1005.7 460.2 1006.3 460.5 1006.5 461.75 1007.95 469.15 1010.2 476.3 1002.9 477.4 995.05 478.9 982.9 481.15 960.4 486.3 942.75 490.3 934.1 493.05 924.15 496.2 916.35 500.25 906.7 488.45 902.55 475.5 898.9 464.2 899.55 451.95 899.8 446.55 900.9 441.25 907.9 447.95 913.05 449.55 907.45 437.55 905.55 434.5 904.6 432.95 903.55 431.6 904.05 430.1 904.65 428.6 909.05 417.65 916.95 407.75 924.6 398.15 934.85 390.6 943.3 384.3 950.05 383.65 951.05 383.55 952.05 383.55 952.4 383.95 953 384.3 954.45 385.2 956.6 385.45
L 955.05 384.25 965 389.6
Q 970.05 394.9 969.3 401.4 970.95 397.05 971.05 392.95
L 995.4 406.15
Q 998.05 407.6 999.4 408.55 1000.6 409.5 1001.4 410.45 1001.05 413.15 1001.6 415.35 1002.35 418.2 1004.55 419.5 1003.35 415.1 1004.25 410.4 1005.15 405.8 1007.95 402 1010.75 398.2 1015.1 395.7
M 892.35 457.1
Q 891.6 471 895.75 483.7 899.5 495.15 907.3 505.65 894.8 514.4 883.55 529.75 871.35 546.25 864 564.85 856.1 562.25 848.9 558.05 835.4 550.2 828.35 538.8 830.85 538.7 832.65 538.05 834.25 537.45 835.95 536.1 836.95 535.35 838.75 533.65 836 535.2 833.4 535 831.45 534.9 827.95 533.2 826.9 532.7 824.8 531.8 820.7 521.9 820.3 508.5 819.55 484.55 829.6 465.5 834.95 455.35 843.05 447.3 851.5 438.95 862 433.85 868.65 430.7 874.85 429.8 882.1 428.8 887.8 431.2 891.1 432.6 896.1 436.85 892.9 446.8 892.35 457.1
M 810.85 534.9
Q 813.3 535.9 815.9 536.7 819.55 547.7 826.6 555.65 833.3 563.2 844 569.1 851.8 573.45 860.1 576 857.1 585.7 855.35 595.9 852 594.35 849.95 593.5 844.35 591.05 839.6 589.7 837.25 589 833.4 588.1 828.5 586.95 827.2 586.65 816.4 583.8 806.5 578.7 796.65 573.55 788.45 566.5 784.1 562.7 781.1 559.1 773.75 550.3 769.75 537.35 768.2 532.55 768.5 529.5 768.75 527.45 769.75 525.7 770.85 523.8 772.6 522.8 775.1 521.45 779.25 521.7 786.25 522.15 795.45 526.9 800.55 529.55 810.85 534.9
M 966.3 534.2
Q 953.55 529.85 941.45 522.1 930.15 514.85 921.6 506.05 922.25 505.25 923.05 504.55 922.05 505.05 921.1 505.55 920.7 505.1 920.3 504.7 921.55 504.3 922.3 503.9 922.7 503.65 924.2 502.45 925.35 501.6 926.2 501.25 926.6 501.05 927.2 501 929.4 499.35 931.95 497.85 946.85 489.1 970.25 484.35 981.55 482.1 989.75 482.35 994.5 482.5 998.6 483.45 1005.25 482.3 1011.95 481.45 1015.55 491.7 1020.85 501.45 1024.25 507.7 1027.5 511.7 1029 513.55 1030.6 515.1 1028.85 524.15 1023.15 529.85 1018 534.95 1009.7 537.3 1002.5 539.35 993.7 539.15 980.2 538.95 966.3 534.2
M 909.6 511.5
Q 910.05 511.2 910.95 510.3 911.25 510.65 911.55 511 910.4 511.55 909.6 511.5
M 1135.55 410.55
Q 1139.75 415.8 1141.45 418.85 1142.95 421.6 1144.15 425.15 1144.95 427.45 1146.1 431.6 1147.6 437.05 1147.75 439.85 1147.85 442.65 1147.15 446.75 1143.9 464.8 1134.15 480.75
L 1131.05 473.4
Q 1129.2 479.2 1128.8 485.35 1128.8 485.9 1128.85 486.35 1119.25 482.95 1109.1 480.4 1109 479.55 1108.9 478.6 1108 471.45 1104.85 463.05 1102.65 457.25 1098.15 448.2 1094.15 440.15 1090.4 433.55
L 1090.4 433.5
Q 1096.1 422.7 1099.4 417.1 1104.65 408.05 1109.65 401.3 1109.7 401.25 1109.75 401.15 1111.8 398.35 1113.75 397.8 1115.1 397.4 1116.9 397.8 1118 398.1 1120 398.9 1125.6 401.4 1128.05 403.1 1131.2 405.3 1135.55 410.55
M 1101.7 486.65
Q 1101.8 488.45 1101.8 490.2 1101.7 496.85 1099.05 500.8 1096.05 505.45 1087.35 508.95 1078.7 512.4 1070.05 513.6 1055.6 515.7 1045.6 510.7 1041.7 508.75 1038.3 505.6 1037.75 503.55 1036.7 501.65 1034.5 497.75 1030.75 495.85 1028.6 492.15 1026.65 487.65 1025 483.5 1023.7 480.3 1040.6 479.05 1057.7 480.05 1080.6 481.4 1101.7 486.65
M 1003.35 761.65
Q 1004.55 759.5 1005.8 757.8
L 1005.25 758.75 1006.15 757.3
Q 1004.9 759.5 1003.35 761.65
M 997.35 781.5
L 997.4 781.65 997.35 781.65
Q 997.35 781.55 997.35 781.5
M 999.5 779
Q 1001.8 775.25 1005.1 771.95 1006.3 768.9 1007.75 766.3 1010.9 760.45 1015.55 756.1 1020.45 751.35 1026.45 748.85 1035.5 745.15 1047.9 746.3 1056 747.05 1069.85 750.75
L 1057.2 741.75
Q 1077.7 741.9 1097.75 746.3 1100.25 746.85 1102.7 747.45 1114 750.2 1124.7 754.3 1135.2 758.25 1145.15 763.45 1148.85 765.4 1152.25 767.4 1149.2 768.75 1146.05 770 1147 770.7 1147.9 771.5 1151.2 774.35 1154 777.6 1158.2 775.85 1162.2 774.05 1172.4 781.6 1178.45 790.15 1182.8 796.25 1185.05 802.95 1186.05 806 1186.65 809.15 1188.7 819.9 1185.05 829.2 1181.55 837.9 1171.9 847.4 1163.1 855.9 1153.3 861.85 1147.35 865.35 1141.05 867.95 1130.05 872.55 1116.2 874.95 1087 879.9 1061.45 873.3 1047.85 869.8 1036.15 863.2 1024 856.3 1015.25 846.75 1003 833.45 998.2 816 996.05 808.15 995.65 800.45 994.95 797.35 995.05 793.95 995.25 786 999.5 779
M 1001.7 764.6
L 999.45 769.95
Q 999.65 768.1 1001.7 764.6
M 1094.4 834.15
Q 1101.3 834.35 1105 835.95 1109.6 837.9 1113.05 842.55 1115.7 846.15 1117.95 851.8 1119.4 855.4 1118.4 857.2 1117.7 858.45 1115.9 859.2 1114.7 859.7 1112.5 860.1
L 1101.85 861.9
Q 1104.4 865.1 1109.1 865.9 1113.7 866.65 1117.6 864.75 1121.4 862.95 1123.7 859.15 1125.9 855.65 1126.1 851.45 1126.45 843.85 1120.7 836.45 1117.45 832.2 1113.65 829.9 1107.15 825.95 1098.15 826.2 1088.45 826.4 1081.25 831.2 1077.55 833.7 1075.05 837.2 1072.5 840.75 1071.75 844.8 1071.35 847.15 1071.9 849.2 1072.6 851.5 1074.5 852.45 1073.1 847.3 1076.05 842.25 1078.95 837.2 1084.35 835.3 1088.1 833.95 1094.4 834.15
M 1106.25 787.85
Q 1104.35 785.55 1103.45 784.4 1101.9 782.3 1101.6 780.5 1101.35 779.7 1101 779.6 1100.4 779.45 1100.1 780.35 1098.75 783.2 1099 786.5 1099.2 789.2 1100.7 792.8 1104.45 802.05 1110.7 804.05 1112.4 804.65 1113.7 804.35 1114.5 804.15 1115.05 803.65 1115.65 803.1 1115.7 802.4 1115.4 802.85 1114.75 802.65 1114.2 802.4 1113.8 801.9 1112.05 799.7 1109.95 794.95 1107.75 789.95 1106.25 787.85
M 1052 785.5
Q 1049.75 788.15 1049.65 790.35 1049.6 791.8 1050.4 792.95 1051.25 794.2 1052.6 794.55 1050.95 792.45 1051.6 789.9 1053.25 794 1055.5 802.8 1056.2 805.45 1056.4 806.7 1056.75 808.9 1056.55 810.65 1056.2 813.15 1057.35 813.65 1057.85 813.85 1058.45 813.75 1059 813.55 1059.4 813.15 1060 812.55 1060.3 811.15 1062.2 803.95 1060.85 796.6 1060 792.3 1058.2 789.3 1056.7 786.9 1054.55 785.2 1053.9 784.6 1053.35 784.6 1052.7 784.65 1052 785.5
M 1332.95 886.25
Q 1323 874.9 1313.45 863.25 1293.9 839.45 1271.35 808.5 1257.8 789.9 1231.45 752.25
L 1219.2 734.75
Q 1218.95 742.85 1223.4 752.1 1226.25 758 1233.15 768.05 1265.2 814.5 1281.6 836.9 1309.3 874.7 1334.05 903.1 1346.65 917.65 1356.35 926.85 1359.75 930.15 1362.45 929.75 1363.75 929.55 1364.65 928.65 1355.05 916.15 1337.9 893.1 1335.15 889.3 1332.95 886.25 Z"/>

<path fill="#120000" fill-opacity="0.00392156862745098" stroke="none" d="
M 1180.05 672.6
Q 1177.9 673.9 1175.85 675.3 1178.15 675.35 1180.3 675.65
L 1182.35 671.2
Q 1181.2 671.85 1180.05 672.6
M 1049.95 707.6
Q 1050.25 710.95 1050.4 713.6 1050.65 718.7 1050.55 723.4 1065.6 723.9 1078.65 731 1084.2 731.55 1090.2 732.5 1115.55 736.6 1138.65 746.5 1143.1 742.85 1147.2 737.95 1155.9 727.6 1165.1 707.95
L 1168.95 699.8
Q 1166.85 700.1 1164.45 700.7 1142.1 706.8 1130.9 709.8 1130.7 709.85 1130.5 709.95 1130.6 710.3 1130.75 710.7 1131.9 714.15 1132.35 715 1133.5 717.35 1135.4 718.25 1133.85 719.2 1131.65 718.55 1129.9 718.05 1128 716.65 1125.3 714.6 1122.75 711.9 1107.95 715.35 1096.85 716.25 1078.15 717.75 1062 712.65 1055.4 710.6 1049.95 707.6
M 1089.65 655.85
Q 1086.7 655.8 1083.85 654.5 1083.7 654.75 1083.55 655.05 1083.1 655.85 1082.65 656.65 1082.2 657.45 1081.75 658.25 1081.25 659.05 1080.75 659.8 1080.25 660.6 1079.7 661.4 1079 662.15 1078.35 662.95 1077.65 663.7 1077 664.55 1076.3 665.35 1075.65 666.15 1075 666.95 1074.35 667.75 1073.7 668.6 1073.05 669.45 1072.45 670.25 1071.85 671.1 1071.25 671.95 1070.65 672.8 1070.1 673.65 1069.5 674.55 1069 675.35 1068.5 676.25 1068 677.05 1067.55 677.9 1067.05 678.75 1066.6 679.6 1066.15 680.45 1065.65 681.3 1065.2 682.15 1064.7 683 1064.25 683.85 1063.75 684.7 1063.5 685.1 1063.3 685.5 1064.75 686.55 1066.35 687.45 1079.55 695 1099.2 692.5 1103.5 691.95 1108.8 690.75 1098.05 671.9 1092.65 661.7 1091.1 658.75 1089.65 655.85
M 1055.9 612
Q 1055.2 612.6 1054.45 613.15 1053.65 613.75 1052.9 614.35 1052.1 614.9 1051.3 615.5 1050.55 616.1 1049.8 616.75 1049.05 617.35 1048.35 618 1047.65 618.7 1047 619.4 1046.35 620.1 1045.7 620.8 1045.3 621.25 1044.9 621.75 1044.1 632.2 1044.05 633.55 1043.55 645.05 1044.95 653.65 1046.7 664.3 1051.85 672.9 1054.9 678 1058.9 681.85 1059.15 681.55 1059.45 681.35 1060 680.85 1060.55 680.35 1061.05 679.8 1061.6 679.25 1062.05 678.65 1062.55 678.1 1063 677.5 1063.4 676.9 1063.8 676.25 1064.2 675.6 1064.5 674.95 1064.85 674.3 1065.15 673.6 1065.4 672.9 1065.65 672.2 1065.85 671.5 1066.05 670.75 1066.2 670.05 1066.3 669.3 1066.4 668.55 1066.45 667.8 1066.5 667.05 1067.05 666.25 1067.6 665.45 1068.15 664.7 1068.7 663.85 1069.4 663.15 1070.1 662.35 1070.8 661.55 1071.45 660.8 1072.15 660 1072.8 659.2 1073.5 658.55 1074.15 657.95 1074.85 657.4 1075.55 656.8 1076.25 656.2 1076.95 655.6 1077.65 655.05 1078.4 654.45 1079.15 653.9 1079.85 653.35 1080.35 653 1080.9 652.75 1080.65 652.55 1080.4 652.35 1074.15 647.6 1072.95 640.55 1071.95 634.45 1074.3 627.05 1074.7 625.75 1075.35 624.15 1073 618.05 1071.2 612.3 1066.1 610.5 1061.8 606.95 1061.8 607 1061.75 607 1060.9 607.6 1060.1 608.2 1059.4 608.85 1058.7 609.45 1057.95 610.1 1057.3 610.75 1056.6 611.4 1055.9 612
M 1079.85 614.15
Q 1079.5 614.1 1079.2 614.1 1079.35 614.45 1079.5 614.85 1079.65 614.5 1079.85 614.15
M 1173.05 586.5
Q 1171.25 584.8 1169.35 583.15 1167.45 581.45 1165.35 579.85 1163.25 578.4 1160.95 577.2 1160.5 577 1160.1 576.85
L 1105.5 645.5
Q 1102.4 649.4 1100.4 651.25 1099.05 652.5 1097.65 653.4 1106.95 671.2 1117.85 688.45 1124.95 686.45 1133.5 683.5 1152.65 676.9 1166.45 675.6 1166.65 675.25 1166.85 674.9 1167.75 673.15 1168.6 671.4 1169.5 669.5 1170.35 667.6 1171.2 665.7 1172.1 663.8 1172.95 661.9 1173.8 660 1174.5 658.45 1175.2 656.85 1175.9 655.2 1176.5 653.55 1177.15 651.8 1177.75 650.05 1178.3 648.25 1178.85 646.5 1179.2 645.75 1179.55 645 1179.9 644.2 1180.2 643.5 1180.55 642.7 1180.85 641.9 1181.2 641.05 1181.5 640.2 1181.75 639.35 1182 638.4 1182.2 637.55 1182.4 636.7 1182.55 635.75 1182.65 634.85 1182.7 633.9 1182.75 633 1182.75 632.1 1182.75 631.1 1182.8 630.5 1182.85 629.9 1182.9 629.3 1182.95 628.7 1183.1 627.75 1183.2 626.75 1183.6 623.7 1184.1 620.7 1184.65 617.6 1184.75 614.4 1184.85 611.65 1184.55 608.9 1184.25 606.35 1183.6 603.9 1182.95 601.5 1181.95 599.15 1181 596.85 1179.65 594.65 1179.15 593.8 1178.65 593.05
L 1179.35 592.6
Q 1180.45 591.85 1181.65 591.25 1182.8 590.6 1184 589.9 1185.2 589.2 1186.35 588.45 1187.5 587.7 1188.65 586.9 1188.8 586.75 1189 586.65 1190.1 585.85 1191.25 585.1 1190.9 584.7 1190.55 584.35 1189.65 583.55 1188.15 582.75 1188 582.7 1186.8 582.1 1184 583.85 1181.2 585.55 1178.4 587.25 1175.7 589.2 1174.4 587.8 1173.05 586.5
M 1186.65 809.15
Q 1186.05 806 1185.05 802.95
L 1156.6 855.85
Q 1154.8 859.2 1153.3 861.85 1163.1 855.9 1171.9 847.4 1181.55 837.9 1185.05 829.2 1188.7 819.9 1186.65 809.15
M 1118.65 755.8
Q 1121.75 755.25 1124.7 754.3 1114 750.2 1102.7 747.45 1100.25 746.85 1097.75 746.3 1102.15 751.25 1105.15 756.7 1114.05 756.7 1118.65 755.8
M 1322.9 939
Q 1323.2 938.15 1323.55 937.35 1323.9 936.6 1324.2 935.75 1324.55 935 1324.85 934.15 1325.2 933.25 1325.55 932.3 1325.9 931.6 1326.25 930.95 1326.65 930.15 1327.05 929.35 1316.95 914.65 1306.7 894.7 1293.75 868.2 1287.2 855 1275.55 831.45 1265.7 816.3 1262.8 811.85 1256.7 803.1 1251.35 795.45 1248.5 791.15 1240.45 797.75 1231.3 801.5 1233.2 808.4 1235.85 813.9 1240.15 822.95 1247 829.35 1254.5 836.5 1263.7 839.1 1244.05 837.45 1228.2 821.95 1220.8 814.7 1215.35 805.7 1204.1 807.15 1195.7 803.55 1195.8 804.45 1195.85 805.35 1196.85 817.4 1191.1 830 1185.95 841.25 1176.15 851.6 1163.55 864.85 1147.65 872.9 1144.35 874.6 1140.8 876.1
L 1140.75 876.1
Q 1140.7 876.15 1140.65 876.2 1138.1 877.8 1135.25 878.75 1137.8 881.3 1140.7 883.6 1144.5 886.6 1148.5 889.35 1152.25 891.95 1156.15 894.35 1156.3 894.4 1156.45 894.5 1156.65 894.6 1156.9 894.7 1157.2 894.8 1157.5 894.9 1157.9 895.1 1158.3 895.3 1158.75 895.45 1159.2 895.65 1159.7 895.85 1160.2 896.05 1160.75 896.3 1161.3 896.5 1161.9 896.75 1162.5 897 1163.1 897.25 1163.75 897.5 1164.4 897.75 1165 898 1165.65 898.25 1166.3 898.55 1166.95 898.8 1167.65 899 1168.25 899.3 1168.9 899.5 1169.55 899.75 1170.2 899.95 1170.8 900.2 1171.4 900.4 1171.95 900.55 1172.55 900.75 1173.05 900.95 1173.6 901.1 1174.1 901.2 1174.55 901.35 1175.4 901.55 1176.25 901.75 1177.15 901.95 1178.05 902.1 1178.95 902.25 1179.9 902.4 1180.85 902.6 1181.8 902.75 1182.8 902.85 1183.8 902.95 1184.8 903.1 1185.8 903.2 1184.95 905.65 1184.55 908.1 1184.05 910.95 1183.3 913.75 1182.6 916.25 1181.95 918.75 1181.35 921.1 1180.9 923.45 1180.45 925.8 1180 928.1 1179.5 930.65 1179.1 933.25 1178.7 935.85 1178.5 938.55 1178.3 941.1 1178.45 943.7 1178.65 946.55 1178.95 949.3 1179.3 952.3 1179.65 955.25 1180 958.25 1180.35 960.9
L 1180.25 960.45
Q 1180.25 960.6 1180.25 960.8 1180.3 961.2 1180.3 961.6 1180.4 962.25 1180.45 962.9 1180.55 963.75 1180.6 964.55 1180.75 965.5 1180.85 966.5 1180.95 967.55 1181.1 968.6 1181.25 969.75 1181.4 970.85 1181.55 971.95 1181.75 973.05 1181.9 974.15 1182.1 975.25 1182.3 976.25 1182.5 977.2 1182.65 978.1 1182.9 978.95 1183.05 979.65 1183.35 980.35 1183.8 981.5 1184.3 982.7 1185.1 984.5 1185.9 986.3 1186.75 988.1 1187.55 989.95 1188.4 991.75 1189.25 993.55 1190.1 995.35 1190.95 997.15 1191.6 997.9 1192.25 998.7 1192.9 999.45 1193.55 1000.25 1194.2 1001.05 1194.85 1001.8 1195.5 1002.6 1196.15 1003.4 1196.8 1004.15 1197.45 1004.95 1198.1 1005.75 1198.75 1006.5 1199.45 1007.3 1200.1 1008.05 1200.75 1008.85 1201.4 1009.6 1202.7 1010.9 1204.1 1012.1 1205.45 1013.35 1206.95 1014.5 1208.4 1015.65 1209.95 1016.7 1211.5 1017.8 1213.1 1018.8 1214.7 1019.8 1216.3 1020.8 1217.9 1021.85 1219.55 1022.75 1221.2 1023.75 1222.9 1024.7 1224.6 1025.55 1226.4 1026.4 1228.2 1027.2 1230 1027.9 1231.85 1028.65 1233.75 1029.3 1235.6 1029.9 1237.5 1030.45 1239.4 1030.95 1241.3 1031.4 1242.35 1031.65 1243.45 1031.85 1244.45 1032.1 1245.45 1032.25 1246.4 1032.45 1247.35 1032.65 1248.25 1032.75 1249.1 1032.9 1249.95 1033 1250.8 1033.1 1251.6 1033.2 1252.4 1033.3 1253.15 1033.35 1253.9 1033.4 1254.65 1033.4 1255.4 1033.45 1256.1 1033.45 1256.8 1033.45 1257.75 1033.45 1258.65 1033.4 1259.6 1033.4 1260.55 1033.35 1261.45 1033.3 1262.4 1033.2 1263.4 1033.1 1264.35 1033 1265.3 1033 1266.25 1033.05 1267.15 1033.05 1268.05 1033.1 1271.75 1032.9 1275.5 1032.65 1292.4 1031.35 1306.9 1023.25 1316.9 1017.7 1323.5 1008.8 1327.4 1003.65 1330 997.8 1332.7 991.8 1333.7 985.25 1334.85 977.65 1333.7 970.15 1332.6 962.7 1329.25 955.85 1326.1 949.35 1321.25 943.75 1321.5 943 1321.75 942.15 1322 941.35 1322.3 940.55 1322.6 939.75 1322.9 939
M 1315.4 964.9
Q 1315.4021484375 964.79375 1315.45 964.65
L 1315.45 964.7
Q 1315.403125 964.840625 1315.4 964.9
M 1315.4 964.95
L 1315.4 965
Q 1315.35625 965.175 1315.35 965.25 1315.354296875 965.1326171875 1315.4 964.95
M 1315.3 965.7
L 1315.3 965.75
Q 1315.25625 965.925 1315.25 966 1315.254296875 965.8826171875 1315.3 965.7
M 1315.3 965.6
Q 1315.3021484375 965.49375 1315.35 965.35
L 1315.35 965.4
Q 1315.303125 965.540625 1315.3 965.6
M 1426.65 797.25
Q 1426.6 797.25 1426.6 797.3 1426.4 797.6 1426.25 797.9 1426.1 798.2 1425.95 798.5 1425.8 798.8 1425.65 799.15 1425.5 799.45 1425.4 799.75 1425.25 800.05 1425.1 800.4 1424.9 800.75 1424.75 801.1 1424.55 801.45 1424.4 801.8 1424.2 802.15 1424.05 802.5 1423.9 802.85 1423.8 803.25 1423.7 803.6 1423.6 803.95 1423.5 804.35 1423.45 804.7 1423.35 805.1 1423.3 805.45 1423.25 805.8 1423.2 806.2 1423.15 806.6 1423.1 806.95 1423.1 807.3 1423.05 807.6 1423.05 807.95 1423.05 808.25 1423.05 808.55 1423 808.9 1422.9 809.2 1422.85 809.6 1422.75 809.9 1422.7 810.25 1422.65 810.6 1422.6 810.9 1422.5 811.3 1422.45 811.65 1422.45 812 1422.4 812.35 1422.35 812.65 1422.3 813.05 1422.25 813.4 1422.25 813.75 1422.1 814.1 1421.95 814.45 1421.55 815.45 1421.25 816.55 1420.95 817.45 1420.65 818.35 1420.55 818.55 1420.5 818.75 1420.05 819.9 1419.65 821.1 1419.25 822.25 1419 823.5 1418.7 824.65 1418.35 825.85 1417.95 827.05 1417.5 828.15 1417.1 829.25 1416.75 830.35 1416.4 831.45 1416 832.5 1415.6 833.55 1415.15 834.6 1414.75 835.65 1414.4 836.75 1414.4 836.8 1414.35 836.9 1414.05 837.9 1413.7 838.9 1413.5 839.2 1413.35 839.55 1413.15 839.85 1413 840.15 1412.8 840.45 1412.6 840.75 1412.4 841.1 1412.2 841.35 1411.95 841.7 1411.75 842 1411.5 842.3 1411.3 842.6 1411.05 842.9 1410.85 843.2 1410.65 843.55 1410.5 843.9 1410.3 844.2 1410.15 844.55 1410 844.9 1409.85 845.3 1409.7 845.65 1409.6 845.95 1409.5 846.4 1409.35 846.8 1409.25 847.2 1409.1 847.6 1408.9 847.95 1408.7 848.35 1408.5 848.75 1408.25 849.1 1408.05 849.45 1407.8 849.8 1407.55 850.15 1407.3 850.55 1407 850.8 1406.75 851.1 1406.5 851.4 1406.25 851.7 1406 852.05 1405.75 852.35 1405.55 852.7 1405.4 853.05 1405.2 853.4 1405 853.8 1404.8 854.15 1404.6 854.5 1404.4 854.85 1404.15 855.15 1403.9 855.55 1403.65 855.85 1403.35 856.25 1403.05 856.55 1402.75 856.9 1402.45 857.25 1402.15 857.6 1401.85 857.95 1401.5 858.3 1401.25 858.65 1400.95 859 1400.65 859.35 1400.25 859.45 1399.9 859.6 1399.55 859.7 1399.15 859.8 1398.8 859.9 1398.45 860.05 1398.2 860.15 1397.95 860.3 1397.7 860.35 1397.55 860.3 1397.2 860.25 1396.9 860 1396.6 859.75 1396.35 859.45 1396.05 859.15 1395.8 858.9 1395.6 858.6 1395.4 858.35 1395.15 858 1394.95 857.75 1394.75 857.45 1394.55 857.15 1394.35 856.85 1394.15 856.6 1393.9 856.3 1393.7 856.05 1393.45 855.75 1393.25 855.5
L 1393.2 855.5
Q 1393 854.1 1392.95 852.75 1392.95 851.35 1392.9 849.95 1392.9 848.45 1392.85 846.95 1392.8 844.1 1392.75 841.25 1392.7 838.6 1392.6 836 1392.6 835.75 1392.6 835.6 1392.5 833.1 1392.45 830.65 1392.4 828 1392.35 825.25 1392.3 823.15 1392.25 821.05 1392.2 818.55 1392.2 816.05 1392.15 813.45 1392.45 810.85 1392.55 810.5 1392.65 810.15 1392.95 809 1393.3 807.85 1393.45 807.3 1393.6 806.75 1391.2 808.4 1388.65 809.6 1388.35 811 1388.2 812.45 1387.9 815.4 1387.85 818.35 1387.8 821.45 1387.75 824.6 1387.65 827.7 1387.6 830.85 1387.6 833.45 1387.5 836.1 1387.5 837.2 1387.45 838.25 1387.45 839.8 1387.4 841.35 1387.35 843.95 1387.25 846.5 1387.2 849.05 1387.05 851.55 1387 852.5 1387 853.4 1387.05 855.05 1387.25 856.65 1387.35 857.05 1387.45 857.45 1387.6 857.75 1387.7 858 1387.85 858.25 1388 858.5 1388.2 858.75 1388.35 859 1388.55 859.2 1388.7 859.45 1388.9 859.75 1389.05 860.1 1389.25 860.4 1389.45 860.75 1389.6 861.05 1389.8 861.4 1390.05 861.7 1390.3 862.05 1390.55 862.45 1390.8 862.75 1391.05 863.15 1391.35 863.45 1391.65 863.8 1391.9 864.15 1392.2 864.45 1392.55 864.75 1392.8 865 1393.1 865.25 1393.35 865.5 1393.65 865.75 1393.95 866 1394.25 866.15 1394.6 866.35 1394.95 866.55 1395.35 866.65 1395.7 866.85 1396.1 866.95 1396.45 867.1 1396.75 867.15 1397.1 867.2 1397.45 867.2 1397.8 867.25 1398.15 867.2 1398.5 867.2 1398.8 867.2 1399.15 867.1 1399.45 867 1399.75 866.9 1400.05 866.75 1400.35 866.65 1400.6 866.45 1400.9 866.3 1401.25 866.2 1401.6 866.1 1401.95 866.05 1402.3 866 1402.65 865.9 1403 865.8 1403.35 865.7 1403.7 865.6 1404 865.5 1404.35 865.35 1404.65 865.2 1405 865.05 1405.25 864.85 1405.55 864.65 1405.8 864.4 1406.05 864.2 1406.25 863.9 1406.5 863.65 1406.75 863.35 1407 863.1 1407.25 862.8 1407.5 862.55 1407.75 862.3 1408 862.05 1408.3 861.75 1408.55 861.45 1408.85 861.2 1409.1 860.9 1409.35 860.65 1409.65 860.3 1409.9 860.05 1410.15 859.75 1410.4 859.5 1410.65 859.15 1410.9 858.9 1411.1 858.6 1411.35 858.25 1411.55 857.95 1411.75 857.6 1411.95 857.3 1412.1 856.95 1412.3 856.65 1412.5 856.3 1412.75 856 1413 855.7 1413.3 855.4 1413.55 855.1 1413.85 854.75 1414.1 854.45 1414.35 854.1 1414.65 853.8 1414.85 853.45 1415.1 853.1 1415.35 852.8 1415.55 852.4 1415.8 852.1 1415.95 851.8 1416.1 851.5 1416.3 851.2 1416.45 850.95 1416.6 850.65 1416.75 850.45
L 1416.75 850.55
Q 1416.7 850.95 1416.7 851.35 1416.7 851.75 1416.7 852.15 1416.7 852.55 1416.7 852.95 1416.65 853.4 1416.65 853.75 1416.65 854.15 1416.65 854.55 1416.65 855 1416.6 855.4 1416.6 855.8 1416.6 856.25 1416.6 856.65 1416.6 857.1 1416.65 857.5 1416.7 857.95 1416.7 858.25 1416.75 858.55 1416.8 858.9 1416.85 859.2 1416.85 859.55 1416.95 859.9 1417 860.25 1417.1 860.55 1417.2 860.9 1417.3 861.2 1417.4 861.5 1417.55 861.85 1417.7 862.1 1417.85 862.45 1418 862.75 1418.1 863.1 1418.25 863.45 1418.35 863.85 1418.45 864.25 1418.55 864.65 1418.65 865 1418.7 865.45 1418.8 865.8 1418.9 866.2 1419 866.6 1419.15 867 1419.25 867.35 1419.4 867.8 1419.55 868.15 1419.7 868.55 1419.9 868.95 1420.05 869.35 1420.25 869.7 1420.45 870.1 1420.6 870.45 1420.8 870.85 1421 871.25 1421.15 871.6 1421.35 871.95 1421.55 872.35 1421.75 872.7 1422 873.05 1422.2 873.35 1422.45 873.65 1422.7 873.95 1423 874.25 1423.3 874.55 1423.6 874.8 1423.9 875.05 1424.25 875.25 1424.55 875.5 1424.9 875.7 1425.25 875.85 1425.6 876 1425.9 876.2 1426.25 876.35 1426.6 876.45 1426.95 876.6 1427.35 876.75 1427.7 876.85 1428.1 876.95 1428.5 877 1428.9 877.05 1429.25 877.15 1429.65 877.2 1430.05 877.25 1430.5 877.3 1430.9 877.35 1431.4 877.4 1431.9 877.45 1432.35 877.5 1432.85 877.55 1433.35 877.55 1433.85 877.55 1434.25 877.6 1434.65 877.65 1435 877.65 1435.4 877.7 1435.8 877.65 1436.2 877.65 1436.6 877.65 1437 877.6 1437.45 877.55 1437.85 877.55 1438.25 877.5 1438.65 877.45 1439.05 877.4 1439.5 877.35 1439.9 877.25 1440.3 877.15 1440.65 877.05 1441 876.95 1441.75 876.65 1442.5 876.35 1444.8 875.35 1446.65 873.9 1448.7 872.3 1450.6 870.6 1451.5 869.75 1452.45 868.95 1451.65 861.1 1450 853.25 1449.95 853.25 1449.9 853.3 1449.6 853.55 1449.3 853.85 1448.55 854.35 1447.8 854.85 1447.1 855.35 1446.35 855.9 1445.95 856.2 1445.6 856.4 1445.25 856.7 1444.9 856.95 1444.55 857.25 1444.2 857.5 1443.9 857.75 1443.55 858 1443.25 858.3 1442.95 858.6 1442.35 859.15 1441.7 859.75 1441.1 860.3 1440.5 860.9 1439.85 861.45 1439.25 862.05 1438.6 862.6 1437.95 863.15 1437.3 863.7 1436.65 864.2 1436.4 864.35 1436.15 864.45 1436 864.55 1435.85 864.55 1435.45 864.6 1435.05 864.6 1434.65 864.6 1434.25 864.6 1433.85 864.6 1433.45 864.6 1433.05 864.6 1432.65 864.6 1432.45 864.3 1432.3 863.9 1432.15 863.55 1432.05 863.15 1431.95 862.7 1431.8 862.3 1431.7 861.95 1431.6 861.5 1431.45 861.1 1431.35 860.75 1431.2 860.3 1431.05 859.9 1430.9 859.55 1430.7 859.15 1430.55 858.75 1430.35 858.4 1430.15 858 1429.95 857.65 1429.9 857.4 1429.8 857.1 1429.75 856.85 1429.7 856.55 1429.65 856.15 1429.65 855.7 1429.65 855.25 1429.65 854.85 1429.6 854.4 1429.6 853.95 1429.6 853.5 1429.6 853.05 1429.6 852.65 1429.6 852.2 1429.6 851.75 1429.6 851.3 1429.6 850.9 1429.6 850.5 1429.6 850.05 1429.6 849.6 1429.6 849.2 1429.6 848.8 1429.6 848.35 1429.6 847.9 1429.6 847.5 1429.6 847.1 1429.6 846.65 1429.65 846.2 1429.65 845.8 1429.65 845.35 1429.7 844.95 1429.7 844.5 1429.75 844.1 1429.8 843.65 1429.9 843.25 1430 842.85 1430.15 842.45 1430.3 842 1430.4 841.65 1430.55 841.3 1430.65 840.9 1430.8 840.55 1430.9 840.1 1431 839.6 1431.1 839.2 1431.15 838.75 1431.25 838.3 1431.35 837.85 1431.4 837.4 1431.45 836.95 1431.55 836.5 1431.6 836.05 1431.65 835.65 1431.65 835.3 1431.65 834.9 1431.7 834.5 1431.7 834.15 1431.7 833.8 1431.7 833.35 1431.7 833 1431.7 832.65 1431.7 832.25 1431.75 831.85 1431.75 831.45 1431.75 831 1431.8 830.6 1431.85 830.25 1431.85 829.85 1431.95 829.4 1432.1 829.05 1432.35 828.3 1432.6 827.55 1432.85 826.8 1433.05 826.05 1433.25 825.25 1433.4 824.55 1433.55 823.75 1433.6 822.95 1433.7 822.15 1433.75 821.35 1433.8 820.5 1433.75 819.65 1433.75 818.8 1433.75 817.9 1433.75 817 1433.75 816.05 1433.8 815.15 1433.8 814.25 1433.85 813.3 1433.9 812.4 1434.05 812 1434.15 811.6 1434.25 811.25 1434.4 810.85 1431.95 806.2 1429.15 801.5 1427.9 799.35 1426.65 797.25
M 1528.7 758.35
Q 1528.2068359375 758.615625 1527.7 758.85 1526.7677734375 771.3744140625 1525.35 783.85 1525.5861328125 783.678125 1525.8 783.5 1526.1 783.3 1526.4 783.05 1526.65 782.8 1526.95 782.55 1527.25 782.35 1527.5 782.1 1527.75 781.85 1528.05 781.55 1528.3 781.3 1528.55 781 1528.8 780.7 1529.05 780.45 1529.25 780.15 1529.55 779.9 1529.8 779.65 1530.05 779.4 1530.45 779.1 1530.8 778.8 1531.2 778.55 1531.6 778.25 1532 777.95 1532.35 777.65 1532.75 777.35 1533.1 777.05 1533.5 776.75 1533.85 776.45 1534.15 776.2 1534.4 775.95 1534.7 775.7 1535 775.45 1535.25 775.25 1535.55 775 1535.9 774.8 1536.25 774.55 1536.65 774.35 1537.05 774.2 1537.35 774.05 1537.65 773.85 1537.95 773.7 1538.25 773.55 1538.65 773.35 1539 773.1 1539.4 772.85 1539.75 772.6 1540.1 772.4 1540.5 772.15 1540.85 771.9 1541.2 771.7 1541.6 771.45 1542 771.25 1542.3 771.05 1542.65 770.9 1543 770.7 1543.3 770.5 1543.65 770.35 1544 770.15 1544.35 770 1544.65 769.8 1545.05 769.6 1545.45 769.4 1545.85 769.2 1546.25 769 1546.65 768.8 1547.1 768.6 1547.5 768.4 1547.9 768.25 1548.3 768.05 1548.7 767.85 1549.05 767.7 1549.4 767.6 1549.75 767.45 1550.15 767.35 1550.5 767.2 1550.85 767.1 1551.15 767.25 1551.4 767.4 1551.65 767.55 1551.95 767.7 1552.2 767.9 1552.45 768 1552.7 768.15 1552.95 768.3 1553.25 768.7 1553.55 769.05 1553.85 769.45 1554.15 769.8 1554.45 770.15 1554.75 770.55 1555.05 770.9 1555.35 771.25 1555.65 771.65 1555.9 772 1556.05 772.2 1556.2 772.45 1556.35 772.65 1556.45 772.9 1556.6 773.2 1556.75 773.55 1556.9 773.85 1557.05 774.15 1557.25 774.5 1557.45 774.85 1557.65 775.15 1557.9 775.5 1558.1 775.8 1558.35 776.15 1558.6 776.45 1558.8 776.75 1559.05 777.05 1559.3 777.35 1559.6 777.75 1559.85 778.2 1560.1 778.6 1560.3 779.05 1560.4 779.25 1560.45 779.5 1560.45 779.7 1560.45 779.9 1560.45 780.3 1560.5 780.7 1560.5 781.1 1560.5 781.5 1560.65 782.5 1560.75 783.45 1560.9 784.4 1561.05 785.4 1561.25 786.3 1561.45 787.2 1561.65 788.05 1561.9 788.9 1562.15 789.75 1562.4 790.55 1562.65 791.4 1562.9 792.2 1563.1 793 1563.35 793.75 1563.6 794.55 1563.85 795.35 1564.1 796.1 1564.35 796.9 1564.65 797.7 1564.9 798.5 1564.95 798.95 1565 799.4 1565.05 799.9 1565.1 800.35 1565.15 800.85 1565.2 801.3 1565.25 801.75 1565.3 802.15 1565.35 802.6 1565.4 803 1565.5 803.45 1565.55 803.85 1565.6 804.25 1565.7 804.7 1565.8 805.1 1565.95 805.5 1566.05 805.9 1566.2 806.25 1566.35 806.65 1566.55 807.05 1566.7 807.4 1566.9 807.8 1567.1 808.15 1567.3 808.5 1567.85 809.55 1568.6 810.55 1569.65 811.9 1570.6 813.3 1571.55 814.7 1572.5 816.15 1573.45 817.6 1574.4 819.05 1575.2 820.4 1576 821.85 1576.8 823.25 1577.8 824.5 1578.55 825.45 1579.4 826.3 1580.3 827.15 1581.2 827.9 1582.2 828.65 1583.2 829.3 1584.55 830.15 1586 830.75 1587.4 831.4 1588.8 831.75 1589.55 832.2 1590.25 832.65 1591.7 833.55 1593.3 834.2 1594.85 834.9 1596.5 835.35 1598.2 835.85 1599.9 836.2 1601.6 836.55 1603.4 836.7 1605.25 836.85 1607.1 836.85 1608.6 836.85 1610.1 836.85 1612.05 836.85 1614 836.85 1615.75 836.8 1617.55 836.8 1619.35 836.8 1621.25 836.8 1622.95 836.8 1624.75 836.85 1629.55 837.05 1634.25 836.05 1638.9 835.1 1643.45 833.85 1648.25 832.5 1653.15 831.45 1658.45 830.25 1663.45 828.2 1668.5 826.15 1673.5 823.95 1678.5 821.75 1683.6 819.7 1688.2 817.8 1692.75 815.85 1696.7755859375 814.1763671875 1700.8 812.5 1700.924609375 812.4490234375 1701.05 812.4 1701.2248046875 812.3244140625 1701.4 812.25 1701.52578125 812.2015625 1701.65 812.15 1702 812.05 1702.35 811.95 1702.7 811.8 1703 811.65 1703.35 811.5 1703.65 811.3 1703.95 811.1 1704.25 810.9 1704.55 810.7 1704.8 810.5 1705.1 810.25 1705.35 810 1705.6 809.7 1705.8 809.4 1706 809.15 1706.25 808.85 1706.45 808.55 1706.7 808.3 1706.85 807.9 1707.05 807.55 1707.2 807.15 1707.35 806.75 1707.5 806.35 1707.6 805.95 1707.65 805.55 1707.75 805.15 1707.8 804.7 1707.8 804.3 1707.8 803.9 1707.8 803.45 1707.75 803.05 1707.7 802.65 1707.6 802.2 1707.5 801.8 1707.4 801.45 1707.3 801.1 1707.15 800.8 1707 800.45 1706.85 800.15 1706.7 799.8 1706.5 799.5 1706.3 799.2 1706.05 798.95 1705.85 798.65 1705.6 798.4 1705.35 798.1 1705.1 797.85 1704.85 797.6 1704.55 797.4 1704.25 797.2 1703.95 797 1703.65 796.8 1703.35 796.6 1703.05 796.45 1702.7 796.3 1702.35 796.15 1702 796.05 1701.65 795.95 1701.25 795.85 1700.9 795.75 1700.5 795.7 1700.1 795.65 1699.75 795.6 1699.35 795.6 1699 795.6 1698.6 795.6 1698.25 795.65 1697.85 795.75 1697.55 795.85 1697.2 795.95 1696.3 796.3 1695.4 796.65 1691.35 798.2 1687.3 799.75 1682.8 801.45 1678.3 803.2 1673.8 804.95 1669.3 806.75 1664.95 808.5 1660.65 810.4 1656.8 812.1 1652.7 812.95 1648.75 813.8 1644.8 814.75 1641.2 815.65 1637.55 816.5 1633.6 817.5 1629.7 818.3 1628.35 818.35 1626.95 818.35 1625.6 818.35 1624.2 818.3 1622.85 818.25 1621.5 818.2 1620 818.2 1618.55 818.15 1617.55 818.15 1616.55 818.15 1615.55 818.15 1614.55 818.15 1613.65 818.15 1612.75 818.15 1611.35 818.1 1610 818.1 1608.6 818.1 1607.25 818.05 1605.85 818 1604.55 817.9 1604.15 817.85 1603.75 817.75 1603.4 817.65 1603 817.55 1602.65 817.45 1602.25 817.35 1601.9 817.25 1601.5 817.1 1601.15 817 1600.75 816.85 1600.35 816.6 1599.95 816.4 1599.55 816.15 1599.15 815.9 1598.75 815.65 1598.35 815.4 1597.95 815.15 1597.5 814.95 1597.15 814.75 1596.75 814.6 1596.4 814.4 1596 814.25 1595.6 814.1 1595.25 813.95 1594.85 813.8 1594.45 813.7 1594.05 813.55 1593.65 813.45 1593.3 813.2 1593 813 1592.85 812.9 1592.75 812.8 1592.4 812.1 1592 811.4 1591.6 810.75 1591.2 810.05 1590.95 809.65 1590.65 809.25 1590.4 808.85 1590.1 808.45 1589.85 808.05 1589.6 807.7 1589.35 807.3 1589.1 806.9 1588.85 806.55 1588.6 806.15 1588.35 805.75 1588.1 805.4 1587.65 804.7 1587.15 804.05 1586.7 803.4 1586.25 802.75 1585.75 802.05 1585.25 801.4 1584.75 800.75 1584.3 800.05 1584 799.55 1583.75 799.05 1583.7 798.55 1583.65 798.05 1583.6 797.6 1583.55 797.1 1583.5 796.6 1583.45 796.15 1583.4 795.65 1583.3 795.15 1583.25 794.7 1583.15 794.2 1583.05 793.75 1582.95 793.35 1582.85 792.95 1582.7 792.55 1582.55 792.1 1582.4 791.7 1582.25 791.3 1582.1 790.9 1582 790.55 1581.85 790.15 1581.75 789.8 1581.6 789.4 1581.5 789.05 1581.4 788.65 1581.25 788.3 1581.15 787.9 1581 787.5 1580.9 787.1 1580.75 786.65 1580.6 786.25 1580.5 785.85 1580.35 785.4 1580.2 785 1580.05 784.6 1579.95 784.2 1579.85 783.8 1579.7 783.4 1579.6 783 1579.5 782.65 1579.4 782.25 1579.3 781.85 1579.2 781.45 1579.15 781.05 1579.05 780.65 1579 780.2 1579 779.8 1578.95 779.35 1578.95 778.9 1578.9 778.45 1578.85 778 1578.8 777.55 1578.75 777.15 1578.7 776.7 1578.65 776.25 1578.55 775.8 1578.45 775.4 1578.4 774.95 1578.25 774.55 1578.15 774.1 1578.05 773.7 1577.9 773.3 1577.7 772.85 1577.55 772.5 1577.4 772.15 1577.25 771.75 1577.1 771.4 1576.95 771.05 1576.75 770.7 1576.6 770.35 1576.45 770 1576.25 769.65 1576.05 769.3 1575.85 768.95 1575.65 768.65 1575.4 768.3 1575.2 768 1574.95 767.65 1574.7 767.35 1574.5 767.05 1574.25 766.7 1574 766.4 1573.75 766.1 1573.5 765.8 1573.25 765.5 1573.1 765.2 1572.95 764.9 1572.75 764.6 1572.6 764.25 1572.45 763.95 1572.3 763.65 1572.15 763.35 1571.95 763.05 1571.7 762.7 1571.45 762.35 1571.2 762.05 1570.95 761.7 1570.7 761.35 1570.45 761.05 1570.2 760.7 1569.95 760.35 1569.7 760.05 1569.4 759.7 1569.15 759.4 1568.85 759.05 1568.55 758.7 1568.25 758.4 1567.95 758.05 1567.65 757.7 1567.4 757.3 1567.15 756.95 1566.85 756.55 1566.55 756.2 1566.3 755.85 1566 755.5 1565.75 755.2 1565.45 754.9 1565.2 754.65 1564.9 754.4 1564.6 754.15 1564.3 753.9 1563.95 753.7 1563.6 753.5 1563.3 753.3 1563.05 753.15 1562.75 753 1562.45 752.85 1562.15 752.7 1561.85 752.55 1561.45 752.3 1561.05 752.1 1560.7 751.85 1560.3 751.65 1559.9 751.45 1559.5 751.25 1559.1 751.05 1558.7 750.85 1558.3 750.65 1557.9 750.5 1557.5 750.3 1557.15 750.15 1556.75 750 1556.4 749.85 1556 749.7 1555.65 749.55 1555.25 749.4 1554.9 749.3 1554.5 749.2 1554.1 749.15 1553.7 749.1 1553.3 749.05 1552.9 749 1552.5 748.95 1552.1 748.9 1551.7 748.85 1551.3 748.85 1550.9 748.85 1550.5 748.9 1550.1 748.95 1549.7 749 1549.3 749.05 1548.9 749.1 1548.5 749.15 1548.15 749.2 1547.75 749.3 1546.85 749.55 1546 749.8 1544.7 750.2 1543.45 750.7 1542.2 751.2 1540.95 751.75 1540.2 752.1 1539.45 752.45 1538.75 752.75 1538.1 753.05 1537.35 753.45 1536.6 753.85 1535.7 754.3 1534.85 754.75 1534 755.2 1533.2 755.7 1532.4 756.2 1531.6 756.7 1530.8 757.2 1530 757.65 1529.35 758 1528.7 758.35
M 1457.8 783.8
Q 1457.6 784.05 1457.4 784.4 1457.15 784.6 1456.85 784.9 1456.55 785.1 1456.25 785.4 1455.95 785.6 1455.7 785.85 1455.4 786.15 1455.1 786.35 1454.8 786.65 1454.55 786.9 1454.25 787.2 1454 787.45 1453.75 787.75 1453.45 788 1453.2 788.3 1452.9 788.55 1452.7 788.85 1452.45 789.05 1454.1 796.95 1454.9 804.8 1455.5 804.25 1456.2 803.7 1457.6 802.55 1459.15 801.6 1461 800.5 1462.6 799.05 1464.2 797.65 1465.75 796.3 1467 795.2 1468.2 794.05 1469.7 792.65 1470.75 790.9 1471.95 789 1473.3 787.25 1473.6 786.9 1473.9 786.65 1474.25 786.3 1474.55 786.05 1474.85 785.8 1475.2 785.55 1475.85 785.15 1476.5 784.7 1477.1 784.25 1477.7 783.75 1478.35 783.25 1478.95 782.65 1479.55 782.05 1480.15 781.4 1480.75 780.75 1481.25 780.05 1481.8 779.4 1482.3 778.7 1482.75 778 1483.2 777.3 1483.65 776.6 1484.05 775.9 1484.5 775.25 1484.95 774.55 1485.4 773.8 1485.85 773.1 1485.85 773.5 1485.85 773.95 1485.8 775.15 1485.8 776.4 1485.8 777.6 1485.8 778.85 1485.8 780.1 1485.75 781.35 1485.75 782.15 1485.75 783 1485.75 783.85 1485.75 784.65 1485.7 785.5 1485.7 786.3 1485.7 787.2 1485.7 788 1485.65 789.3 1485.75 790.55 1485.8 791.8 1486 793 1486.15 793.8 1486.35 794.6 1486.5 794.95 1486.6 795.35 1486.8 795.7 1486.95 796 1487.15 796.35 1487.35 796.65 1487.55 797 1487.8 797.3 1487.8 797.65 1487.8 798 1487.85 798.35 1487.85 798.75 1487.85 799.1 1487.9 799.4 1487.95 799.75 1487.95 800.05 1488 800.5 1488.1 801 1488.15 801.45 1488.25 801.85 1488.3 802.3 1488.4 802.8 1488.55 803.2 1488.7 803.6 1488.9 804 1489.1 804.45 1489.25 804.85 1489.45 805.2 1489.75 805.6 1490.05 805.95 1490.35 806.3 1490.65 806.65 1490.95 807 1491.3 807.4 1491.6 807.6 1491.95 807.9 1492.3 808.1 1492.65 808.4 1493 808.65 1493.35 808.9 1493.65 809.15 1494 809.4 1494.35 809.7 1494.7 809.9 1495.05 810.15 1495.45 810.35 1495.8 810.6 1496.2 810.8 1496.55 810.9 1496.9 811.1 1497.25 811.25 1497.6 811.4 1497.95 811.45 1498.3 811.55 1498.7 811.65 1499.05 811.75 1499.4 811.85 1499.8 811.9 1500.15 811.95 1500.55 812 1500.95 812 1501.35 812 1501.75 812 1502.1 812 1502.5 812 1502.9 812 1503.3 812 1503.7 812 1504.1 811.95 1504.5 811.9 1504.9 811.8 1505.3 811.75 1505.65 811.6 1506.05 811.5 1506.4 811.4 1506.75 811.3 1507.15 811.15 1507.5 811 1507.9 810.9 1508.3 810.8 1508.65 810.65 1509.05 810.5 1509.45 810.4 1509.85 810.3 1510.2 810.15 1510.6 809.95 1510.95 809.8 1511.35 809.7 1511.7 809.5 1512.05 809.3 1512.4 809.1 1512.75 808.9 1513.05 808.65 1513.4 808.45 1513.7 808.2 1514.05 808 1514.35 807.7 1514.65 807.45 1514.95 807.25 1515.25 806.95 1515.55 806.75 1515.85 806.45 1516.15 806.25 1516.45 805.95 1516.8 805.8 1517.15 805.7 1517.5 805.55 1517.85 805.4 1518.2 805.2 1518.55 805.05 1518.85 804.85 1519.2 804.6 1519.5 804.4 1519.85 804.15 1520.15 803.95 1520.45 803.7 1520.75 803.45 1521 803.25 1521.3 803 1521.6 802.8 1521.9 802.55 1522.2 802.25 1522.5 802.05 1522.75 801.75 1522.85 801.7 1522.95 801.65 1524.35 790.15 1525.35 778.7 1525.15 778.7 1525 778.8 1524.7 778.95 1524.4 779.15 1524.05 779.35 1523.7 779.6 1523.4 779.85 1523.05 780.05 1522.7 780.3 1522.35 780.5 1522.05 780.75 1521.7 781 1521.4 781.25 1521.05 781.5 1520.75 781.75 1520.4 782 1520.1 782.25 1519.75 782.55 1519.45 782.75 1519.15 783.05 1518.8 783.3 1518.5 783.6 1518.1 783.85 1517.75 784.05 1517.4 784.3 1517.05 784.55 1516.7 784.8 1516.35 785.05 1516 785.3 1515.65 785.55 1515.35 785.8 1515.1 786.05 1514.85 786.25 1514.6 786.5 1514.35 786.75 1514.1 787 1513.9 787.3 1513.65 787.5 1513.4 787.75 1513.15 788 1512.9 788.25 1512.6 788.45 1512.35 788.7 1512.05 788.95 1511.75 789.15 1511.45 789.4 1511.2 789.6 1510.9 789.8 1510.6 790.05 1510.35 790.25 1510.05 790.55 1509.75 790.75 1509.5 791.05 1509.2 791.3 1508.9 791.4 1508.55 791.55 1508.2 791.7 1507.9 791.85 1507.5 792.05 1507.1 792.25 1506.75 792.45 1506.35 792.7 1506 793 1505.65 793.25 1505.3 793.55 1505 793.8 1504.75 794 1504.5 794.1
L 1504.45 793.95
Q 1504.4 793.6 1504.3 793.2 1504.2 792.9 1504.1 792.5 1503.95 792.2 1503.8 791.9 1503.65 791.5 1503.5 791.2 1503.35 790.85 1503.2 790.55 1503 790.2 1502.85 789.9 1502.75 789.7 1502.6 789.55 1502.5 787.75 1502.55 785.95 1502.55 783.3 1502.55 780.7 1502.5 778.1 1502.5 775.5 1502.45 772.8 1502.45 770.05 1502.4 767.25 1502.4 764.55 1502.4 762.3 1502.35 760.05 1502.35 757.8 1502.3 755.55 1502.25 753.5 1502.2 751.6 1502.15 749.75 1501.8 747.9 1501.7 747.6 1501.6 747.3 1501.5 747 1501.35 746.7 1501.15 746.45 1501 746.15 1500.75 745.85 1500.5 745.55 1500.25 745.25 1500 744.95 1499.75 744.7 1499.5 744.35 1499.3 744.2 1499.05 743.95 1498.8 743.7 1498.5 743.55 1498.25 743.4 1497.95 743.25 1497.65 743.1 1497.35 743 1497 742.85 1496.7 742.75 1496.4 742.6 1496.1 742.5 1495.75 742.4 1495.45 742.3 1495.05 742.2 1494.6 742.1 1494.2 742.05 1493.75 742 1493.35 742 1492.9 742 1492.5 742.05 1492.05 742.1 1491.65 742.2 1491.2 742.3 1490.85 742.4 1490.5 742.45 1490.15 742.6 1489.8 742.75 1489.45 742.95 1489.1 743.05 1488.75 743.3 1488.4 743.5 1488.1 743.65 1487.75 743.9 1487.5 744.15 1487.2 744.35 1486.95 744.6 1486.7 744.85 1486.45 745.15 1486.2 745.45 1485.95 745.75 1485.7 746.05 1485.45 746.35 1485.2 746.65 1485 746.95 1484.75 747.25 1484.55 747.6 1484.35 747.9 1484.1 748.2 1483.85 748.6 1483.6 748.95 1483.4 749.3 1483.05 749.6 1482.75 749.9 1482.45 750.2 1482.15 750.5 1481.9 750.75 1481.7 751.05 1481.45 751.3 1481.3 751.55 1481.1 751.75 1480.95 752 1480.8 752.25 1480.65 752.45 1480.5 752.75 1480.35 752.95 1480.2 753.25 1480.1 753.55 1479.95 753.9 1479.8 754.2 1479.65 754.5 1479.55 754.8 1479.4 755.1 1479.3 755.45 1479.2 755.75 1479.1 756.1 1479 756.4 1478.9 756.8 1478.65 757.05 1478.45 757.35 1477.95 757.95 1477.5 758.55 1477.05 759.15 1476.6 759.7 1476.2 760.3 1475.8 760.95 1475.45 761.6 1475 762.2 1474.6 762.9 1474.15 763.55 1473.65 764.25 1473.2 764.9 1472.7 765.65 1472.25 766.45 1471.75 767.2 1471.3 767.9 1470.85 768.65 1470.4 769.4 1469.95 770.05 1469.5 770.8 1469.05 771.55 1468.6 772.25 1468.3 772.5 1468.05 772.85 1467.75 773.1 1467.45 773.4 1467.15 773.65 1466.85 773.9 1466.55 774.1 1466.2 774.3 1465.9 774.55 1465.55 774.75 1465.25 774.95 1464.95 775.2 1464.6 775.4 1464.3 775.65 1464.05 775.9 1463.75 776.15 1463.45 776.45 1463.15 776.75 1462.85 777.05 1462.6 777.4 1462.3 777.7 1462 778.05 1461.75 778.35 1461.45 778.7 1461.2 779 1460.9 779.3 1460.65 779.65 1460.4 779.9 1460.15 780.25 1459.95 780.55 1459.7 780.9 1459.45 781.2 1459.2 781.55 1459 781.9 1458.75 782.2 1458.55 782.55 1458.35 782.85 1458.2 783.2 1458 783.45 1457.8 783.8
M 1501.5 796.15
Q 1501.65 796.05 1501.85 796 1501.8 796.05 1501.75 796.05 1501.65 796.1 1501.5 796.15
M 1437.65 723.4
Q 1437.3 723.2 1436.9 723.05 1436.5 722.9 1436.15 722.85 1435.7 722.8 1435.3 722.75 1434.9 722.75 1434.5 722.75 1434.1 722.85 1433.7 722.9 1433.35 723 1433.05 723.1 1432.75 723.25 1432.45 723.4 1432.15 723.5 1431.9 723.7 1431.65 723.9 1431.4 724.1 1431.15 724.35 1430.95 724.6 1430.75 724.8 1430.55 725.1 1430.4 725.35 1430.25 725.65 1430.15 725.95 1430.05 726.25 1430 726.55 1429.9 726.85 1429.9 727.15 1429.85 727.5 1429.85 727.95 1429.8 728.3 1429.8 728.7 1429.75 729.1 1429.75 729.5 1429.75 729.9 1429.7 730.3 1429.7 730.7 1429.65 731.1 1429.65 731.5 1429.6 731.75 1429.5 732 1429.45 732.25 1429.4 732.5 1429.2 732.75 1429.1 733.1 1430.35 735.2 1431.6 737.3 1434.4 742 1436.85 746.7 1437 746.35 1437.15 745.95 1437.3 745.6 1437.45 745.25 1437.6 744.85 1437.7 744.55 1437.8 744.2 1437.9 743.75 1438 743.35 1438.1 742.95 1438.15 742.5 1438.25 742.05 1438.3 741.65 1438.35 741.25 1438.45 740.75 1438.5 740.35 1438.55 739.95 1438.6 739.5 1438.7 739.1 1438.8 738.75 1438.95 738.4 1439.1 738 1439.2 737.7 1439.35 737.3 1439.5 736.95 1439.6 736.6 1439.75 736.2 1439.85 735.85 1439.95 735.45 1440.05 735 1440.15 734.6 1440.2 734.2 1440.3 733.75 1440.35 733.3 1440.4 732.9 1440.45 732.5 1440.45 732.1 1440.5 731.6 1440.45 731.2 1440.45 730.8 1440.45 730.4 1440.4 730 1440.4 729.65 1440.35 729.25 1440.35 728.85 1440.3 728.5 1440.3 728.1 1440.25 727.75 1440.2 727.35 1440.15 726.95 1440.1 726.6 1440.05 726.25 1439.95 725.9 1439.85 725.65 1439.7 725.35 1439.55 725.1 1439.35 724.85 1439.2 724.6 1438.95 724.35 1438.7 724.1 1438.45 723.9 1438.2 723.7 1437.95 723.5 1437.65 723.4
M 1428.9 698.65
Q 1431.3 696.45 1433.75 694.3 1429.2 693.45 1424.95 691.2 1421.75 696.75 1417.75 706.8
L 1417.75 706.85
Q 1420.6 704.55 1423.7 702.6 1426.45 700.8 1428.9 698.65
M 1333.45 766.5
Q 1327.8 758.55 1328.2 749.6 1321.05 753.95 1311.85 753.25 1302.7 752.55 1296.45 747.05 1292.1 749.5 1287.35 753.3 1287.65 753.8 1287.95 754.35 1291.3 760.45 1303.35 778.5 1315.7 797 1326.4 816 1331.7 817 1337.25 820.3 1341.4 822.85 1346.7 827.4 1355.2 834.7 1363.8 843.75 1364.1 842.65 1364.35 841.5 1366.5 837.45 1367.7 833.15 1368.2 831.35 1368.65 829.5
L 1368.7 829.5
Q 1369.1 829.45 1369.5 829.4 1369.9 829.3 1370.3 829.25 1370.65 829.15 1371.05 829 1371.4 828.85 1371.8 828.7 1372.15 828.55 1372.5 828.4 1372.85 828.15 1373.2 828 1373.5 827.75 1373.85 827.55 1374.15 827.3 1374.4 827 1374.7 826.75 1375 826.45 1375.25 826.15 1375.5 825.8 1375.75 825.45 1375.95 825.15 1376.15 824.75 1376.35 824.45 1376.5 824.05 1376.65 823.65 1376.75 823.3 1376.9 822.95 1376.95 822.5 1377.05 822.15 1377.1 821.75 1377.15 821.3 1377.15 820.95 1377.15 820.55 1377.1 820.15 1377.1 819.75 1377.25 819.45 1377.4 819.05 1377.55 818.75 1377.7 818.35 1377.85 818 1377.95 817.7 1378.1 817.25 1378.25 816.9 1378.35 816.5 1378.5 816.05 1378.6 815.7 1378.8 815.3 1378.9 815.1 1379 814.9 1379.2 814.55 1379.4 814.2 1379.6 813.8 1379.8 813.45 1379.95 813.1 1380.1 812.7 1380.3 812.35 1380.45 812
L 1380.5 811.95
Q 1375.75 812.6 1370.65 811.75 1362.2 810.3 1356.2 805.2 1350.2 800.05 1348 792.45 1345.8 784.8 1348.25 777.6 1339.15 774.4 1333.45 766.5 Z"/>

<path fill="#999999" fill-opacity="0" stroke="none" d="
M 678.3 490.35
Q 681.9 488.65 685.7 487.4 685.95 486.4 686.25 485.5 686.45 484.9 686.65 484.35 685.8 484.7 684.95 485.1 678.5 488.1 672.15 491.2 670.9 491.8 669.7 492.45 670.45 493.15 671.25 493.95 674.7 492 678.3 490.35
M 1385.45 839.5
Q 1383.9 840.5 1382.25 841.35 1380.7 842.25 1379.05 842.95 1377.8 843.5 1376.55 844.2 1375.2 844.9 1373.85 845.7 1372.5 846.45 1371.1 847.1 1369.7 847.85 1368.3 848.55 1368.25 848.6 1368.2 848.6 1369.35 849.85 1370.45 851.1 1373.65 854.75 1377.05 858.9 1382.1 856.3 1387 853.4 1387 852.5 1387.05 851.55 1387.2 849.05 1387.25 846.5 1387.35 843.95 1387.4 841.35 1387.45 839.8 1387.45 838.25 1386.4 838.85 1385.45 839.5
M 1420.5 818.75
Q 1420.55 818.55 1420.65 818.35 1420.55 818.35 1420.45 818.35 1420.1 818.35 1419.8 818.35 1419.45 818.35 1419.15 818.35 1418.8 818.35 1418.5 818.4 1418.15 818.5 1417.85 818.6 1417.55 818.7 1417.25 818.85 1416.95 818.95 1416.65 819.1 1416 819.55 1415.35 820 1414.95 820.3 1414.5 820.6 1413.95 820.95 1413.35 821.3 1412.8 821.7 1412.2 822.05 1411.65 822.4 1411.1 822.85 1410.55 823.25 1410.05 823.65 1409.5 824.1 1409.05 824.55 1408.55 825.05 1408.05 825.55 1407.55 826.05 1407.1 826.55 1406.6 827.05 1406.1 827.55 1405.6 828.1 1405.1 828.6 1404.6 829.1 1404.1 829.55 1403.75 829.75 1403.4 829.9 1403.05 830.1 1402.75 830.3 1402.4 830.45 1402.05 830.65 1401.75 830.85 1401.5 831 1401.2 831.15 1400.9 831.35 1400.6 831.55 1400.35 831.7 1400.05 831.9 1399.8 832.1 1399.5 832.25 1399.2 832.45 1398.9 832.65 1398.6 832.8 1398.3 833 1398.05 833.2 1397.75 833.35 1397.45 833.5 1397.15 833.7 1396.8 833.85 1396.5 833.95 1396.2 834.15 1395.9 834.3 1395.55 834.45 1394.45 834.85 1393.35 835.25 1392.95 835.4 1392.6 835.6 1392.6 835.75 1392.6 836 1392.7 838.6 1392.75 841.25 1392.8 844.1 1392.85 846.95 1392.9 848.45 1392.9 849.95 1396.95 847.65 1401.2 845.7 1406.7 843.1 1411.35 839.45 1412.9 838.2 1414.35 836.9 1414.4 836.8 1414.4 836.75 1414.75 835.65 1415.15 834.6 1415.6 833.55 1416 832.5 1416.4 831.45 1416.75 830.35 1417.1 829.25 1417.5 828.15 1417.95 827.05 1418.35 825.85 1418.7 824.65 1419 823.5 1419.25 822.25 1419.65 821.1 1420.05 819.9 1420.5 818.75 Z"/>
</g>
</defs>

<g transform="matrix( 1, 0, 0, 1, 0,0) ">
<use xlink:href="#Layer0_0_FILL"/>
</g>
</svg>
