<svg xmlns="http://www.w3.org/2000/svg" xmlns:xlink="http://www.w3.org/1999/xlink" preserveAspectRatio="none" width="1920" height="1080"><defs><g id="a"><path fill="#120000" d="M928.3 946.3q-.85-1.05-2.2-1.4-10.95-2.75-25.4 8.8-12.25 9.85-24.05 24.35-10.4 12.75-16 23.65-4.85 9.6-2.6 15.65 1.25 3.35 5.45 7.2 13.2 12.5 30.1 19.6 18.15 7.65 35.75 6.8 9.1-.45 15.4-3.45 9.7-4.65 18-18.35-6.35 4.75-13.9 7.6-7.55 2.8-15.45 3.4-12.9 1-27.4-3.85-8.15-2.65-15.5-6.6-11.1-5.95-20.1-13.9-2.3-2.05-3.5-3.65-1.7-2.2-2-4.45-.4-3.25 2.35-8.25 4.7-8.5 14.1-19.75 11.1-13.55 20.35-20.8 12.95-10.05 26.15-12.05l.6 1.4q.75-.85-.15-1.95m176.4-424.4q-3.7-1.2-7.75-.05-3.9 1.15-6.75 4-2.7 2.75-4 6.7-1.25 3.8-1 7.8.25 3.8 1.75 7.35 1.5 3.6 4.05 6.45.75.8 2.3 2.35 1.4 1.45 2.1 2.55.35.55.9 1.6.55.95 1.15 1.4 1.9 1.55 4.6.55 1.8-.65 3.95-2.8 7.35-7.1 9.2-15.6 1-4.6.1-9.1-.9-4.75-3.7-8.25-2.9-3.6-6.9-4.95m-.15 13.95q2.2 2.85 2.85 6.25.65 3.4-.25 6.9-.9 3.45-3.15 6.15-1.2 1.55-2.6 2.15-1.85.75-3.2-.25-.6-.45-1.45-2.1-3.1-6.55-3.65-10.35l-.3-3.3q-.2-2-.6-3.3-.5-1.45-.7-2.2-.3-1.3-.1-2.25.2-1.1 1.2-1.9.9-.75 2.1-.95 1.95-.4 4.5.8 3.15 1.45 5.35 4.35m-10.15-33.9q6.7-.45 12.65 2.45 5.65 2.75 10.05 8 4.1 4.95 6.35 11.3 2.35 6.75 2.25 13.9-.1 7.3-2.75 13.75-2.75 6.6-7.9 11.6-5.25 5.1-11.85 7.4 6.05 2.1 12.7-1.85 5.8-3.5 9.75-10 3.9-6.4 5.75-13.8 1.9-7.35 1.5-14.85-.55-10.85-6-19.95-5.75-9.65-15.05-13.6-7.75-3.3-16.5-1.85-8.75 1.45-15 7.1-6.3 5.65-8.65 14.25-2.35 8.55.15 16.6.75-18.55 10.55-26.1 5.1-3.9 12-4.35M976.6 577.9q.25 1.85 1.35 5 7.8 22.5 8.85 52.2.7 18.5-1.6 53.65 5.7-9.45 7.4-23.2 1.1-8.65.8-24.95-.45-23.15-2.75-35.6-3.55-19.5-13.3-31.9-1.15 1.95-.75 4.8m-46.55 207.25q-2.55.55-6.5 2.25-14.95 6.5-24.4 12.35-14.25 8.95-25.7 21.75-11.4 12.7-18.8 27.95-7.95 16.45-10.8 34.5-2.6 16.65.45 29.25 1.85 7.5 5.65 13.65 4.05 6.6 9.8 10.8 8.9 6.5 22.1 7.55 10.35.85 24.2-1.65 10.45-1.9 16.9-4.6 6-2.5 7.05-6.25.65-2.4-1.3-4.5-1.95-2.15-4.05-1l2.05 3.4q-3.55.35-16.75 2.35-10.3 1.55-16.8 1.7-9.2.2-16.85-2.05-8.75-2.55-14.45-8.1-6.35-6.15-9.2-16.1-2.4-8.45-2.1-19 .6-20.65 9.6-39.85 9.05-19.2 24.55-32.8 8.75-7.7 20.95-14.7 8.9-5.1 22.95-11.55 5.1-2.4 8.1-2.6 2.45-.1 2.9 1.3.15-1.2-.8-2.3-.9-.95-2.2-1.45-2.8-1.05-6.55-.3m35.25-216.3q-1.6-3.7-4.55-6-3.1-2.4-7.1-2.65-4.15-.25-7.15 2-4.05 3.05-5.4 10.55-1.2 6.85.1 13.9 1.25 7 4.75 13 2.65 4.35 5.6 4.55 2.7.1 5.6-3.2 3.4-3.95 6.2-9.95 3.8-8.1 3.6-14.75-.1-4-1.65-7.45m-17 14.3q-2.2-6.75-.45-13.65 3.8.2 7.6 4.75 4.4 5.45 3.7 9.95-.25 1.5-1.35 3.75-1.4 2.75-1.7 3.7-.4.15-.75-.3-.3-.35-.45-.9-1.3-5.45-1.55-8.4-.35-4.75 1-8.25-3.65 4.1-6.05 9.35m2.05-50.2q-7.1-1.6-15.05 1.35-6.9 2.6-13.35 8.15-8.6 7.4-13.4 16.85-5.25 10.2-4.75 20.55.45 9.45 5.7 17.8 5.25 8.3 13.55 12.8 9.05 4.85 17.75 3.35 4.65-.8 8.45-3.55 3.95-2.85 5.7-7-6.85 4.1-17.9.3-6.35-2.15-11.55-5.9-5.5-3.95-9.1-9.15-3.75-5.5-4.95-11.95-1.25-6.7.6-12.8 2.35-7.65 9.6-14.4 6.25-5.8 13.75-8.05 8.35-2.5 15.15.6 3.65 1.65 7.2 5.25 2.2 2.2 5.8 6.85l10.2 13.1q-1.5-12.85-6.4-21-3-4.95-7.2-8.35-4.6-3.65-9.8-4.8m119.4 25.2q-.45 1.4-.15 3.1 1.5 8.05 4 16.8 1.8 6.25 4.15 12.9.65 1.95 1.4 3.9 5.15 14.1 12.9 30.55 1.45 3.15 3 6.35 5.4 11.1 16.15 31.6 1.05 2.05 2.2 4.2 4.45 8.55 7.35 12.9 2.15 3.2 4.4 5.85 2.55 2.95 5.25 5.2 1.9 1.5 3.65 2.05 2.2.7 3.75-.35-1.9-.95-3.05-3.5-.45-.95-1.6-4.7-.15-.4-.25-.8-1.15-3.35-3.15-7.1-1.25-2.4-4.35-7.5-2.65-4.35-5.15-8.75-10.9-18.75-20.2-38.1-9.95-20.6-18.15-41.9-.15-.45-.3-.85-3.95-10.25-7.45-20.6-.85-2.8-2.5-2.85-1.35-.05-1.9 1.6m-43.7-225.3q-5.85 1.65-10.55 5.3-4.7 3.65-7.75 8.9-2.1 3.65-3.15 7.6-.55-1.7-1.55-3.45-2.2-3.75-6.55-7.4-7.9-6.7-17.2-11.35-4.15-2.05-8.45-3.65-1.45-2.35-3.7-4-2.6-1.85-6.05-2.5-3.2-.55-6.65-.05-5.25.8-10.8 4.05-4.2 2.5-9.45 7-11.3 9.9-19.75 21.65-7.6 10.6-12.35 22.05-2.85-2.8-6.1-4.4-7-3.5-16.2-1.8-7.7 1.4-15.95 6.2-11.65 6.75-21.1 16.9-9.35 9.9-15.65 22.1-11.85 22.9-12.4 50.9-.2 9.7 1.2 18.3-1.6-.8-2.85-1.5-2.2-1.25-7.8-4.85-4.85-3.15-7.85-4.65-9.8-4.95-17.65-2.75-3.65 1-6.8 3.6-3 2.45-5 5.95-3.6 6.2-3.75 14.95-.2 10.7 5 21.6 4.6 9.75 12.9 18.5 14 14.85 32.95 22.15 7.2 2.75 18.1 5.25 8.85 1.95 14.9 2.05 4.9.1 9.05-.95-.95 6.9-1.4 14.05-3.2 50.15 18.05 93.75 21.1 43.2 62.3 72.25 3.55 2.5 7.2 4.9l2.9 14.6q5.15 26.45 6.85 41.75 4.05 36.35-.6 81.9-2.8 27.45-12.2 81.5-.45 2.7.25 4.85.85 2.55 2.95 2.4 1.7-.15 3.3-2.6 4.45-6.5 7.55-14.25l-6.8 6.55q7.65-40.25 12.05-81.9 2.5-24.6 2.45-40 0-9.45-.85-21.15-.55-7.55-1.9-21.1-1.1-11.45-1.95-17.65-1.25-9.75-3.05-17.55-1.75-7.7-4.1-13.15 20.1 11.95 41.85 18.7-1 9.25-.4 18.6 1.45 22.7 12.35 40.6 8.35 13.65 21.75 23.9 12.95 9.85 28.7 15.05 15.05 4.95 31.9 5.45 16 .5 32.35-3.1 13.365-2.981 24.45-8.05.054-.018.1-.05h.05q3.55-1.65 6.85-3.5 15.9-8.75 28.5-23.15 9.8-11.25 14.95-23.45 5.75-13.7 4.75-26.8-.05-1-.15-1.95-1.05-8.8-5.15-17.45-4.25-9.05-11.35-16.85-2.15-2.4-4.55-4.65 3.9-2.4 7.65-4.9l-.8.8q8.05-2.45 14.9-9.9 2.2-2.4 4.35-5.35 11.3-10.35 20.2-22.75-.55-5.65.3-10.6.6-3.6 1.95-6.85-.65-1.1-1.3-2.3-.4-.75-.8-1.6 2.05-6.6 3.65-13.45 5.8-24.55 5.8-50.55 0-48.85-19.75-99.45-2.5-6.45-4.7-10.8-2.85-5.75-6.05-10.05-3.75-4.95-8.35-8.3-5-3.65-10.45-5 18.75 22.75 28.85 51.6 7.1 20.3 10.8 47.3 6.4 46.9-1.4 83.95-3.65 17.5-10.5 33.1-9.05 12-20.65 21.85-10.15 8.65-22.6 15.85-8.35-6.25-19.1-11.8-3.95-2.05-8-3.9-23.1-10.75-48.45-15.2-6-1.05-11.55-1.6-12.95-1.25-23.45.4-6.7 1.05-14.4 3.6-5.8 1.85-13.95 5.2-6.6 2.65-10.4 4.7-5.55 2.95-9.3 6.45-7.35 7.05-12.15 20.95-2.1 6.05-3.45 12.1-25.55-7.6-48.05-21.85-27.75-17.6-46.6-42.6-15.3-20.35-24.4-45.2-8.85-24.2-10.9-50.3-2.45-31.25 5.5-59.9 11.85 2.8 23.2 1.45 12.3-1.4 22.85-7.75 10.9-6.55 17.1-16.7 2.8-4.7 5.15-11.05 1.45-3.95 3.7-11.7-3.4 3.3-4.8 4.8-2.65 2.75-4.35 5.2-1.15 1.7-3.65 6.1-2.2 3.95-3.8 6-6.2 8.15-17.65 11.6-10 2.95-21.95 1.9-6.15-.55-11.9-2 11.05-30.45 32.9-51 4.4-4.15 9.15-7.7 9.25 11.2 21.75 20.15 13.65 9.7 28.25 14.65 15.9 5.4 31.2 4.55 11-.7 18.85-4.5 11.9-5.8 20.25-20.3 2.05-3.55 3.35-6.85 0 .05.05.05 11.1 6.95 28.5 4.1 10.7-1.7 20.7-6.45 8.9-4.25 13.95-9.75 5.65-6.2 7.95-15.2.8-3.25 1.15-6.6 13.85 4.35 26.9 10.6 8.25 3.95 16 8.65.25-5.6 1.55-10.45-9.75-5.35-20.15-9.55 3.55-2.25 6.5-6.4 2.2-3.15 4.6-8.2 6.75-14.45 9.75-29.75 1.65-8.35 1.4-14.6-.3-6.7-2.75-14.3-3.4-10.4-9.45-18.4-6.65-8.75-15.45-13.3-5-2.65-8.85-2.2-5.1.65-10.4 7-3.85 4.65-7.5 10.95-2.65 4.6-6.2 11.85-3.6 7.35-6.6 14.35-3.7-6.8-7.15-12.1-10.85-16.55-23.9-26.35-11.3-8.55-21.95-9.7-5.9-.6-11.7 1.1m-8.55 9.75q4.35-2.7 9.3-3.4 13.2-1.8 28.15 10.35 13.15 10.75 23.85 28 3.75 6.05 7.6 13.5-.45 1.35-.7 2.45-1 4.15-.5 7.6.95-2.85 2.75-6.95 3.7 7.7 7.5 16.75 4.2 10.1 6.15 16.85.65 2.4 1.2 4.75-34.55-8-70.25-4.85-4.25.4-8.75.95-.25-.55-.45-1.05-3.55-8.7-7.4-14.15-2.7-3.7-5.35-4.05-1.8-.2-3.1 1.25-1.35 1.45-.6 2.95-.15-.4.25-.7.5-.35.95-.1.6.3.8 1.65 1.45 8.05 3.7 15.85-7.3 1.15-15.15 2.8-12.15 2.45-34.65 8.05-17.65 4.35-26.3 7.35-9.95 3.4-17.75 7.8-9.65-12.8-13.8-26.9-3.65-12.25-3-25.6.25-5.85 1.35-11.6 7 7.25 12.15 9-5.6-13.05-7.5-16.35-.95-1.7-2-3.15.5-1.65 1.1-3.25 4.4-11.95 12.3-22.7 7.65-10.4 17.9-18.65 8.45-6.85 15.2-7.55 1-.1 2-.1.35.45.95.85 1.45.95 3.6 1.2l-1.55-1.3 9.95 5.85q5.05 5.75 4.3 12.8 1.65-4.7 1.75-9.2l24.35 14.35q2.65 1.6 4 2.65 1.2 1 2 2.05-.35 2.95.2 5.3.75 3.1 2.95 4.55-1.2-4.8-.3-9.9.9-5 3.7-9.15 2.8-4.1 7.15-6.85m101.8 2.3q1.1.3 3.1 1.2 5.6 2.7 8.05 4.55 3.15 2.4 7.5 8.1 4.2 5.7 5.9 9.05 1.5 2.95 2.7 6.8.8 2.5 1.95 7.05 1.5 5.9 1.65 8.95.1 3.05-.6 7.5-3.25 19.65-13 36.95l-3.1-8q-1.85 6.35-2.25 13 0 .6.05 1.1-9.6-3.7-19.75-6.45-.1-.95-.2-1.95-.9-7.8-4.05-16.9-2.2-6.35-6.7-16.15-4-8.75-7.75-15.95v-.05q5.7-11.75 9-17.85 5.25-9.8 10.25-17.15.05-.05.1-.15 2.05-3.05 4-3.65 1.35-.45 3.15 0m-242.05 34.8q7.25-1.1 12.95 1.5 3.3 1.5 8.3 6.15-3.2 10.8-3.75 22-.75 15.1 3.4 28.9 3.75 12.45 11.55 23.9-12.5 9.5-23.75 26.15-12.2 17.95-19.55 38.15-7.9-2.8-15.1-7.35-13.5-8.55-20.55-20.95 2.5-.1 4.3-.8 1.6-.65 3.3-2.1 1-.85 2.8-2.7-2.75 1.7-5.35 1.5-1.95-.15-5.45-2l-3.15-1.5q-4.1-10.75-4.5-25.35-.75-26 9.3-46.7 5.35-11.05 13.45-19.8 8.45-9.1 18.95-14.6 6.65-3.45 12.85-4.4m51.35 77.65q.4-.2 1-.25 2.2-1.8 4.75-3.45 14.9-9.5 38.3-14.65 11.3-2.45 19.5-2.2 4.75.15 8.85 1.2 6.65-1.25 13.35-2.15 3.6 11.1 8.9 21.7 3.4 6.8 6.65 11.15 1.5 2 3.1 3.7-1.75 9.85-7.45 16.05-5.15 5.55-13.45 8.1-7.2 2.2-16 2-13.5-.25-27.4-5.4-12.75-4.7-24.85-13.15-11.3-7.85-19.85-17.45.65-.85 1.45-1.6-1 .5-1.95 1.05l-.8-.9q1.25-.45 2-.9.4-.25 1.9-1.55 1.15-.95 2-1.3M912 468.5q.45-.35 1.35-1.3.3.35.6.75-1.15.6-1.95.55m-93.7 27.4q3.65 11.95 10.7 20.6 6.7 8.2 17.4 14.6 7.8 4.7 16.1 7.5-3 10.55-4.75 21.65-3.35-1.7-5.4-2.65-5.6-2.65-10.35-4.1-2.35-.75-6.2-1.75-4.9-1.25-6.2-1.6-10.8-3.05-20.7-8.6-9.85-5.6-18.05-13.3-4.35-4.1-7.35-8.05-7.35-9.55-11.35-23.6-1.55-5.25-1.25-8.55.25-2.25 1.25-4.15 1.1-2.05 2.85-3.15 2.5-1.45 6.65-1.2 7 .5 16.2 5.7 5.1 2.85 15.4 8.65 2.45 1.1 5.05 2m285.8-54.4q.1 1.95.1 3.85-.1 7.2-2.75 11.5-3 5.05-11.7 8.85-8.65 3.75-17.3 5.05-14.45 2.3-24.45-3.15-3.9-2.1-7.3-5.55-.55-2.2-1.6-4.25-2.2-4.25-5.95-6.35-2.15-4-4.1-8.9-1.65-4.5-2.95-7.95 16.9-1.4 34-.3 22.9 1.45 44 7.2m-86.15 292.85q4.9-5.15 10.9-7.85 9.05-4.05 21.45-2.8 8.1.85 21.95 4.85l-12.65-9.8q20.5.15 40.55 4.95 2.5.6 4.95 1.25 11.3 3 22 7.45 10.5 4.3 20.45 9.95 3.7 2.1 7.1 4.3-3.05 1.45-6.2 2.8.95.8 1.85 1.65 3.3 3.1 6.1 6.65 4.2-1.9 8.2-3.9 10.2 8.25 16.25 17.5 4.35 6.65 6.6 13.95 1 3.3 1.6 6.7 2.05 11.7-1.6 21.8-3.5 9.5-13.15 19.8-8.8 9.25-18.6 15.7-5.95 3.8-12.25 6.65-11 5-24.85 7.6-29.2 5.4-54.75-1.8-13.6-3.8-25.3-11-12.15-7.5-20.9-17.85-12.25-14.45-17.05-33.45-2.15-8.5-2.55-16.9-.7-3.35-.6-7.05.2-8.65 4.45-16.25 2.3-4.1 5.6-7.65 1.2-3.3 2.65-6.15 3.15-6.35 7.8-11.1m-9.4 1.3q-1.25 2.4-2.8 4.75 1.2-2.35 2.45-4.2l-.55 1.05.9-1.6m-8.8 26.5v-.2l.05.2h-.05m2.1-12.75q.2-2 2.25-5.8l-2.25 5.8m94.95 69.8q6.9.2 10.6 1.95 4.6 2.1 8.05 7.2 2.65 3.9 4.9 10.05 1.45 3.9.45 5.85-.7 1.35-2.5 2.2-1.2.5-3.4.95l-10.65 1.95q2.55 3.5 7.25 4.35 4.6.85 8.5-1.25 3.8-1.95 6.1-6.05 2.2-3.85 2.4-8.4.35-8.25-5.4-16.3-3.25-4.6-7.05-7.1-6.5-4.3-15.5-4.05-9.7.25-16.9 5.45-3.7 2.7-6.2 6.5-2.55 3.9-3.3 8.25-.4 2.6.15 4.8.7 2.5 2.6 3.55-1.4-5.6 1.55-11.1 2.9-5.5 8.3-7.55 3.75-1.45 10.05-1.25m6.6-59.3q-.6-.15-.9.8-1.35 3.1-1.1 6.7.2 2.95 1.7 6.85 3.75 10.05 10 12.25 1.7.65 3 .3.8-.2 1.35-.75.6-.6.65-1.35-.3.5-.95.25-.55-.25-.95-.8-1.75-2.4-3.85-7.55-2.2-5.45-3.7-7.7-1.9-2.5-2.8-3.8-1.55-2.25-1.85-4.2-.25-.9-.6-1m-51.35 11.7q-.05 1.55.75 2.8.85 1.4 2.2 1.75-1.65-2.3-1-5.05 1.65 4.45 3.9 14 .7 2.9.9 4.25.35 2.4.15 4.3-.35 2.75.8 3.25.5.25 1.1.1.55-.2.95-.65.6-.65.9-2.15 1.9-7.85.55-15.8-.85-4.7-2.65-7.95-1.5-2.6-3.65-4.45-.65-.65-1.2-.65-.65.05-1.35.95-2.25 2.9-2.35 5.3m283.3 104.25q-9.95-12.35-19.5-25-19.55-25.9-42.1-59.55-13.55-20.2-39.9-61.1l-12.25-19.05q-.25 8.8 4.2 18.85 2.85 6.45 9.75 17.35 32.05 50.5 48.45 74.85 27.7 41.1 52.45 71.95 12.6 15.8 22.3 25.8 3.4 3.6 6.1 3.15 1.3-.2 2.2-1.2-9.6-13.55-26.75-38.6-2.75-4.15-4.95-7.45Z"/><path fill="#120000" fill-opacity=".004" d="M1178.25 646.55q2.3.05 4.45.35l2.05-4.8q-1.15.7-2.3 1.5-2.15 1.4-4.2 2.95m-45.35 37.65q.1.4.25.8 1.15 3.75 1.6 4.7 1.15 2.55 3.05 3.5-1.55 1.05-3.75.35-1.75-.55-3.65-2.05-2.7-2.25-5.25-5.2-14.8 3.75-25.9 4.75-18.7 1.65-34.85-3.9-6.6-2.25-12.05-5.5.3 3.65.45 6.5.25 5.55.15 10.65 15.05.55 28.1 8.3 5.55.55 11.55 1.6 25.35 4.45 48.45 15.2 4.45-3.95 8.55-9.25 8.7-11.25 17.9-32.6l3.85-8.9q-2.1.35-4.5 1-22.35 6.65-33.55 9.9-.2.05-.4.15m-40.85-58.8q-2.95-.05-5.8-1.5l-.3.6q-.45.9-.9 1.75-.45.9-.9 1.75l-1 1.7q-.5.85-1.05 1.7-.7.85-1.35 1.7-.7.85-1.35 1.75-.7.85-1.35 1.75-.65.85-1.3 1.75l-1.3 1.8-1.2 1.8q-.6.95-1.2 1.85-.55.95-1.15 1.9-.5.9-1 1.85-.5.9-.95 1.8-.5.95-.95 1.85-.45.95-.95 1.85-.45.95-.95 1.85-.45.95-.95 1.85-.25.45-.45.85 1.45 1.15 3.05 2.15 13.2 8.2 32.85 5.5 4.3-.6 9.6-1.9-10.75-20.5-16.15-31.6-1.55-3.2-3-6.35M1081.6 580q.15.4.3.85.15-.4.35-.8-.35-.05-.65-.05m-32.2 5.75q-.65.8-1.3 1.55l-.8 1q-.8 11.4-.85 12.85-.5 12.5.9 21.85 1.75 11.6 6.9 20.9 3.05 5.55 7.05 9.75.25-.3.55-.55l1.1-1.1q.5-.6 1.05-1.15.45-.65.95-1.25.45-.7.85-1.35l.8-1.4q.3-.7.65-1.4.3-.75.55-1.5.25-.8.45-1.55.2-.8.35-1.6l.2-1.6q.05-.8.1-1.65l1.1-1.7q.55-.85 1.1-1.75.7-.8 1.4-1.65.7-.85 1.35-1.7.7-.85 1.35-1.7l1.35-1.35 1.4-1.3 1.4-1.3q.7-.6 1.45-1.25.75-.6 1.45-1.2.5-.35 1.05-.65l-.5-.4q-6.25-5.15-7.45-12.85-1-6.6 1.35-14.65.4-1.45 1.05-3.15-2.35-6.65-4.15-12.9-5.1-1.95-9.4-5.8 0 .05-.05.05-.85.65-1.65 1.3-.7.7-1.4 1.35-.75.7-1.4 1.4l-1.4 1.4q-.7.65-1.45 1.25-.8.65-1.55 1.3-.8.6-1.6 1.25-.75.65-1.5 1.35-.75.65-1.45 1.35-.7.75-1.35 1.5m113.95-45.85q-.45-.2-.85-.4l-54.6 74.65q-3.1 4.25-5.1 6.25-1.35 1.35-2.75 2.35 9.3 19.35 20.2 38.1 7.1-2.2 15.65-5.4 19.15-7.15 32.95-8.6.2-.35.4-.75.9-1.9 1.75-3.8.9-2.05 1.75-4.15.85-2.05 1.75-4.1.85-2.1 1.7-4.15l1.4-3.4q.7-1.8 1.3-3.6.65-1.9 1.25-3.8.55-1.95 1.1-3.85.35-.85.7-1.65.35-.85.65-1.65.35-.85.65-1.7.35-.95.65-1.85.25-.95.5-1.95l.4-1.9q.15-1 .25-2l.1-2v-2.05l.1-1.3.1-1.3q.15-1.05.25-2.15.4-3.3.9-6.55.55-3.4.65-6.85.1-3-.2-6-.3-2.75-.95-5.4-.65-2.65-1.65-5.2-.95-2.5-2.3-4.9-.5-.9-1-1.7l.7-.5q1.1-.8 2.3-1.5 1.15-.7 2.35-1.45 1.2-.75 2.35-1.55l2.3-1.7q.15-.15.35-.3 1.1-.85 2.25-1.65-.35-.45-.7-.8-.9-.9-2.4-1.75-.15-.05-1.35-.7-2.8 1.9-5.6 3.75t-5.5 3.95q-1.3-1.55-2.65-2.95-1.8-1.85-3.7-3.65-1.9-1.85-4-3.55-2.1-1.6-4.4-2.9m24.1 273.9q3.65-10.1 1.6-21.8-.6-3.4-1.6-6.7L1159 842.8q-1.8 3.65-3.3 6.5 9.8-6.45 18.6-15.7 9.65-10.3 13.15-19.8m-82.35-88.85q-2.45-.65-4.95-1.25 4.4 5.4 7.4 11.3 8.9 0 13.5-.95 3.1-.6 6.05-1.65-10.7-4.45-22-7.45m222.15 202.95.7-2 .7-1.5.8-1.7q-10.1-16-20.35-37.7-12.95-28.8-19.5-43.15-11.65-25.6-21.5-42.05-2.9-4.85-9-14.35-5.35-8.3-8.2-13-8.05 7.2-17.2 11.25 1.9 7.5 4.55 13.5 4.3 9.8 11.15 16.8 7.5 7.75 16.7 10.6-19.65-1.8-35.5-18.65-7.4-7.9-12.85-17.65-11.25 1.55-19.65-2.35.1.95.15 1.95 1 13.1-4.75 26.8-5.15 12.2-14.95 23.45-12.6 14.4-28.5 23.15-3.3 1.85-6.85 3.5h-.05q-.046.032-.1.05-2.55 1.818-5.4 2.85 2.55 2.75 5.45 5.25 3.8 3.25 7.8 6.25 3.75 2.85 7.65 5.45.15.05.3.15.2.1.45.2.3.15.6.25l.8.4.9.4q.5.2 1 .45l1.1.5 1.2.5q.6.3 1.25.55.65.3 1.25.55l1.3.6q.65.25 1.35.5.6.3 1.25.55l1.3.5q.6.25 1.2.45.55.2 1.15.4.5.2 1.05.35.5.15.95.3.85.2 1.7.45.9.2 1.8.35.9.2 1.85.35.95.2 1.9.35 1 .15 2 .25 1 .15 2 .25-.85 2.65-1.25 5.35-.5 3.1-1.25 6.15-.7 2.7-1.35 5.4-.6 2.55-1.05 5.1-.45 2.55-.9 5.05-.5 2.8-.9 5.6-.4 2.85-.6 5.8-.2 2.75-.05 5.6.2 3.05.5 6.05.35 3.3.7 6.5.35 3.25.7 6.1l-.1-.45v.35q.05.45.05.9.1.7.15 1.4.1.9.15 1.8.15 1.05.25 2.1.1 1.15.25 2.3.15 1.25.3 2.45.15 1.2.35 2.4.15 1.2.35 2.35.2 1.1.4 2.15.15.95.4 1.9.15.75.45 1.5.45 1.25.95 2.55.8 1.95 1.6 3.95.85 1.95 1.65 3.95l1.7 3.9q.85 1.95 1.7 3.95.65.8 1.3 1.65l1.3 1.7 1.3 1.7 1.3 1.7 1.3 1.7 1.3 1.7q.7.85 1.35 1.7.65.85 1.3 1.65 1.3 1.4 2.7 2.75 1.35 1.35 2.85 2.6 1.45 1.25 3 2.4t3.15 2.25l3.2 2.2q1.6 1.1 3.25 2.1 1.65 1.1 3.35 2.1 1.7.95 3.5 1.85 1.8.9 3.6 1.65 1.85.8 3.75 1.5 1.85.65 3.75 1.25 1.9.55 3.8 1.05 1.05.3 2.15.5 1 .25 2 .45l1.9.4q.9.15 1.75.3l1.7.2 1.6.2q.75.05 1.5.15.75 0 1.5.05h1.4q.95 0 1.85-.05.95 0 1.9-.1.9-.05 1.85-.15 1-.1 1.95-.2.95 0 1.9.05.9 0 1.8.05 3.7-.2 7.45-.5 16.9-1.4 31.4-10.2 10-6.05 16.6-15.7 3.9-5.6 6.5-11.95 2.7-6.55 3.7-13.65 1.15-8.25 0-16.4-1.1-8.1-4.45-15.55-3.15-7.1-8-13.15.25-.85.5-1.75.25-.85.55-1.75l.6-1.7q.3-.9.65-1.75.35-.85.65-1.75.35-.85.65-1.75m-9.4 33.2q-.044.131-.05.25.005-.164.05-.3v.05m-.1.75q-.044.175-.05.3.005-.17.05-.35v.05m.05-.4q-.044.175-.05.3.005-.17.05-.35v.05m-.15 1.05q.004-.117.05-.3v.05q-.044.175-.05.25m137.2-192.35q1.666 8.578 2.4 17.15.674-.606 1.35-1.2 1.4-1.25 2.95-2.3 1.85-1.2 3.45-2.75 1.6-1.5 3.15-3 1.25-1.2 2.45-2.45 1.5-1.5 2.55-3.4 1.2-2.05 2.55-4 .3-.35.6-.65l.65-.65q.3-.25.65-.5.65-.45 1.3-.95.6-.5 1.2-1.05.65-.55 1.25-1.2.6-.65 1.2-1.35.6-.7 1.1-1.45.55-.7 1.05-1.5l.9-1.5q.45-.75.85-1.5l.9-1.5q.45-.8.9-1.55v.9q-.05 1.3-.05 2.65v2.7q0 1.35-.05 2.7v3.6q-.05.9-.05 1.8v1.85q-.05 1.4.05 2.75.05 1.35.25 2.65.15.9.35 1.75.15.4.25.8.2.4.35.75l.4.7q.2.35.45.7v.75q.05.4.05.8t.05.75q.05.35.05.7.05.5.15 1 .05.5.15.95.05.5.15 1l.3.9.4.9q.15.45.35.85l.6.8q.3.4.6.75.3.4.65.8.3.25.65.55.35.25.7.55.35.3.7.55.3.3.65.55.35.3.7.55.35.25.75.5.35.25.75.45.35.15.7.35l.7.3.7.2q.4.1.75.2t.75.15q.35.05.75.1t.8.05h1.55q.4 0 .8-.05l.8-.1q.4-.1.8-.15.35-.15.75-.25.35-.15.7-.25.4-.15.75-.3.4-.1.8-.25.35-.15.75-.3.4-.1.8-.25.35-.15.75-.35.35-.15.75-.3l.7-.4q.35-.25.7-.45.3-.25.65-.5.3-.25.65-.5.3-.3.6-.55.3-.25.6-.55.3-.25.6-.55.3-.25.6-.55l.7-.3.7-.3.7-.4q.3-.2.65-.45.3-.25.65-.5l.6-.5q.3-.25.55-.5l.6-.5q.3-.25.6-.55.3-.25.55-.55.35-.25.65-.5.3-.2.6-.45.25-.25.55-.5.3-.2.55-.45l.55-.55q.25-.25.5-.55.25-.3.5-.55.2-.3.5-.55l.5-.5q.4-.3.75-.6.4-.25.8-.55.4-.3.75-.6.4-.3.75-.6.4-.3.75-.6.3-.25.55-.5l.6-.5q.25-.2.55-.45.35-.2.7-.45.4-.2.8-.35.3-.15.6-.35l.6-.3q.4-.2.75-.45.4-.25.75-.5.35-.2.75-.45.35-.25.7-.45.4-.25.8-.45.3-.2.65-.35.35-.2.65-.4.35-.15.7-.35.35-.15.65-.35l.8-.4.8-.4q.4-.2.85-.4.4-.2.8-.35l.8-.4q.35-.15.7-.25.35-.15.75-.25.35-.15.7-.25.3.15.55.3.25.15.55.3.25.2.5.3l.5.3q.3.4.6.75.3.4.6.75t.6.75l.6.7q.3.4.55.75.15.2.3.45.15.2.25.45.15.3.3.65l.3.6.4.7q.2.3.45.65.2.3.45.65.25.3.45.6l.5.6q.3.4.55.85.25.4.45.85.1.2.15.45v.4q0 .4.05.8v.8q.15 1 .25 1.95.15.95.3 1.95l.4 1.8q.2.85.45 1.7t.5 1.65.5 1.65q.2.8.45 1.55l.5 1.6q.25.75.5 1.55.3.8.55 1.6l.1.9q.05.5.1.95.05.5.1.95.05.45.1.85.05.45.1.85.1.45.15.85.05.4.15.85.1.4.25.8.1.4.25.75.15.4.35.8.15.35.35.75l.4.7q.55 1.05 1.3 2.05 1.05 1.35 2 2.75t1.9 2.85l1.9 2.9q.8 1.35 1.6 2.8.8 1.4 1.8 2.65.75.95 1.6 1.8.9.85 1.8 1.6 1 .75 2 1.4 1.35.85 2.8 1.45 1.4.65 2.8 1 .75.45 1.45.9 1.45.9 3.05 1.55 1.55.7 3.2 1.15 1.7.5 3.4.85t3.5.5q1.85.15 3.7.15h6.9q1.75-.05 3.55-.05h3.7q1.7 0 3.5.05 4.8.2 9.5-.8 4.65-.95 9.2-2.2 4.8-1.35 9.7-2.4 5.3-1.2 10.3-3.25 5.05-2.05 10.05-4.25 5-2.2 10.1-4.25 4.6-1.9 9.15-3.85 4.026-1.674 8.05-3.35l.25-.1.35-.15q.126-.048.25-.1l.7-.2q.35-.15.65-.3.35-.15.65-.35l.6-.4q.3-.2.55-.4.3-.25.55-.5.25-.3.45-.6.2-.25.45-.55.2-.3.45-.55.15-.4.35-.75l.3-.8q.15-.4.25-.8.05-.4.15-.8.05-.45.05-.85v-.85l-.1-.8q-.1-.45-.2-.85l-.2-.7q-.15-.3-.3-.65-.15-.3-.3-.65l-.4-.6q-.25-.25-.45-.55-.25-.25-.5-.55l-.5-.5-.6-.4-.6-.4q-.3-.2-.6-.35l-.7-.3-.7-.2q-.4-.1-.75-.2l-.8-.1q-.35-.05-.75-.05h-.75q-.35.05-.75.15-.3.1-.65.2l-1.8.7-8.1 3.1q-4.5 1.7-9 3.45-4.5 1.75-9 3.55-4.35 1.75-8.65 3.65-3.85 1.7-7.95 2.55-3.95.85-7.9 1.8-3.6.9-7.25 1.75-3.95 1-7.85 1.8-1.35.05-2.75.05-1.35 0-2.75-.05l-2.7-.1q-1.5 0-2.95-.05h-5.8q-1.4-.05-2.75-.05-1.4 0-2.75-.05-1.4-.05-2.7-.15-.4-.05-.8-.15-.35-.1-.75-.2-.35-.1-.75-.2-.35-.1-.75-.25-.35-.1-.75-.25-.4-.25-.8-.45l-.8-.5-.8-.5q-.4-.25-.85-.45-.35-.2-.75-.35-.35-.2-.75-.35-.4-.15-.75-.3-.4-.15-.8-.25-.4-.15-.8-.25-.35-.25-.65-.45-.15-.1-.25-.2-.35-.7-.75-1.4-.4-.65-.8-1.35-.25-.4-.55-.8-.25-.4-.55-.8-.25-.4-.5-.75l-.5-.8q-.25-.35-.5-.75t-.5-.75q-.45-.7-.95-1.35l-.9-1.3q-.5-.7-1-1.35-.5-.65-.95-1.35-.3-.5-.55-1l-.1-1q-.05-.45-.1-.95-.05-.5-.1-.95-.05-.5-.15-1-.05-.45-.15-.95-.1-.45-.2-.85-.1-.4-.25-.8-.15-.45-.3-.85l-.3-.8q-.1-.35-.25-.75-.1-.35-.25-.75-.1-.35-.2-.75-.15-.35-.25-.75-.15-.4-.25-.8-.15-.45-.3-.85-.1-.4-.25-.85l-.3-.8-.2-.8q-.15-.4-.25-.8-.1-.35-.2-.75l-.2-.8q-.05-.4-.15-.8-.05-.45-.05-.85-.05-.45-.05-.9l-.1-.9q-.05-.45-.1-.85l-.1-.9q-.1-.45-.2-.85-.05-.45-.2-.85-.1-.45-.2-.85-.15-.4-.35-.85l-.3-.7q-.15-.4-.3-.75t-.35-.7l-.3-.7-.4-.7q-.2-.35-.4-.65-.25-.35-.45-.65-.25-.35-.5-.65-.2-.3-.45-.65l-.5-.6-.5-.6-.3-.6q-.2-.3-.35-.65l-.3-.6q-.15-.3-.35-.6l-.5-.7q-.25-.3-.5-.65-.25-.35-.5-.65l-.5-.7q-.25-.3-.55-.65-.25-.3-.55-.65-.3-.35-.6-.65l-.6-.7q-.25-.4-.5-.75-.3-.4-.6-.75-.25-.35-.55-.7-.25-.3-.55-.6-.25-.25-.55-.5l-.6-.5-.7-.4q-.3-.2-.55-.35l-.6-.3-.6-.3q-.4-.25-.8-.45-.35-.25-.75-.45l-.8-.4-.8-.4q-.4-.2-.8-.35-.4-.2-.75-.35-.4-.15-.75-.3-.4-.15-.75-.3-.4-.15-.75-.25-.4-.1-.8-.15l-.8-.1-.8-.1-.8-.1h-.8l-.8.1-.8.1-.8.1q-.35.05-.75.15-.9.25-1.75.5-1.3.4-2.55.9-1.25.5-2.5 1.05l-1.5.7q-.7.3-1.35.6l-1.5.8q-.9.45-1.75.9t-1.65.95l-1.6 1q-.8.5-1.6.95l-1.3.7-1.3.7q-.3.15-.6.35l-.7.5q-.3.25-.65.5l-.7.5q-.3.25-.65.55-.3.25-.65.5-.3.3-.65.55-.3.3-.65.6-.3.25-.6.55-.35.3-.65.6-.4.25-.75.5t-.7.55-.7.55-.7.55q-.3.25-.55.5l-.5.5q-.25.3-.5.55-.2.3-.45.55-.25.25-.5.55-.25.25-.55.5-.25.25-.55.5l-.6.5q-.25.25-.55.45-.3.25-.55.5-.3.3-.6.55-.25.3-.55.55-.3.15-.65.3-.35.15-.65.3-.4.25-.8.45-.35.25-.75.5l-.7.6q-.35.3-.65.6-.25.2-.5.3l-.05-.15q-.05-.4-.15-.8-.1-.35-.2-.75l-.3-.7q-.15-.4-.3-.75l-.3-.7q-.2-.35-.35-.7-.1-.2-.25-.4-.1-1.95-.05-3.9v-5.7q-.05-2.8-.05-5.65-.05-2.95-.05-5.95-.05-3-.05-5.95 0-2.45-.05-4.9 0-2.45-.05-4.9-.05-2.2-.1-4.3-.05-2-.4-4-.1-.35-.2-.65-.1-.35-.25-.65-.2-.3-.35-.6-.25-.35-.5-.65-.25-.35-.5-.65-.25-.3-.5-.65l-.45-.45q-.25-.25-.55-.45-.25-.15-.55-.3l-.6-.3q-.35-.15-.65-.25-.3-.15-.6-.25-.35-.15-.65-.25-.4-.1-.85-.2-.4-.05-.85-.1h-.85q-.4.05-.85.1-.4.1-.85.2l-.7.2-.7.3q-.35.2-.7.35-.35.25-.7.45-.3.2-.65.45-.25.25-.55.5-.25.25-.5.55-.25.3-.5.65-.25.3-.5.65-.25.3-.5.65-.2.3-.45.65l-.4.7q-.25.35-.5.75t-.45.75l-.65.65-.6.7q-.25.25-.45.55-.25.3-.4.55-.2.25-.35.5l-.3.5q-.15.3-.3.55-.15.3-.25.65l-.3.7q-.15.3-.25.65-.15.35-.25.7l-.2.7q-.1.35-.2.75-.25.3-.45.6-.5.65-.95 1.3l-.9 1.3q-.4.65-.8 1.35-.35.7-.8 1.35-.4.75-.85 1.45-.5.75-.95 1.5-.5.8-.95 1.65-.5.8-.95 1.6l-.9 1.6q-.45.75-.9 1.55t-.9 1.55q-.3.3-.55.65l-.6.6q-.3.3-.6.55-.3.25-.65.45-.3.25-.65.5-.3.2-.6.45-.35.25-.65.5-.25.3-.55.55-.3.35-.6.65-.3.35-.55.7l-.6.7q-.25.35-.55.7-.25.35-.55.7-.25.35-.5.65-.25.35-.45.7l-.5.7q-.25.35-.45.75-.25.35-.45.7t-.35.7q-.2.3-.4.65-.2.3-.4.65l-.55.55q-.3.25-.6.55-.3.25-.55.5-.3.3-.6.55-.3.3-.55.6-.3.3-.55.6-.25.3-.55.6-.25.3-.55.6-.21.293-.45.5m49.05 7.75q.15-.1.35-.15l-.1.05q-.1.05-.25.1m.55-.25-.05.05q-.041.014-.1 0 .11-.011.15-.05M1395.7 790.6l.3-1.2q-2.4 1.8-4.95 3.1-.3 1.55-.45 3.1-.3 3.2-.35 6.4l-.1 6.8q-.1 3.4-.15 6.8 0 2.85-.1 5.7 0 1.2-.05 2.35 0 1.7-.05 3.35-.05 2.85-.15 5.65-.05 2.75-.2 5.45-.05 1.05-.05 2.05.05 1.75.25 3.5l.2.9q.15.3.25.6l.3.5q.2.3.35.55.2.25.35.5.2.35.35.7l.4.7q.15.35.35.7.25.35.5.75t.5.75q.25.4.55.75.3.4.55.75.3.35.65.65.25.3.55.55.25.3.55.55.3.25.6.45l.7.4q.4.15.75.35.4.1.75.25.3.05.65.15.35 0 .7.05.35-.05.7-.05.3-.05.65-.15l.6-.2.6-.3q.25-.2.55-.35l.7-.2q.35-.05.7-.15l.7-.2.7-.2q.3-.15.65-.3.3-.15.65-.3.25-.25.55-.45l.5-.5q.2-.3.45-.6l.5-.6.5-.6q.25-.25.5-.55.3-.3.55-.6.3-.3.55-.6.25-.3.55-.65l.5-.6q.25-.3.5-.65.25-.3.45-.65.25-.35.45-.7l.4-.7q.15-.35.35-.7.2-.35.45-.7t.55-.65q.25-.35.55-.7l.5-.7q.3-.35.5-.7.25-.4.5-.75.2-.4.45-.75.15-.3.3-.65.2-.3.35-.6.15-.3.3-.55v.15q-.05.4-.05.85v1.75q-.05.45-.05.85v.9q0 .45-.05.9v1.85l.1.9q0 .35.05.65.05.4.1.75 0 .35.1.75.05.35.15.7l.2.7q.1.35.25.7.15.3.3.65.15.35.25.7.15.4.25.85.1.4.2.85.1.4.15.85.1.4.2.85.1.4.25.85.1.4.25.85.15.4.3.85.2.4.35.85l.4.8q.15.4.35.85.2.4.35.8l.4.8q.2.4.45.8.2.3.45.65.25.3.55.65l.6.6q.3.25.65.5.3.25.65.45.35.2.7.35.3.2.65.35l.7.3q.4.15.75.25l.8.2q.4.05.75.15l.8.1q.45.05.85.1l1 .1q.45.05.95.1.5.05 1 .05l.8.1q.35 0 .75.05.4-.05.8-.05t.8-.05q.45-.05.85-.1l.8-.1q.4-.05.85-.1l.8-.2q.35-.1.7-.25.75-.3 1.5-.65 2.3-1.05 4.15-2.65 2.05-1.75 3.95-3.6.9-.9 1.85-1.75-.8-8.55-2.45-17.1-.05 0-.1.05l-.6.6-1.5 1.1q-.7.55-1.45 1.15-.4.3-.75.55l-.7.6-.7.6q-.3.25-.65.55-.3.3-.6.65-.6.6-1.25 1.2-.6.65-1.2 1.25-.65.6-1.25 1.25l-1.3 1.2q-.65.6-1.3 1.15-.25.2-.5.3-.15.1-.3.1-.4.05-.8.05h-2.4q-.2-.35-.35-.75-.15-.4-.25-.85-.1-.45-.25-.9-.1-.4-.2-.85-.15-.45-.25-.85l-.3-.9q-.15-.4-.35-.8-.15-.45-.35-.85l-.4-.8q-.05-.3-.15-.6l-.1-.6q-.05-.45-.05-.9v-.95q-.05-.5-.05-1v-7.45q0-.45.05-.95v-.9q.05-.45.05-.95l.1-.9.2-.9.3-.9q.1-.4.25-.8.1-.4.25-.8l.2-1q.1-.45.15-.95l.2-1q.05-.45.1-.95.1-.5.15-1 .05-.4.05-.8 0-.45.05-.85v-2.45q.05-.45.05-.9t.05-.9q.05-.4.05-.85.1-.45.25-.85.25-.8.5-1.65.25-.8.45-1.6.2-.85.35-1.65.15-.85.2-1.75.1-.85.15-1.7.05-.95 0-1.85v-3.9q.05-1 .05-2l.1-2q.15-.4.25-.85.1-.4.25-.8-2.45-5.1-5.25-10.2l-2.5-4.6q-.05 0-.05.05-.2.3-.35.65-.15.3-.3.65l-.3.7q-.15.35-.25.65l-.3.7q-.2.4-.35.75-.2.4-.35.8-.2.35-.35.75-.15.4-.25.8l-.2.8q-.1.4-.15.8-.1.4-.15.8l-.1.8q-.05.45-.1.85 0 .35-.05.7v.7q0 .35-.05.7-.1.35-.15.75-.1.35-.15.7-.05.4-.1.75-.1.4-.15.8 0 .35-.05.75-.05.35-.1.75t-.05.75l-.3.8q-.4 1.1-.7 2.25l-.6 2q-.1.2-.15.4-.45 1.25-.85 2.55-.4 1.25-.65 2.6-.3 1.3-.65 2.6-.4 1.3-.85 2.5-.4 1.2-.75 2.35-.35 1.2-.75 2.35-.4 1.15-.85 2.3-.4 1.15-.75 2.35 0 .05-.05.15-.3 1.05-.65 2.15-.2.35-.35.7-.2.35-.35.65l-.4.7q-.2.35-.4.65-.25.35-.45.7-.25.3-.45.65-.25.3-.45.65-.2.35-.35.75-.2.35-.35.7l-.3.8q-.15.4-.25.75-.1.45-.25.9-.1.45-.25.85-.2.4-.4.85-.2.4-.45.8-.2.4-.45.75l-.5.8q-.3.3-.55.65-.25.3-.5.65l-.5.7q-.2.35-.35.75l-.4.8q-.2.4-.4.75-.2.4-.45.75-.25.4-.5.75-.3.4-.6.75-.3.4-.6.75-.3.4-.6.75-.35.4-.6.8-.3.35-.6.75-.4.1-.75.25-.35.1-.75.25-.35.1-.7.25-.25.1-.5.25-.25.1-.4.05-.35-.1-.65-.35-.3-.3-.55-.6-.3-.3-.55-.6l-.4-.6q-.25-.35-.45-.65-.2-.35-.4-.65l-.4-.6q-.25-.35-.45-.6-.25-.3-.45-.6h-.05q-.2-1.5-.25-3 0-1.5-.05-3 0-1.65-.05-3.3l-.1-6.2q-.05-2.85-.15-5.7v-.45q-.1-2.7-.15-5.35l-.1-5.85-.1-4.6q-.05-2.7-.05-5.4-.05-2.85.25-5.65l.2-.8q.3-1.25.65-2.5m43.6-92.15q-.4-.15-.75-.25-.45-.05-.85-.1h-.8q-.4.1-.8.15-.35.15-.65.25l-.6.3q-.3.15-.55.35-.25.2-.5.45t-.45.5q-.2.25-.4.55l-.3.6q-.1.35-.2.65-.05.35-.15.65 0 .35-.05.7v.05q0 .45-.05.85 0 .45-.05.85v.9q-.05.4-.05.85-.05.45-.05.85-.05.3-.15.55-.05.3-.1.55-.181.317-.35.6l2.55 4.65q2.79 5.091 5.25 10.2l.3-.8.3-.8q.15-.4.25-.75.1-.4.2-.85l.2-.9q.05-.45.15-.95l.1-.9q.1-.5.15-.95.05-.45.1-.95l.2-.8.3-.8q.1-.35.25-.75t.25-.8.25-.8l.2-.9q.1-.45.15-.9.1-.5.15-.95l.1-.9q0-.45.05-.95-.05-.45-.05-.9t-.05-.85q0-.4-.05-.8 0-.45-.05-.85 0-.4-.05-.8-.05-.45-.1-.85l-.1-.8q-.1-.35-.2-.65l-.3-.6q-.2-.25-.35-.55l-.5-.5q-.25-.25-.5-.45t-.55-.35q-.35-.2-.75-.35m-125.05 32.8q-9.15-.75-15.4-6.7-4.35 2.65-9.1 6.75.3.55.6 1.15 3.35 6.65 15.4 26.25 12.35 20.1 23.05 40.75 5.3 1.1 10.85 4.7 4.15 2.75 9.45 7.7 8.5 7.95 17.1 17.8.3-1.2.55-2.45 2.15-4.4 3.35-9.1.5-1.95.95-3.95h.05l.8-.1.8-.2q.35-.1.75-.25.35-.15.75-.3.35-.2.7-.35.35-.25.7-.45.3-.25.65-.5.3-.25.55-.55l.6-.6.5-.7q.25-.4.45-.75.2-.4.4-.75.15-.45.3-.85.1-.4.25-.8.05-.45.15-.85l.1-.9v-.85q-.05-.4-.05-.85.15-.35.3-.75.15-.35.3-.75t.25-.75q.15-.45.3-.85.1-.45.25-.9.1-.4.3-.85.1-.2.2-.45.2-.35.4-.75l.4-.8.3-.8q.2-.4.35-.8l.05-.05q-4.75.75-9.85-.2-8.45-1.55-14.45-7.1-6-5.6-8.2-13.9-2.2-8.3.25-16.1-9.1-3.5-14.8-12.1-5.65-8.65-5.25-18.35-7.15 4.75-16.35 3.95m121.9-64.1q-4.562-.895-8.8-3.35-3.2 6.05-7.2 17-.01.025-.05.05 2.923-2.487 6-4.65 2.75-1.95 5.2-4.3 2.407-2.364 4.85-4.75Z"/><path fill="#999" fill-opacity="0" d="M688.65 440.25q.2-.65.4-1.25-.85.35-1.7.8-6.45 3.25-12.8 6.6-1.25.65-2.45 1.4.75.75 1.55 1.6 3.45-2.1 7.05-3.9 3.6-1.85 7.4-3.2.25-1.1.55-2.05M1389.8 827q.05-1.65.05-3.35-1.05.65-2 1.35-1.55 1.1-3.2 2.05-1.55.95-3.2 1.7-1.25.6-2.5 1.35-1.35.8-2.7 1.65-1.35.8-2.75 1.55-1.4.8-2.8 1.55-.05.05-.1.05 1.15 1.35 2.25 2.75 3.2 3.95 6.6 8.45 5.05-2.85 9.95-5.95 0-1 .05-2.05.15-2.7.2-5.45.1-2.8.15-5.65m29.25-24.15q-.65.5-1.3.95-.4.35-.85.65-.55.4-1.15.8-.55.4-1.15.8-.55.4-1.1.85-.55.45-1.05.9-.55.45-1 .95l-1 1.1q-.5.55-.95 1.1l-1 1.1-1 1.1q-.5.55-1 1.05l-.7.4q-.35.2-.65.4l-.7.4q-.3.2-.55.4-.3.15-.6.35-.3.2-.55.4-.3.2-.55.4l-.6.4-.6.4q-.3.2-.55.4-.3.2-.6.35-.3.2-.65.35-.3.15-.6.35-.3.15-.65.3l-2.2.9q-.4.15-.75.35v.45q.1 2.85.15 5.7l.1 6.2q.05 1.65.05 3.3 4.05-2.5 8.3-4.65 5.5-2.8 10.15-6.8 1.55-1.35 3-2.75.05-.1.05-.15.35-1.2.75-2.35.45-1.15.85-2.3.4-1.15.75-2.35.35-1.15.75-2.35.45-1.2.85-2.5.35-1.3.65-2.6.25-1.35.65-2.6.4-1.3.85-2.55.05-.2.15-.4-.1-.05-.2-.05h-1.3q-.35.05-.65.1-.35.1-.65.2-.3.1-.6.25l-.6.3Z"/></g></defs><use xlink:href="#a"/></svg>