
<svg xmlns="http://www.w3.org/2000/svg" version="1.1" xmlns:xlink="http://www.w3.org/1999/xlink" preserveAspectRatio="none" x="0px" y="0px" width="1920px" height="1080px" viewBox="0 0 1920 1080">
<defs>
<g id="Layer0_0_FILL">
<path fill="#120000" stroke="none" d="
M 1049.55 590.05
Q 1039.85 589.3 1032 592.65 1028.85 594 1025.25 596.4 1023.1 597.85 1018.95 601 1010.25 607.65 1006.7 611.25 995.8 622.35 990.8 639.45 986.45 654.4 987 672.4 987.75 697.75 996.75 716.55 1002.4 728.3 1011.3 737.6 1020.5 747.2 1031.85 752.8 1043.5 758.55 1056.5 759.65 1069.75 760.75 1081.8 756.75 1091.95 753.35 1101.8 746.1 1119.5 732.95 1128.05 712.2 1136.9 690.9 1132.4 670.1 1128.5 652.35 1114.15 633.2 1093.2 604.95 1067.2 594.45 1058.05 590.75 1049.55 590.05
M 1074.05 613.3
Q 1090.8 623.65 1104.3 640.8 1117.8 657.95 1122.55 674.5 1125.35 684.15 1125.3 693.6 1125.2 703.7 1121.9 712.45 1117.95 722.8 1109.6 731.15 1101.6 739.15 1091 743.85 1078.95 749.2 1065.65 749.4 1052.1 749.65 1040.2 744.5 1024.4 737.75 1012.6 722.55 1001 707.55 996.3 687.65 991.9 668.75 994.4 648.8 997.55 623.8 1011.1 612.5 1014.8619140625 609.3650390625 1018.75 607.95 1019.5291015625 607.705078125 1020.3 607.5 1025.25 606.3 1030.75 607.9 1035.8 609.35 1040.25 612.85 1044 615.75 1047.75 620.35 1050.05 623.2 1054.05 629 1053.7 620.3 1048.8 612.65 1043.85 604.95 1036.05 601.05 1055.4 601.8 1074.05 613.3
M 1039.5 713.15
Q 1038.75 713.05 1038.25 712.65 1038.0029296875 712.4646484375 1037.9 712.25
L 1037.9 714
Q 1042.55 719.4 1050.75 721.6 1057.55 723.4 1066.3 722.85 1084.05 721.7 1095 713.55 1101.35 708.85 1104.9 701.95 1108.65 694.7 1107.95 687.3 1105.8 696.7 1097.55 703.85 1089.9 710.4 1079.6 713.05 1070.8 715.3 1059.65 715 1052.25 714.8 1039.5 713.15
M 1022.5 644.55
Q 1022.666015625 644.5259765625 1022.8 644.45 1022.595703125 643.8173828125 1022.4 643.15 1022.4595703125 643.878515625 1022.5 644.55
M 1038.45 661.25
Q 1038.2 660.25 1037.35 658.2 1036.5 656.25 1036.25 655.15 1036.2 654.9 1035.95 652.55 1035.75 651 1035.3 650.1 1034.45 648.4 1032.35 647.9 1030.3 647.35 1028.75 648.5 1027.2 649.6 1027 651.75 1026.8 653.85 1028.1 655.25 1028.5 655.6 1029.3 656.3 1029.95 656.9 1030.15 657.5 1030.3 657.95 1030.2 658.55 1030.2 658.9 1030.1 659.55 1029.9 661.5 1031.1 664.9 1032.4 668.55 1032.45 670.2 1032.5 671.85 1031.7 674.65 1030.8 677.8 1030.7 679.1 1030.6 680.55 1031.15 681.4 1031.5 681.9 1032.1 682.15 1032.7 682.35 1033.2 682.1 1034 681.75 1034.3 680.3 1034.9 677.5 1035.3 676.15 1037.1 671.2 1037.85 668.7 1039.2 664.35 1038.45 661.25
M 1065.35 643.45
Q 1064.4 642.6 1063.3 642.85 1062.25 643.05 1061.45 643.95 1060.7 644.8 1060.4 645.95 1059.95 647.35 1059.8 650.35 1059.65 651.75 1059.1 654.5 1058.85 656.9 1059.6 658.45 1060 659.2 1061.05 660.35 1062.2 661.6 1062.6 662.25 1063.05 663 1063.6 664.7 1064.1 666.4 1064.55 667.15 1065.5 668.75 1068.45 670.6 1071.8 672.65 1073.5 671.45 1071.95 670.7 1070.7 667.7 1069.1 663.5 1068.75 661.8 1068.5 659.7 1068.35 658.65 1068.05 656.8 1067.4 655.7 1067 655 1065.8 653.7 1064.65 652.5 1064.25 651.7 1063.7 650.55 1063.55 648.15 1063.35 645.65 1062.9 644.6 1064.6 644.3 1066.05 645.35 1066.35 644.3 1065.35 643.45
M 1031.05 427.45
Q 1029.65 430.15 1029.45 433.9 1029.3 436.55 1029.75 440.65 1032.05 460.9 1041.55 486.95 1047 502 1059.3 531.7 1063.15 541.55 1064.05 543.8 1066.9 550.6 1069.55 555.6 1076.65 568.6 1086.3 575.15 1088.3 576.55 1090.4 576.75 1092.85 576.95 1093.7 575.2 1091.5 575.6 1089.75 571.85 1087.6 567.4 1083.7 560.8 1078 551 1077.35 549.85 1073.35 542.65 1069.2 533.45 1066.35 527.25 1061.95 516.6 1053.8 497.25 1050.15 487.85 1043.85 471.7 1039.95 458.5 1037.2 449.35 1032.7 430.75 1032.65 430.45 1033.05 430.25
L 1033.05 430.25
Q 1031.633984375 429.153515625 1031.05 427.45
M 918.05 675.75
Q 915.5 682.4 915.6 691.8 915.6 694.1 916.7 708.4 917.55 719.4 917.2 733 916.95 741.85 915.95 757.6 911.041015625 833.390234375 901.7 912.1 898.6673828125 912.86953125 895.25 913.75 879.55 917.8 871.05 918.8 854.2 920.75 844.6 914.15 836.3 908.45 832.15 895.75 828.15 883.45 829 867.55 829.55 856.35 833.1 838.95 838.05 814.35 843.8 798.1 851.4 776.4 862.85 761.05 868.6 753.4 874.1 750.5 877.7 748.65 881.6 748.6 885.8 748.55 888.9 750.65 892.05 752.85 895.15 759.2 898.5 766.15 900.8 768.4 899.55 765.6 898.7 756.6 898 749.1 895.05 745.8 892.75 743.2 888.9 742.25 885.4 741.35 881.55 742.05 874.6 743.3 868.15 748.85 863.1 753.2 857.95 760.6 846.75 776.85 838.8 798.65 832.5 815.95 827.25 839.95 823.55 856.75 822.5 868.3 821.1 883.9 823.55 896.65 825.35 905.95 829.3 912.95 833.9 921.05 840.9 925.05 846.65 928.35 854.65 929 858.113671875 929.317578125 862.45 929.1 860.9140625 930.5322265625 859.4 932.1 853 938.75 846.05 949.9 839.25 960.85 835.35 969.95 830.55 981.25 829.35 991.65 828.5 999.3 829.65 1006.25 830.95 1013.85 834.65 1019.8 839.05 1026.9 845.3 1029.35 847.85 1030.35 851.25 1030.75 853.4 1031 857.35 1031.1 864.4 1031.3 868.15 1031.15 874.1 1030.85 878.75 1029.7 884.85 1028.15 891.6 1024.25 895.95 1021.8 903.4 1016.5 899.95 1016.05 895.2 1017.15 889.8 1018.7 887.1 1019.35 882.1 1020.6 875.7 1021.1 871.65 1021.4 864.1 1021.5 859.15 1021.6 856.45 1021.3 852.25 1020.9 849.15 1019.4 842.3 1016.1 838.5 1007 836.15 1001.4 835.55 995.35 834.7 986.65 837.65 976.75 840.05 968.85 845.15 959.25 856.1939453125 938.625 870.05 928.5 887.6919921875 926.379296875 900.65 920.7 900.34453125 923.50078125 900 926.3 898.5 938.3 898.2 944.25 897.7 954.3 899.25 962.1 901.2 957.7 902.6 951.95 903.55 948 904.6 941.4 906.3583984375 930.326171875 907.95 917.05 914.3900390625 913.3173828125 919.4 908.5 915.2400390625 909.0564453125 908.7 910.5 908.8541015625 909.1837890625 909 907.85 910.1 897.45 912.3 874.2 916.2 831.55 917.75 812.5 920.6 778.05 922 750.7 923.25 727.45 922.8 712.95 922.1 692.25 918.05 675.75
M 969.2 488
Q 967.25 480.5 965.2 475.45 961.5 466.35 955.7 461.65 952.85 459.45 951.05 460.65 949.25 461.85 950.45 465.75 950.6 463.9 951.25 462.5 956.25 471.45 959.5 480.65 963.4 491.75 966.5 508.4 968.15 517.25 970.2 530.1 972.5 544 972.8 551.05 972.95 554.15 973.05 560.35 973.25 565.9 973.95 569.65 974.35 571.9 975.55 576.25 976.75 580.6 977.15 582.8 977.75 586.4 977.75 590.05 980.35 584.5 981.25 578.7 981.95 574.1 981.65 568.1 981.45 565.25 980.65 557.5 978.8 540.6 978.5 538.35 977.45 530.05 974.55 514.1 971.25 495.9 969.2 488
M 905.05 451.2
Q 912.7 450.9 926.1 452.2 927.5 452.3 927.9 452.95 928.15 453.4 927.85 453.95 927.5650390625 454.3572265625 927.2 454.2 928.1818359375 454.6720703125 929.15 453.75 930.2 452.75 930 451.5 929.65 449.55 926.85 447.85 917.8 442.25 906 442.45 894.95 442.6 884.6 447.65 875.45 452.1 866.75 460.25 859.7 466.85 852.05 476.8 851.2 477.95 850.95 479.05 850.7 480.45 851.65 481 852.25 481.35 853.1 481.1 853.4 481.05 854.55 480.55 856.6 479.75 858.85 480.1 861.1 480.4 862.8 481.75 862.75 479.9 861.9 478.2 861 476.5 859.6 475.4 867.05 467.75 871.35 464.15 878.25 458.3 884.85 455.4 893.4 451.65 905.05 451.2
M 1180.95 281.2
Q 1180.75 279.4 1180.05 278.75 1178.65 277.45 1176.9 279.25 1175.5 280.65 1174.5 283.15 1172.1 289.2 1164.75 293.1 1160.45 295.35 1150.6 298.35 1126.7 305.55 1105.3 318.2 1123.25 317.25 1140.55 311.7 1157.85 306.15 1173 296.45 1176.1 316.15 1174.6 335.95 1174.15 341.75 1173.35 345.7 1172.25 350.95 1170.15 354.9 1167.75 359.45 1163.9 362.45 1159.75 365.65 1155.05 366.1 1159.1 368.3 1164.2 367.2 1169 366.15 1172.65 362.65 1178.4 357.15 1181.15 345.8 1184.65 331.8 1184.05 313.7 1183.7 302.5 1180.95 281.2
M 1125.4 369.05
Q 1130.9349609375 382.980859375 1133.85 395 1134.2435546875 395.37734375 1134.6 395.75 1154.75 416.8 1165.1 441.5 1176.1 467.75 1174.75 495.85 1173.35 525.1 1158.7 547.95 1150.5791015625 560.692578125 1137.65 572.15 1138.1228515625 572.76796875 1138.55 573.4 1139.778515625 575.2693359375 1141.3 578.1 1142.575390625 576.916796875 1143.8 575.7 1160.15 559.4 1170.4 539.45 1181.1 518.6 1183.6 496.65 1186.7 469.45 1177.15 441.5 1168.1 414.95 1149.45 392.7 1138.8154296875 380.042578125 1125.4 369.05
M 1091.4 379.8
Q 1085.75 376.1 1078.25 376.15 1071.25 376.2 1064.65 379.45 1054.25 384.55 1044.35 398.25 1040.35 403.8 1039.45 407.65 1038.85 410.4 1039.45 412.95 1040.1 415.75 1042 417.45 1043.35 416.9 1044.9 417.15 1046.4 417.4 1047.55 418.4 1047.5 417 1046.35 415.95 1045.25 414.9 1043.85 414.9 1042.7 409.95 1045.4 404.55 1047.65 400 1052.2 395.75 1059.3 389.1 1066.45 386.9 1070.65 385.6 1074.85 385.9 1079.3 386.2 1082.85 388.25 1084.8 389.35 1088.1 392.3 1091.5 395.25 1093.35 396.35 1097.95 399.1 1103.65 398.6 1109.3 398.15 1113.4 394.65 1107.65 394.8 1101.45 388.95 1098.2 385.75 1096.6 384.15 1093.7 381.3 1091.4 379.8
M 1004.25 179.1
Q 994.95 173.15 987.45 173.25 980.8 173.4 973.1 178.25 961.1 186 952.5 201.25 946.7 211.7 940.75 230.1 936.15 244.3 934.35 253.9 933.252734375 259.85625 932.9 265.35 932.4501953125 263.3978515625 931.9 261.45 927.5 246 918.55 233.05 911.05 222.2 902.95 218.4 897.05 215.6 889.85 215.75 883.2 215.85 876.55 218.45 866.35 222.45 854.15 233.55 828.05 257.3 815.05 286.65 808.2 302.1 805.5 318.4 802.7 335.3 804.65 351.5 806.35 366.05 812.35 374.45 813.4 375.95 814.65 376.75 816.15 377.7 817.5 377.2 815.8 375.95 814.85 373.45 814.2 371.75 813.65 368.75 811.4 356.05 810.5 346.8 809.4 334.85 810.1 324.7 811.9 300.2 825 277 837.35 255.1 857.45 238.25 876.45 222.25 891.4 226.05 901.45 228.65 910.5 241.1 917.05 250.25 921.05 260.8 925.05 271.45 926.15 282.6
L 929.05 312.45
Q 903.30625 322.516015625 882.35 339.8 860.9 357.4 845.95 381.35 845.315625 382.36640625 844.7 383.4 833.8341796875 396.6005859375 825.65 412 812.55 436.6 811.65 457.8 811.6265625 458.32265625 811.6 458.8 801.3126953125 466.6654296875 797.95 468.3 792.4 471.05 786.05 471.75 779.75 472.4 773.75 470.9 766.25 469 758.75 463.65 752.95 459.55 746.05 452.45 738.1 444.25 732.1 436.6 738.4 437.5 746.85 435.5 751.75 434.35 761.45 431.4 764 430.75 769.1 429.45 773.55 428.25 776.55 426.85 782.3 424.15 789.15 417.9 793.15 414.3 795.6 411.25 798.7 407.3 800 403.3 798.05 405.85 794.8 408.2 792.9 409.6 788.7 412.15 780.8 416.95 775.65 419.15 770.7 421.2 760 423.85 754.7 425.15 751.85 425.65 747.25 426.5 743.55 426.6 737.55 426.4 734.6 426.55 729.5 426.8 726.4 428.9 723.7 430.7 722.4 433.9 721.1 437.05 721.75 440.25 722.25 442.65 723.95 445.25 725 446.85 727.35 449.6 734.55 458.2 738.1 462 744.35 468.65 750.1 473.05 759.45 480.25 768.95 482.3 777.3 484.1 786.3 482 794.8 480 802.35 474.9 806.6849609375 471.94921875 812 466.85 812.6017578125 471.0962890625 814.05 474.45 815.8 478.55 818.9 481.45 819.0140625 481.5587890625 819.1 481.65 820.15234375 490.02265625 822.2 498.35 828.7 524.8 844.9 548.65 860.45 571.55 882.85 589.05 898.85 601.6 917.3 610.5 929.89296875 616.625390625 943.1 620.8 943.1630859375 614.9294921875 943.3 608.6 931.94921875 604.533203125 920.9 599 888.45 582.75 864.35 556.7 838.6 528.9 829.3 497.75 824.15 480.6 824.15 462.1 824.1474609375 461.21328125 824.15 460.3 821.553515625 454.998046875 819.35 449.15 819.626171875 446.0212890625 820.15 442.85 822.5201171875 428.3328125 830.3 413.15 826.880859375 422.543359375 824.55 432.3 830.4 424.45 837.05 409.65 845.15390625 391.701953125 848.3 386.2 854.576953125 378.679296875 861.8 371.9 876.5 358.1 894 348.55 900.5 344.95 904.85 344.95 907.05 344.85 908.05 346.05 908.85 347 908.6 349.55 908.35 352.15 909.1 353.15 909.1 351.75 910.5 347.7 911.6 344.4 910.9 342.45 910.3 340.7 908.45 339.7 906.75 338.75 904.75 338.8 903.1 338.8 901.1 339.5 899.8 339.95 897.55 341 885.52734375 346.90546875 874.6 354.9 878.9365234375 351.008203125 883.85 347 902.45 331.7 919.15 323.8 924.271484375 321.3697265625 929.7 319.35
L 931.4 336.55
Q 931.6 338.55 932.5 338.95 933.6 339.45 935.1 338.15 941.35 332.7 943.2 322.4 943.79375 319.05 943.9 314.9 959.8734375 310.79375 978.25 309.7 978.31875 309.69609375 978.35 309.7 976.930859375 315.3359375 976.35 320.85 976.314453125 320.9009765625 976.25 320.95 972.7 323.65 969.25 324.8 970.9 326.35 973.7 326.05 975.109765625 325.893359375 976.6 325.3 976.945703125 326.0880859375 977.5 326.55 979.75 328.5 984.2 325.5 992.05 320.25 997.05 316.3 1001.2140625 313.0544921875 1004.6 309.8 1015.6693359375 310.50390625 1026.7 312.35 1038.562109375 314.33515625 1050 317.55 1053.4224609375 324.04296875 1058.75 325.5 1063.07890625 326.7 1069.4 324.05 1071.39609375 324.844921875 1073.35 325.65 1073.8501953125 324.0724609375 1073 322.4 1085.9240234375 315.803125 1095.75 305.55 1103.65 297.3 1109.05 287.25 1114.5 277.05 1116.8 266.05 1119.05 255.45 1118.3 244.5 1117.55 234.3 1114.3 226.4 1111.85 220.5 1106.1 212.25 1103.1 207.95 1101 205.45 1098 201.9 1094.95 199.6 1091.4 196.9 1087.45 195.65 1083.15 194.3 1079.15 194.95 1072.85 196 1066.25 202.45 1059.9 208.55 1054.5 217.4 1050.25 224.45 1045.85 234.5 1043.65 239.65 1042.6 243.1 1041.15 247.9 1041 252.05 1040.75 259.55 1044.35 266.05 1043.7 259.35 1045.5 250.75 1046.65 245.5 1048.7 239.25 1054.55 222.25 1063.75 211.6 1069.85 204.4 1075.95 203.7 1083.5 202.85 1091.85 211.35 1096.2 215.8 1099.85 221.2 1105 228.9 1107.85 237.75 1110.7 246.7 1110.85 255.8 1111 270.6 1104.35 283.75 1099.95 292.45 1092.85 299.55 1085.85 306.55 1077.1 311.1 1070.2 314.75 1065.25 314.2 1061.1 313.7 1054.9 309.3 1048.05 304.45 1044.7 303.5 1045.4392578125 305.142578125 1046.5 308.35 1046.4828125 308.36015625 1046.45 308.35 1035.95 305.1 1022.55 303.1 1017.173046875 302.2861328125 1011.95 301.75 1018.9841796875 292.7751953125 1025.8 278.9 1032.65 264.9 1035.05 254.05 1037.4 243.5 1036.45 232.6 1035.45 221.7 1031.35 211.75 1027.25 201.8 1020.3 193.4 1013.3 184.95 1004.25 179.1
M 974.25 184.4
Q 980.5 181.05 986.05 181.8 990.25 182.35 996 186 1005.55 192.15 1012.85 200.9 1020.25 209.8 1024.35 220.2 1028.5 230.75 1028.85 242.2 1029.25 253.75 1025.65 264.35 1024.25 268.5 1021.9 273.35 1020.5 276.3 1017.45 282.05 1014.7 287.25 1013.3 289.6 1010.85 293.7 1008.45 296.65 1006.66875 298.8375 1004.35 301.1 1003.895703125 301.0701171875 1003.45 301.05 1008.91953125 294.0482421875 1012.2 287.75 1018.7 275.3 1017.9 263.75 1010.89453125 282.4548828125 995.85 300.7 989.9361328125 300.5978515625 984.2 300.85 963.673046875 301.7021484375 943.9 307.45 943.8525390625 306.0416015625 943.8 304.4 942.65 271 944.6 238.2 942.1513671875 242.694140625 940.55 246 943.221875 233.4046875 947.8 221 954.7 202.4 963.95 191.9 970.1 186.6 974.25 184.4
M 980.2 310.2
Q 980.1322265625 309.8900390625 980.05 309.6 984.183203125 309.397265625 988.3 309.35 985.446875 312.4333984375 982.35 315.5 982.02265625 315.8228515625 981.7 316.1 981.599609375 315.9994140625 981.5 315.85 980.7 314.65 980.55 313.05 980.3 310.6 980.2 310.2
M 1373.1 845.85
Q 1370.2 841.15 1362.3 831.45 1343.45 808.3 1324.4 777.85 1310.45 755.55 1291.4 720.95 1247.8 641.65 1209.6 560.8 1208 557.45 1205.3 555.55 1202.15 553.4 1200.1 555.5 1198.75 556.9 1198.95 560 1199.35 566.4 1203.15 571.35 1202.4 569.65 1202.45 567.7 1202.45 565.75 1203.25 564.05 1249.35 666.45 1311.15 774.2 1328.75 804.9 1341.05 821.8 1359.3 846.85 1379.25 862.15 1378.4 854.35 1373.1 845.85 Z"/>
</g>
</defs>

<g transform="matrix( 1, 0, 0, 1, 0,0) ">
<use xlink:href="#Layer0_0_FILL"/>
</g>
</svg>
