<svg xmlns="http://www.w3.org/2000/svg" xmlns:xlink="http://www.w3.org/1999/xlink" preserveAspectRatio="none" width="1920" height="1080"><defs><g id="a"><path fill="#120000" d="m925.45 951.6.6 1.25q.75-.75-.15-1.75-.85-1-2.2-1.3-10.95-2.55-25.4 8.1-12.25 9.05-24.05 22.4-10.4 11.7-16 21.75-4.85 8.85-2.6 14.4 1.25 3.1 5.45 6.6 13.2 11.5 30.1 18.05 18.15 7.05 35.75 6.25 9.1-.4 15.4-3.15 9.7-4.3 18-16.9-6.35 4.35-13.9 7-7.55 2.55-15.45 3.1-12.9.95-27.4-3.5-8.15-2.45-15.5-6.1-11.1-5.45-20.1-12.8-2.3-1.85-3.5-3.35-1.7-2-2-4.1-.4-2.95 2.35-7.55 4.7-7.85 14.1-18.2 11.1-12.45 20.35-19.15 12.95-9.2 26.15-11.05m8.85-146.25q2.45-.1 2.9 1.2.15-1.1-.8-2.1-.9-.9-2.2-1.35-2.8-.95-6.55-.3-2.55.55-6.5 2.1-14.95 5.95-24.4 11.35-14.25 8.25-25.7 20-11.4 11.7-18.8 25.75-7.95 15.1-10.8 31.7-2.6 15.35.45 26.95 1.85 6.9 5.65 12.55 4.05 6.05 9.8 9.9 8.9 6 22.1 6.95 10.35.8 24.2-1.5 10.45-1.75 16.9-4.25 6-2.3 7.05-5.75.65-2.2-1.3-4.1-1.95-2-4.05-.95l2.05 3.15q-3.55.3-16.75 2.15-10.3 1.4-16.8 1.55-9.2.2-16.85-1.85-8.75-2.35-14.45-7.5-6.35-5.65-9.2-14.8-2.4-7.75-2.1-17.45.6-19 9.6-36.7 9.05-17.65 24.55-30.15 8.75-7.1 20.95-13.55 8.9-4.65 22.95-10.6 5.1-2.2 8.1-2.4m40.65-197.6q-1.15 1.8-.75 4.4.25 1.7 1.35 4.6 7.8 20.7 8.85 48.05.7 17-1.6 49.35 5.7-8.7 7.4-21.35 1.1-7.95.8-22.95-.45-21.3-2.75-32.75-3.55-17.95-13.3-29.35m113.65-17.45q.75.75 2.3 2.15 1.4 1.35 2.1 2.35.35.5.9 1.5.55.85 1.15 1.3 1.9 1.4 4.6.5 1.8-.6 3.95-2.6 7.35-6.55 9.2-14.35 1-4.25.1-8.35-.9-4.4-3.7-7.6-2.9-3.3-6.9-4.55-3.7-1.1-7.75-.05-3.9 1.05-6.75 3.65-2.7 2.55-4 6.2-1.25 3.5-1 7.15.25 3.5 1.75 6.75 1.5 3.35 4.05 5.95m1.8-11.8q-.2-1.85-.6-3.05-.5-1.35-.7-2-.3-1.2-.1-2.1.2-1 1.2-1.75.9-.7 2.1-.85 1.95-.4 4.5.7 3.15 1.35 5.35 4 2.2 2.65 2.85 5.75.65 3.15-.25 6.35-.9 3.2-3.15 5.7-1.2 1.4-2.6 1.95-1.85.7-3.2-.2-.6-.45-1.45-1.95-3.1-6.05-3.65-9.55l-.3-3m2.55-43.1q-8.75 1.3-15 6.5-6.3 5.2-8.65 13.15-2.35 7.85.15 15.25.75-17.05 10.55-24 5.1-3.6 12-4 6.7-.45 12.65 2.25 5.65 2.5 10.05 7.35 4.1 4.55 6.35 10.4 2.35 6.2 2.25 12.8-.1 6.7-2.75 12.65-2.75 6.05-7.9 10.65-5.25 4.7-11.85 6.8 6.05 1.95 12.7-1.7 5.8-3.2 9.75-9.2 3.9-5.9 5.75-12.7 1.9-6.75 1.5-13.65-.55-10-6-18.35-5.75-8.9-15.05-12.5-7.75-3.05-16.5-1.7m-128.4 75.3q-.1-3.7-1.65-6.85-1.6-3.4-4.55-5.55-3.1-2.2-7.1-2.45-4.15-.2-7.15 1.85-4.05 2.8-5.4 9.7-1.2 6.3.1 12.8 1.25 6.45 4.75 11.95 2.65 4 5.6 4.2 2.7.1 5.6-2.95 3.4-3.6 6.2-9.15 3.8-7.45 3.6-13.55m-11.5-1.9q4.4 5 3.7 9.15-.25 1.4-1.35 3.45-1.4 2.55-1.7 3.4-.4.15-.75-.25-.3-.35-.45-.85-1.3-5-1.55-7.7-.35-4.4 1-7.6-3.65 3.75-6.05 8.6-2.2-6.2-.45-12.55 3.8.15 7.6 4.35M933 578.5q8.35-2.3 15.15.55 3.65 1.5 7.2 4.8 2.2 2.05 5.8 6.3l10.2 12.05q-1.5-11.8-6.4-19.3-3-4.55-7.2-7.7-4.6-3.35-9.8-4.4-7.1-1.45-15.05 1.25-6.9 2.4-13.35 7.5-8.6 6.8-13.4 15.5-5.25 9.4-4.75 18.9.45 8.7 5.7 16.4 5.25 7.6 13.55 11.75 9.05 4.45 17.75 3.1 4.65-.75 8.45-3.3 3.95-2.6 5.7-6.4-6.85 3.75-17.9.25-6.35-1.95-11.55-5.4-5.5-3.65-9.1-8.45-3.75-5.05-4.95-11-1.25-6.15.6-11.75 2.35-7.05 9.6-13.25 6.25-5.35 13.75-7.4m146.5 36.35q-.15-.4-.3-.75-3.95-9.45-7.45-18.95-.85-2.6-2.5-2.65-1.35-.05-1.9 1.5-.45 1.3-.15 2.85 1.5 7.4 4 15.45 1.8 5.75 4.15 11.85.65 1.8 1.4 3.6 5.15 12.95 12.9 28.1 1.45 2.9 3 5.85 5.4 10.2 16.15 29.05 1.05 1.9 2.2 3.9 4.45 7.85 7.35 11.85 2.15 2.95 4.4 5.4 2.55 2.7 5.25 4.75 1.9 1.4 3.65 1.9 2.2.65 3.75-.3-1.9-.9-3.05-3.25-.45-.85-1.6-4.3-.15-.4-.25-.75-1.15-3.1-3.15-6.55-1.25-2.2-4.35-6.9-2.65-4-5.15-8.05-10.9-17.25-20.2-35.05-9.95-18.95-18.15-38.55m-55.85-228.15q-5.85 1.55-10.55 4.9-4.7 3.35-7.75 8.2-2.1 3.35-3.15 6.95-.55-1.55-1.55-3.15-2.2-3.45-6.55-6.8-7.9-6.15-17.2-10.45-4.15-1.9-8.45-3.35-1.45-2.15-3.7-3.7-2.6-1.7-6.05-2.3-3.2-.5-6.65-.05-5.25.75-10.8 3.75-4.2 2.3-9.45 6.45-11.3 9.1-19.75 19.9-7.6 9.75-12.35 20.3-2.85-2.6-6.1-4.05-7-3.25-16.2-1.65-7.7 1.25-15.95 5.7-11.65 6.2-21.1 15.55-9.35 9.1-15.65 20.3-11.85 21.1-12.4 46.85-.2 8.9 1.2 16.85-1.6-.75-2.85-1.4-2.2-1.15-7.8-4.45-4.85-2.9-7.85-4.3-9.8-4.55-17.65-2.5-3.65.9-6.8 3.3-3 2.25-5 5.45-3.6 5.7-3.75 13.75-.2 9.85 5 19.9 4.6 8.95 12.9 17 14 13.65 32.95 20.4 7.2 2.5 18.1 4.8 8.85 1.8 14.9 1.9 4.9.1 9.05-.85-.95 6.3-1.4 12.9-3.2 46.15 18.05 86.25 21.1 39.75 62.3 66.45 3.55 2.3 7.2 4.55l2.9 13.4q5.15 24.35 6.85 38.4 4.05 33.45-.6 75.35-2.8 25.25-12.2 75-.45 2.5.25 4.45.85 2.35 2.95 2.2 1.7-.1 3.3-2.4 4.45-5.95 7.55-13.1l-6.8 6.05q7.65-37.05 12.05-75.35 2.5-22.65 2.45-36.8 0-8.7-.85-19.45-.55-6.95-1.9-19.45-1.1-10.5-1.95-16.2-1.25-9-3.05-16.15-1.75-7.1-4.1-12.1 20.1 11 41.85 17.2-1 8.5-.4 17.1 1.45 20.9 12.35 37.35 8.35 12.55 21.75 22 12.95 9.05 28.7 13.85 15.05 4.55 31.9 5 16 .45 32.35-2.85 13.35-2.75 24.45-7.35l.1-.1h.05q3.55-1.5 6.85-3.2 15.9-8.05 28.5-21.3 9.8-10.35 14.95-21.6 5.75-12.6 4.75-24.65-.05-.9-.15-1.8-1.05-8.1-5.15-16.05-4.25-8.3-11.35-15.5-2.15-2.2-4.55-4.25 3.9-2.25 7.65-4.55-.4.4-.8.75 8.05-2.25 14.9-9.1 2.2-2.2 4.35-4.9 11.3-9.55 20.2-20.95-.55-5.2.3-9.75.6-3.3 1.95-6.3-.65-1-1.3-2.1-.4-.7-.8-1.5 2.05-6.05 3.65-12.35 5.8-22.6 5.8-46.5 0-44.95-19.75-91.5-2.5-5.95-4.7-9.95-2.85-5.3-6.05-9.25-3.75-4.55-8.35-7.65-5-3.35-10.45-4.6 18.75 20.95 28.85 47.5 7.1 18.65 10.8 43.5 6.4 43.15-1.4 77.25-3.65 16.1-10.5 30.45-9.05 11.05-20.65 20.1-10.15 7.95-22.6 14.55-8.35-5.75-19.1-10.85-3.95-1.85-8-3.55-23.1-9.9-48.45-14-6-.95-11.55-1.5-12.95-1.15-23.45.4-6.7.95-14.4 3.3-5.8 1.7-13.95 4.8-6.6 2.4-10.4 4.3-5.55 2.7-9.3 5.95-7.35 6.5-12.15 19.25-2.1 5.6-3.45 11.15-25.55-7-48.05-20.1-27.75-16.2-46.6-39.2-15.3-18.7-24.4-41.6Q863.65 657 861.6 633q-2.45-28.75 5.5-55.1 11.85 2.55 23.2 1.3 12.3-1.25 22.85-7.1 10.9-6.05 17.1-15.35 2.8-4.35 5.15-10.2 1.45-3.6 3.7-10.75-3.4 3.05-4.8 4.4-2.65 2.55-4.35 4.8-1.15 1.55-3.65 5.6-2.2 3.65-3.8 5.55-6.2 7.5-17.65 10.65-10 2.7-21.95 1.75-6.15-.5-11.9-1.85 11.05-28 32.9-46.9 4.4-3.85 9.15-7.1 9.25 10.3 21.75 18.55 13.65 8.9 28.25 13.45 15.9 5 31.2 4.2 11-.65 18.85-4.15 11.9-5.3 20.25-18.65 2.05-3.25 3.35-6.3 0 .05.05.05 11.1 6.4 28.5 3.75 10.7-1.55 20.7-5.9 8.9-3.95 13.95-9 5.65-5.7 7.95-14 .8-2.95 1.15-6.05 13.85 4 26.9 9.75 8.25 3.65 16 7.95.25-5.15 1.55-9.6-9.75-4.95-20.15-8.8 3.55-2.05 6.5-5.9 2.2-2.9 4.6-7.5 6.75-13.3 9.75-27.4 1.65-7.65 1.4-13.4-.3-6.2-2.75-13.2-3.4-9.55-9.45-16.9-6.65-8.05-15.45-12.25-5-2.45-8.85-2-5.1.6-10.4 6.4-3.85 4.3-7.5 10.1-2.65 4.25-6.2 10.9-3.6 6.75-6.6 13.2-3.7-6.25-7.15-11.15-10.85-15.2-23.9-24.2-11.3-7.9-21.95-8.95-5.9-.55-11.7 1m-8.55 9q4.35-2.5 9.3-3.15 13.2-1.65 28.15 9.55 13.15 9.85 23.85 25.75 3.75 5.55 7.6 12.4-.45 1.25-.7 2.25-1 3.85-.5 7 .95-2.6 2.75-6.4 3.7 7.1 7.5 15.4 4.2 9.3 6.15 15.5.65 2.25 1.2 4.4-34.55-7.35-70.25-4.45-4.25.35-8.75.85-.25-.5-.45-.95-3.55-8-7.4-13.05-2.7-3.4-5.35-3.7-1.8-.2-3.1 1.15-1.35 1.35-.6 2.7-.15-.35.25-.65.5-.3.95-.1.6.3.8 1.55 1.45 7.4 3.7 14.55-7.3 1.1-15.15 2.6-12.15 2.25-34.65 7.4-17.65 4-26.3 6.75-9.95 3.15-17.75 7.2-9.65-11.8-13.8-24.75-3.65-11.3-3-23.55.25-5.4 1.35-10.7 7 6.7 12.15 8.3-5.6-12-7.5-15.05-.95-1.55-2-2.9.5-1.5 1.1-3 4.4-10.95 12.3-20.85 7.65-9.6 17.9-17.15 8.45-6.3 15.2-6.95 1-.1 2-.1.35.4.95.75 1.45.9 3.6 1.15l-1.55-1.2 9.95 5.35q5.05 5.3 4.3 11.8 1.65-4.35 1.75-8.45l24.35 13.2q2.65 1.45 4 2.4 1.2.95 2 1.9-.35 2.7.2 4.9.75 2.85 2.95 4.15-1.2-4.4-.3-9.1.9-4.6 3.7-8.4 2.8-3.8 7.15-6.3m-122.75 61.4q-.75 13.9 3.4 26.6 3.75 11.45 11.55 21.95-12.5 8.75-23.75 24.1-12.2 16.5-19.55 35.1-7.9-2.6-15.1-6.8-13.5-7.85-20.55-19.25 2.5-.1 4.3-.75 1.6-.6 3.3-1.95 1-.75 2.8-2.45-2.75 1.55-5.35 1.35-1.95-.1-5.45-1.8-1.05-.5-3.15-1.4-4.1-9.9-4.5-23.3-.75-23.95 9.3-43 5.35-10.15 13.45-18.2 8.45-8.35 18.95-13.45 6.65-3.15 12.85-4.05 7.25-1 12.95 1.4 3.3 1.4 8.3 5.65-3.2 9.95-3.75 20.25m-81.5 77.8q2.45 1 5.05 1.8 3.65 11 10.7 18.95 6.7 7.55 17.4 13.45 7.8 4.35 16.1 6.9-3 9.7-4.75 19.9-3.35-1.55-5.4-2.4-5.6-2.45-10.35-3.8-2.35-.7-6.2-1.6-4.9-1.15-6.2-1.45-10.8-2.85-20.7-7.95-9.85-5.15-18.05-12.2-4.35-3.8-7.35-7.4-7.35-8.8-11.35-21.75-1.55-4.8-1.25-7.85.25-2.05 1.25-3.8 1.1-1.9 2.85-2.9 2.5-1.35 6.65-1.1 7 .45 16.2 5.2l15.4 8m155.45-.7q-12.75-4.35-24.85-12.1-11.3-7.25-19.85-16.05.65-.8 1.45-1.5-1 .5-1.95 1-.4-.45-.8-.85 1.25-.4 2-.8.4-.25 1.9-1.45 1.15-.85 2-1.2.4-.2 1-.25 2.2-1.65 4.75-3.15 14.9-8.75 38.3-13.5 11.3-2.25 19.5-2 4.75.15 8.85 1.1 6.65-1.15 13.35-2 3.6 10.25 8.9 20 3.4 6.25 6.65 10.25 1.5 1.85 3.1 3.4-1.75 9.05-7.45 14.75-5.15 5.1-13.45 7.45-7.2 2.05-16 1.85-13.5-.2-27.4-4.95m-56.7-22.7q.45-.3 1.35-1.2l.6.7q-1.15.55-1.95.5m225.95-100.95q4.2 5.25 5.9 8.3 1.5 2.75 2.7 6.3.8 2.3 1.95 6.45 1.5 5.45 1.65 8.25.1 2.8-.6 6.9-3.25 18.05-13 34l-3.1-7.35q-1.85 5.8-2.25 11.95 0 .55.05 1-9.6-3.4-19.75-5.95-.1-.85-.2-1.8-.9-7.15-4.05-15.55-2.2-5.8-6.7-14.85-4-8.05-7.75-14.65v-.05q5.7-10.8 9-16.4 5.25-9.05 10.25-15.8.05-.05.1-.15 2.05-2.8 4-3.35 1.35-.4 3.15 0 1.1.3 3.1 1.1 5.6 2.5 8.05 4.2 3.15 2.2 7.5 7.45m-33.85 76.1q.1 1.8.1 3.55-.1 6.65-2.75 10.6-3 4.65-11.7 8.15-8.65 3.45-17.3 4.65-14.45 2.1-24.45-2.9-3.9-1.95-7.3-5.1-.55-2.05-1.6-3.95-2.2-3.9-5.95-5.8-2.15-3.7-4.1-8.2-1.65-4.15-2.95-7.35 16.9-1.25 34-.25 22.9 1.35 44 6.6m-98.35 275q1.2-2.15 2.45-3.85l-.55.95.9-1.45q-1.25 2.2-2.8 4.35m-6 19.85.05.15h-.05v-.15m2.15-2.5q2.3-3.75 5.6-7.05 1.2-3.05 2.65-5.65 3.15-5.85 7.8-10.2 4.9-4.75 10.9-7.25 9.05-3.7 21.45-2.55 8.1.75 21.95 4.45l-12.65-9q20.5.15 40.55 4.55 2.5.55 4.95 1.15 11.3 2.75 22 6.85 10.5 3.95 20.45 9.15 3.7 1.95 7.1 3.95-3.05 1.35-6.2 2.6.95.7 1.85 1.5 3.3 2.85 6.1 6.1 4.2-1.75 8.2-3.55 10.2 7.55 16.25 16.1 4.35 6.1 6.6 12.8 1 3.05 1.6 6.2 2.05 10.75-1.6 20.05-3.5 8.7-13.15 18.2-8.8 8.5-18.6 14.45-5.95 3.5-12.25 6.1-11 4.6-24.85 7-29.2 4.95-54.75-1.65-13.6-3.5-25.3-10.1-12.15-6.9-20.9-16.45Q1003 833.45 998.2 816q-2.15-7.85-2.55-15.55-.7-3.1-.6-6.5.2-7.95 4.45-14.95m2.2-14.4-2.25 5.35q.2-1.85 2.25-5.35m92.7 69.55q6.9.2 10.6 1.8 4.6 1.95 8.05 6.6 2.65 3.6 4.9 9.25 1.45 3.6.45 5.4-.7 1.25-2.5 2-1.2.5-3.4.9l-10.65 1.8q2.55 3.2 7.25 4 4.6.75 8.5-1.15 3.8-1.8 6.1-5.6 2.2-3.5 2.4-7.7.35-7.6-5.4-15-3.25-4.25-7.05-6.55-6.5-3.95-15.5-3.7-9.7.2-16.9 5-3.7 2.5-6.2 6-2.55 3.55-3.3 7.6-.4 2.35.15 4.4.7 2.3 2.6 3.25-1.4-5.15 1.55-10.2 2.9-5.05 8.3-6.95 3.75-1.35 10.05-1.15m11.85-46.3q-1.9-2.3-2.8-3.45-1.55-2.1-1.85-3.9-.25-.8-.6-.9-.6-.15-.9.75-1.35 2.85-1.1 6.15.2 2.7 1.7 6.3 3.75 9.25 10 11.25 1.7.6 3 .3.8-.2 1.35-.7.6-.55.65-1.25-.3.45-.95.25-.55-.25-.95-.75-1.75-2.2-3.85-6.95-2.2-5-3.7-7.1M1052 785.5q-2.25 2.65-2.35 4.85-.05 1.45.75 2.6.85 1.25 2.2 1.6-1.65-2.1-1-4.65 1.65 4.1 3.9 12.9.7 2.65.9 3.9.35 2.2.15 3.95-.35 2.5.8 3 .5.2 1.1.1.55-.2.95-.6.6-.6.9-2 1.9-7.2.55-14.55-.85-4.3-2.65-7.3-1.5-2.4-3.65-4.1-.65-.6-1.2-.6-.65.05-1.35.9m280.95 100.75q-9.95-11.35-19.5-23-19.55-23.8-42.1-54.75-13.55-18.6-39.9-56.25l-12.25-17.5q-.25 8.1 4.2 17.35 2.85 5.9 9.75 15.95 32.05 46.45 48.45 68.85 27.7 37.8 52.45 66.2 12.6 14.55 22.3 23.75 3.4 3.3 6.1 2.9 1.3-.2 2.2-1.1-9.6-12.5-26.75-35.55-2.75-3.8-4.95-6.85Z"/><path fill="#120000" fill-opacity=".004" d="M1180.05 672.6q-2.15 1.3-4.2 2.7 2.3.05 4.45.35l2.05-4.45q-1.15.65-2.3 1.4m-130.1 35q.3 3.35.45 6 .25 5.1.15 9.8 15.05.5 28.1 7.6 5.55.55 11.55 1.5 25.35 4.1 48.45 14 4.45-3.65 8.55-8.55 8.7-10.35 17.9-30l3.85-8.15q-2.1.3-4.5.9-22.35 6.1-33.55 9.1-.2.05-.4.15.1.35.25.75 1.15 3.45 1.6 4.3 1.15 2.35 3.05 3.25-1.55.95-3.75.3-1.75-.5-3.65-1.9-2.7-2.05-5.25-4.75-14.8 3.45-25.9 4.35-18.7 1.5-34.85-3.6-6.6-2.05-12.05-5.05m39.7-51.75q-2.95-.05-5.8-1.35-.15.25-.3.55l-.9 1.6-.9 1.6q-.5.8-1 1.55-.5.8-1.05 1.6-.7.75-1.35 1.55-.7.75-1.35 1.6-.7.8-1.35 1.6l-1.3 1.6-1.3 1.7q-.6.8-1.2 1.65l-1.2 1.7q-.55.85-1.15 1.75-.5.8-1 1.7-.5.8-.95 1.65-.5.85-.95 1.7-.45.85-.95 1.7-.45.85-.95 1.7-.45.85-.95 1.7-.25.4-.45.8 1.45 1.05 3.05 1.95 13.2 7.55 32.85 5.05 4.3-.55 9.6-1.75-10.75-18.85-16.15-29.05-1.55-2.95-3-5.85M1055.9 612q-.7.6-1.45 1.15-.8.6-1.55 1.2-.8.55-1.6 1.15-.75.6-1.5 1.25-.75.6-1.45 1.25-.7.7-1.35 1.4l-1.3 1.4q-.4.45-.8.95-.8 10.45-.85 11.8-.5 11.5.9 20.1 1.75 10.65 6.9 19.25 3.05 5.1 7.05 8.95.25-.3.55-.5l1.1-1q.5-.55 1.05-1.1.45-.6.95-1.15.45-.6.85-1.2l.8-1.3q.3-.65.65-1.3.3-.7.55-1.4.25-.7.45-1.4.2-.75.35-1.45l.2-1.5.1-1.5 1.1-1.6q.55-.75 1.1-1.6.7-.7 1.4-1.5t1.35-1.55q.7-.8 1.35-1.6.7-.65 1.35-1.25.7-.55 1.4-1.15l1.4-1.2q.7-.55 1.45-1.15.75-.55 1.45-1.1.5-.35 1.05-.6l-.5-.4q-6.25-4.75-7.45-11.8-1-6.1 1.35-13.5.4-1.3 1.05-2.9-2.35-6.1-4.15-11.85-5.1-1.8-9.4-5.35 0 .05-.05.05-.85.6-1.65 1.2-.7.65-1.4 1.25-.75.65-1.4 1.3-.7.65-1.4 1.25m23.95 2.15q-.35-.05-.65-.05.15.35.3.75.15-.35.35-.7m93.2-27.65q-1.8-1.7-3.7-3.35-1.9-1.7-4-3.3-2.1-1.45-4.4-2.65-.45-.2-.85-.35l-54.6 68.65q-3.1 3.9-5.1 5.75-1.35 1.25-2.75 2.15 9.3 17.8 20.2 35.05 7.1-2 15.65-4.95 19.15-6.6 32.95-7.9l.4-.7q.9-1.75 1.75-3.5.9-1.9 1.75-3.8t1.75-3.8l1.7-3.8q.7-1.55 1.4-3.15.7-1.65 1.3-3.3.65-1.75 1.25-3.5.55-1.8 1.1-3.55l.7-1.5q.35-.8.65-1.5.35-.8.65-1.6.35-.85.65-1.7.25-.85.5-1.8l.4-1.7q.15-.95.25-1.85.05-.95.1-1.85v-1.9l.1-1.2.1-1.2q.15-.95.25-1.95.4-3.05.9-6.05.55-3.1.65-6.3.1-2.75-.2-5.5-.3-2.55-.95-5-.65-2.4-1.65-4.75-.95-2.3-2.3-4.5-.5-.85-1-1.6l.7-.45q1.1-.75 2.3-1.35 1.15-.65 2.35-1.35 1.2-.7 2.35-1.45 1.15-.75 2.3-1.55.15-.15.35-.25 1.1-.8 2.25-1.55-.35-.4-.7-.75-.9-.8-2.4-1.6-.15-.05-1.35-.65-2.8 1.75-5.6 3.45-2.8 1.7-5.5 3.65-1.3-1.4-2.65-2.7m13.6 222.65q-.6-3.15-1.6-6.2l-28.45 52.9q-1.8 3.35-3.3 6 9.8-5.95 18.6-14.45 9.65-9.5 13.15-18.2 3.65-9.3 1.6-20.05m-68-53.35q3.1-.55 6.05-1.5-10.7-4.1-22-6.85-2.45-.6-4.95-1.15 4.4 4.95 7.4 10.4 8.9 0 13.5-.9M1322.9 939q.3-.85.65-1.65.35-.75.65-1.6.35-.75.65-1.6.35-.9.7-1.85.35-.7.7-1.35l.8-1.6q-10.1-14.7-20.35-34.65-12.95-26.5-19.5-39.7-11.65-23.55-21.5-38.7-2.9-4.45-9-13.2-5.35-7.65-8.2-11.95-8.05 6.6-17.2 10.35 1.9 6.9 4.55 12.4 4.3 9.05 11.15 15.45 7.5 7.15 16.7 9.75-19.65-1.65-35.5-17.15-7.4-7.25-12.85-16.25-11.25 1.45-19.65-2.15.1.9.15 1.8 1 12.05-4.75 24.65-5.15 11.25-14.95 21.6-12.6 13.25-28.5 21.3-3.3 1.7-6.85 3.2h-.05l-.1.1q-2.55 1.6-5.4 2.55 2.55 2.55 5.45 4.85 3.8 3 7.8 5.75 3.75 2.6 7.65 5 .15.05.3.15.2.1.45.2l.6.2.8.4q.45.15.9.35l1 .4q.55.25 1.1.45l1.2.5q.6.25 1.25.5t1.25.5q.65.25 1.3.55.65.25 1.35.45.6.3 1.25.5.65.25 1.3.45.6.25 1.2.45.55.15 1.15.35.5.2 1.05.35.5.1.95.25l1.7.4q.9.2 1.8.35.9.15 1.85.3.95.2 1.9.35l2 .2q1 .15 2 .25-.85 2.45-1.25 4.9-.5 2.85-1.25 5.65-.7 2.5-1.35 5-.6 2.35-1.05 4.7-.45 2.35-.9 4.65-.5 2.55-.9 5.15-.4 2.6-.6 5.3-.2 2.55-.05 5.15.2 2.85.5 5.6.35 3 .7 5.95.35 3 .7 5.65l-.1-.45v.35q.05.4.05.8.1.65.15 1.3.1.85.15 1.65.15.95.25 1.95.1 1.05.25 2.1.15 1.15.3 2.25t.35 2.2.35 2.2q.2 1 .4 1.95.15.9.4 1.75.15.7.45 1.4.45 1.15.95 2.35l1.6 3.6q.85 1.8 1.65 3.65l1.7 3.6 1.7 3.6q.65.75 1.3 1.55.65.75 1.3 1.55t1.3 1.55l1.3 1.6q.65.75 1.3 1.55t1.3 1.55q.7.8 1.35 1.55.65.8 1.3 1.55 1.3 1.3 2.7 2.5 1.35 1.25 2.85 2.4 1.45 1.15 3 2.2 1.55 1.1 3.15 2.1l3.2 2q1.6 1.05 3.25 1.95 1.65 1 3.35 1.95 1.7.85 3.5 1.7 1.8.8 3.6 1.5 1.85.75 3.75 1.4 1.85.6 3.75 1.15 1.9.5 3.8.95 1.05.25 2.15.45 1 .25 2 .4l1.9.4q.9.1 1.75.25l1.7.2 1.6.2 1.5.1q.75 0 1.5.05h1.4q.95 0 1.85-.05.95 0 1.9-.05.9-.05 1.85-.15 1-.1 1.95-.2.95 0 1.9.05.9 0 1.8.05 3.7-.2 7.45-.45 16.9-1.3 31.4-9.4 10-5.55 16.6-14.45 3.9-5.15 6.5-11 2.7-6 3.7-12.55 1.15-7.6 0-15.1-1.1-7.45-4.45-14.3-3.15-6.5-8-12.1.25-.75.5-1.6.25-.8.55-1.6.3-.8.6-1.55m-7.5 25.9q.002-.106.05-.25v.05q-.047.14-.05.2m0 .05v.05q-.044.175-.05.25.004-.117.05-.3m-.1.75v.05q-.044.175-.05.25.004-.117.05-.3m0-.1q.002-.106.05-.25v.05q-.047.14-.05.2m111.35-168.35q-.05 0-.05.05-.2.3-.35.6l-.3.6q-.15.3-.3.65-.15.3-.25.6-.15.3-.3.65-.2.35-.35.7-.2.35-.35.7-.2.35-.35.7-.15.35-.25.75l-.2.7q-.1.4-.15.75-.1.4-.15.75-.05.35-.1.75t-.1.75q0 .35-.05.65v.65q0 .3-.05.65-.1.3-.15.7-.1.3-.15.65-.05.35-.1.65-.1.4-.15.75 0 .35-.05.7-.05.3-.1.7-.05.35-.05.7l-.3.7q-.4 1-.7 2.1l-.6 1.8q-.1.2-.15.4-.45 1.15-.85 2.35-.4 1.15-.65 2.4-.3 1.15-.65 2.35-.4 1.2-.85 2.3-.4 1.1-.75 2.2t-.75 2.15q-.4 1.05-.85 2.1-.4 1.05-.75 2.15 0 .05-.05.15-.3 1-.65 2-.2.3-.35.65-.2.3-.35.6l-.4.6q-.2.35-.4.6-.25.35-.45.65-.25.3-.45.6-.25.3-.45.6-.2.35-.35.7-.2.3-.35.65-.15.35-.3.75-.15.35-.25.65-.1.45-.25.85-.1.4-.25.8-.2.35-.4.75t-.45.75q-.2.35-.45.7t-.5.75q-.3.25-.55.55l-.5.6q-.25.35-.5.65-.2.35-.35.7-.2.35-.4.75l-.4.7q-.2.35-.45.65-.25.4-.5.7-.3.4-.6.7l-.6.7-.6.7q-.35.35-.6.7l-.6.7q-.4.1-.75.25-.35.1-.75.2-.35.1-.7.25-.25.1-.5.25-.25.05-.4 0-.35-.05-.65-.3-.3-.25-.55-.55l-.55-.55q-.2-.3-.4-.55-.25-.35-.45-.6l-.4-.6q-.2-.3-.4-.55-.25-.3-.45-.55-.25-.3-.45-.55h-.05q-.2-1.4-.25-2.75 0-1.4-.05-2.8 0-1.5-.05-3l-.1-5.7q-.05-2.65-.15-5.25v-.4q-.1-2.5-.15-4.95l-.1-5.4-.1-4.2q-.05-2.5-.05-5-.05-2.6.25-5.2l.2-.7q.3-1.15.65-2.3l.3-1.1q-2.4 1.65-4.95 2.85-.3 1.4-.45 2.85-.3 2.95-.35 5.9l-.1 6.25q-.1 3.1-.15 6.25 0 2.6-.1 5.25 0 1.1-.05 2.15 0 1.55-.05 3.1-.05 2.6-.15 5.15-.05 2.55-.2 5.05-.05.95-.05 1.85.05 1.65.25 3.25l.2.8q.15.3.25.55l.3.5q.2.25.35.5.2.2.35.45.2.3.35.65.2.3.4.65.15.3.35.65.25.3.5.65.25.4.5.7.25.4.55.7.3.35.55.7.3.3.65.6.25.25.55.5.25.25.55.5.3.25.6.4l.7.4q.4.1.75.3.4.1.75.25.3.05.65.1.35 0 .7.05.35-.05.7-.05.3 0 .65-.1l.6-.2q.3-.15.6-.25.25-.2.55-.35l.7-.2.7-.1.7-.2.7-.2q.3-.1.65-.25.3-.15.65-.3.25-.2.55-.4.25-.25.5-.45.2-.3.45-.55.25-.3.5-.55.25-.3.5-.55l.5-.5q.3-.3.55-.6.3-.25.55-.55.25-.25.55-.6.25-.25.5-.55.25-.25.5-.6.25-.25.45-.55.25-.35.45-.65.2-.35.4-.65.15-.35.35-.65.2-.35.45-.65.25-.3.55-.6.25-.3.55-.65.25-.3.5-.65.3-.3.5-.65.25-.35.5-.65.2-.4.45-.7l.3-.6q.2-.3.35-.55.15-.3.3-.5v.1q-.05.4-.05.8v1.6q-.05.45-.05.8v.8q0 .45-.05.85v1.7q.05.4.1.85 0 .3.05.6.05.35.1.65 0 .35.1.7.05.35.15.65.1.35.2.65.1.3.25.65.15.25.3.6.15.3.25.65.15.35.25.75l.2.8q.1.35.15.8.1.35.2.75t.25.8.25.8q.15.35.3.75.2.4.35.8.2.35.4.75.15.35.35.75.2.4.35.75.2.35.4.75.2.35.45.7.2.3.45.6t.55.6q.3.3.6.55.3.25.65.45.3.25.65.45l.7.3q.3.2.65.35.35.1.7.25.4.15.75.25.4.1.8.15.4.05.75.15l.8.1q.45.05.85.1l1 .1q.45.05.95.1h1l.8.1q.35 0 .75.05.4-.05.8-.05t.8-.05q.45-.05.85-.05l.8-.1q.4-.05.85-.1l.8-.2.7-.2 1.5-.6q2.3-1 4.15-2.45 2.05-1.6 3.95-3.3.9-.85 1.85-1.65-.8-7.85-2.45-15.7-.05 0-.1.05-.3.25-.6.55l-1.5 1q-.7.5-1.45 1.05-.4.3-.75.5-.35.3-.7.55-.35.3-.7.55-.3.25-.65.5l-.6.6q-.6.55-1.25 1.15-.6.55-1.2 1.15-.65.55-1.25 1.15l-1.3 1.1q-.65.55-1.3 1.05-.25.15-.5.25-.15.1-.3.1-.4.05-.8.05h-2.4q-.2-.3-.35-.7-.15-.35-.25-.75-.1-.45-.25-.85-.1-.35-.2-.8-.15-.4-.25-.75-.15-.45-.3-.85-.15-.35-.35-.75-.15-.4-.35-.75-.2-.4-.4-.75-.05-.25-.15-.55-.05-.25-.1-.55-.05-.4-.05-.85v-.85q-.05-.45-.05-.9v-6.85q0-.45.05-.9v-.85q.05-.4.05-.85.05-.4.1-.85l.2-.8q.15-.4.3-.85.1-.35.25-.7.1-.4.25-.75.1-.45.2-.95.1-.4.15-.85l.2-.9.1-.9q.1-.45.15-.9.05-.4.05-.75 0-.4.05-.8v-2.25q.05-.4.05-.8 0-.45.05-.85.05-.35.05-.75.1-.45.25-.8l.5-1.5q.25-.75.45-1.5.2-.8.35-1.5.15-.8.2-1.6.1-.8.15-1.6.05-.85 0-1.7v-3.6q.05-.9.05-1.8.05-.95.1-1.85.15-.4.25-.8.1-.35.25-.75-2.45-4.65-5.25-9.35-1.25-2.15-2.5-4.25m102.05-38.9q-.493.266-1 .5-.932 12.524-2.35 25 .236-.172.45-.35.3-.2.6-.45.25-.25.55-.5.3-.2.55-.45l.55-.55q.25-.25.5-.55.25-.3.5-.55.2-.3.5-.55l.5-.5q.4-.3.75-.6.4-.25.8-.55.4-.3.75-.6.4-.3.75-.6.4-.3.75-.6.3-.25.55-.5l.6-.5q.25-.2.55-.45.35-.2.7-.45.4-.2.8-.35.3-.15.6-.35l.6-.3q.4-.2.75-.45.4-.25.75-.5.35-.2.75-.45.35-.25.7-.45.4-.25.8-.45.3-.2.65-.35.35-.2.65-.4.35-.15.7-.35.35-.15.65-.35l.8-.4.8-.4q.4-.2.85-.4.4-.2.8-.35l.8-.4q.35-.15.7-.25.35-.15.75-.25.35-.15.7-.25.3.15.55.3.25.15.55.3.25.2.5.3l.5.3q.3.4.6.75.3.4.6.75t.6.75l.6.7q.3.4.55.75.15.2.3.45.15.2.25.45.15.3.3.65l.3.6.4.7q.2.3.45.65.2.3.45.65.25.3.45.6l.5.6q.3.4.55.85.25.4.45.85.1.2.15.45v.4q0 .4.05.8v.8q.15 1 .25 1.95.15.95.3 1.95l.4 1.8q.2.85.45 1.7t.5 1.65.5 1.65q.2.8.45 1.55l.5 1.6q.25.75.5 1.55.3.8.55 1.6l.1.9q.05.5.1.95.05.5.1.95.05.45.1.85.05.45.1.85.1.45.15.85.05.4.15.85.1.4.25.8.1.4.25.75.15.4.35.8.15.35.35.75l.4.7q.55 1.05 1.3 2.05 1.05 1.35 2 2.75t1.9 2.85l1.9 2.9q.8 1.35 1.6 2.8.8 1.4 1.8 2.65.75.95 1.6 1.8.9.85 1.8 1.6 1 .75 2 1.4 1.35.85 2.8 1.45 1.4.65 2.8 1 .75.45 1.45.9 1.45.9 3.05 1.55 1.55.7 3.2 1.15 1.7.5 3.4.85t3.5.5q1.85.15 3.7.15h6.9q1.75-.05 3.55-.05h3.7q1.7 0 3.5.05 4.8.2 9.5-.8 4.65-.95 9.2-2.2 4.8-1.35 9.7-2.4 5.3-1.2 10.3-3.25 5.05-2.05 10.05-4.25 5-2.2 10.1-4.25 4.6-1.9 9.15-3.85 4.026-1.674 8.05-3.35l.25-.1.35-.15q.126-.048.25-.1l.7-.2q.35-.15.65-.3.35-.15.65-.35l.6-.4q.3-.2.55-.4.3-.25.55-.5.25-.3.45-.6.2-.25.45-.55.2-.3.45-.55.15-.4.35-.75l.3-.8q.15-.4.25-.8.05-.4.15-.8.05-.45.05-.85v-.85l-.1-.8q-.1-.45-.2-.85l-.2-.7q-.15-.3-.3-.65-.15-.3-.3-.65l-.4-.6q-.25-.25-.45-.55-.25-.25-.5-.55l-.5-.5-.6-.4-.6-.4q-.3-.2-.6-.35l-.7-.3-.7-.2q-.4-.1-.75-.2l-.8-.1q-.35-.05-.75-.05h-.75q-.35.05-.75.15-.3.1-.65.2l-1.8.7-8.1 3.1q-4.5 1.7-9 3.45-4.5 1.75-9 3.55-4.35 1.75-8.65 3.65-3.85 1.7-7.95 2.55-3.95.85-7.9 1.8-3.6.9-7.25 1.75-3.95 1-7.85 1.8-1.35.05-2.75.05-1.35 0-2.75-.05l-2.7-.1q-1.5 0-2.95-.05h-5.8q-1.4-.05-2.75-.05-1.4 0-2.75-.05-1.4-.05-2.7-.15-.4-.05-.8-.15-.35-.1-.75-.2-.35-.1-.75-.2-.35-.1-.75-.25-.35-.1-.75-.25-.4-.25-.8-.45l-.8-.5-.8-.5q-.4-.25-.85-.45-.35-.2-.75-.35-.35-.2-.75-.35-.4-.15-.75-.3-.4-.15-.8-.25-.4-.15-.8-.25-.35-.25-.65-.45-.15-.1-.25-.2-.35-.7-.75-1.4-.4-.65-.8-1.35-.25-.4-.55-.8-.25-.4-.55-.8-.25-.4-.5-.75l-.5-.8q-.25-.35-.5-.75t-.5-.75q-.45-.7-.95-1.35l-.9-1.3q-.5-.7-1-1.35-.5-.65-.95-1.35-.3-.5-.55-1l-.1-1q-.05-.45-.1-.95-.05-.5-.1-.95-.05-.5-.15-1-.05-.45-.15-.95-.1-.45-.2-.85-.1-.4-.25-.8-.15-.45-.3-.85l-.3-.8q-.1-.35-.25-.75-.1-.35-.25-.75-.1-.35-.2-.75-.15-.35-.25-.75-.15-.4-.25-.8-.15-.45-.3-.85-.1-.4-.25-.85l-.3-.8-.2-.8q-.15-.4-.25-.8-.1-.35-.2-.75l-.2-.8q-.05-.4-.15-.8-.05-.45-.05-.85-.05-.45-.05-.9l-.1-.9q-.05-.45-.1-.85l-.1-.9q-.1-.45-.2-.85-.05-.45-.2-.85-.1-.45-.2-.85-.15-.4-.35-.85l-.3-.7q-.15-.4-.3-.75t-.35-.7l-.3-.7-.4-.7q-.2-.35-.4-.65-.25-.35-.45-.65-.25-.35-.5-.65-.2-.3-.45-.65l-.5-.6-.5-.6-.3-.6q-.2-.3-.35-.65l-.3-.6q-.15-.3-.35-.6l-.5-.7q-.25-.3-.5-.65-.25-.35-.5-.65l-.5-.7q-.25-.3-.55-.65-.25-.3-.55-.65-.3-.35-.6-.65l-.6-.7q-.25-.4-.5-.75-.3-.4-.6-.75-.25-.35-.55-.7-.25-.3-.55-.6-.25-.25-.55-.5l-.6-.5-.7-.4q-.3-.2-.55-.35l-.6-.3-.6-.3q-.4-.25-.8-.45-.35-.25-.75-.45l-.8-.4-.8-.4q-.4-.2-.8-.35-.4-.2-.75-.35-.4-.15-.75-.3-.4-.15-.75-.3-.4-.15-.75-.25-.4-.1-.8-.15l-.8-.1-.8-.1-.8-.1h-.8l-.8.1-.8.1-.8.1q-.35.05-.75.15-.9.25-1.75.5-1.3.4-2.55.9-1.25.5-2.5 1.05l-1.5.7q-.7.3-1.35.6l-1.5.8q-.9.45-1.75.9t-1.65.95l-1.6 1q-.8.5-1.6.95l-1.3.7m-70.9 25.45q-.2.25-.4.6-.25.2-.55.5-.3.2-.6.5-.3.2-.55.45-.3.3-.6.5l-.55.55-.55.55q-.25.3-.55.55-.25.3-.55.55-.2.3-.45.5 1.65 7.9 2.45 15.75.6-.55 1.3-1.1 1.4-1.15 2.95-2.1 1.85-1.1 3.45-2.55 1.6-1.4 3.15-2.75 1.25-1.1 2.45-2.25 1.5-1.4 2.55-3.15 1.2-1.9 2.55-3.65.3-.35.6-.6.35-.35.65-.6.3-.25.65-.5.65-.4 1.3-.85.6-.45 1.2-.95.65-.5 1.25-1.1.6-.6 1.2-1.25t1.1-1.35q.55-.65 1.05-1.35l.9-1.4q.45-.7.85-1.4.45-.65.9-1.35.45-.75.9-1.45v.85q-.05 1.2-.05 2.45v2.45q0 1.25-.05 2.5v3.3q-.05.85-.05 1.65v1.7q-.05 1.3.05 2.55.05 1.25.25 2.45.15.8.35 1.6.15.35.25.75.2.35.35.65.2.35.4.65.2.35.45.65v.7q.05.35.05.75 0 .35.05.65.05.35.05.65.05.45.15.95.05.45.15.85.05.45.15.95l.3.8q.2.4.4.85.15.4.35.75.3.4.6.75l.6.7q.3.35.65.75.3.2.65.5.35.2.7.5l.7.5q.3.25.65.5.35.3.7.5.35.25.75.45.35.25.75.45.35.1.7.3l.7.3q.35.05.7.15.4.1.75.2t.75.15q.35.05.75.1h3.15l.8-.1q.4-.1.8-.15.35-.15.75-.25l.7-.2q.4-.15.75-.3l.8-.2q.35-.15.75-.3l.8-.2q.35-.15.75-.35.35-.15.75-.25l.7-.4.7-.4q.3-.25.65-.45.3-.25.65-.45.3-.3.6-.55.3-.2.6-.5.3-.2.6-.5.3-.2.6-.5.35-.15.7-.25l.7-.3q.35-.2.7-.35.3-.2.65-.45.3-.2.65-.45.3-.2.6-.45t.55-.45q.3-.25.6-.45.3-.25.6-.55.3-.2.55-.5l.2-.1q1.4-11.5 2.4-22.95-.2 0-.35.1-.3.15-.6.35-.35.2-.7.45-.3.25-.65.45-.35.25-.7.45-.3.25-.65.5-.3.25-.65.5-.3.25-.65.5-.3.25-.65.55-.3.2-.6.5-.35.25-.65.55-.4.25-.75.45l-.7.5-.7.5-.7.5q-.3.25-.55.5-.25.2-.5.45l-.5.5q-.2.3-.45.5l-.5.5q-.25.25-.55.45-.25.25-.55.5-.3.2-.6.45-.25.2-.55.4-.3.25-.55.45-.3.3-.6.5-.25.3-.55.55-.3.1-.65.25-.35.15-.65.3l-.8.4q-.35.2-.75.45-.35.3-.7.55-.35.3-.65.55-.25.2-.5.3l-.05-.15q-.05-.35-.15-.75-.1-.3-.2-.7l-.3-.6q-.15-.4-.3-.7-.15-.35-.3-.65-.2-.35-.35-.65-.1-.2-.25-.35-.1-1.8-.05-3.6v-5.25q-.05-2.6-.05-5.2-.05-2.7-.05-5.45-.05-2.8-.05-5.5 0-2.25-.05-4.5 0-2.25-.05-4.5-.05-2.05-.1-3.95-.05-1.85-.4-3.7l-.2-.6q-.1-.3-.25-.6-.2-.25-.35-.55l-.5-.6-.5-.6q-.25-.25-.5-.6-.2-.15-.45-.4t-.55-.4q-.25-.15-.55-.3-.3-.15-.6-.25-.35-.15-.65-.25-.3-.15-.6-.25-.35-.1-.65-.2-.4-.1-.85-.2-.4-.05-.85-.1h-.85q-.4.05-.85.1-.4.1-.85.2-.35.1-.7.15l-.7.3q-.35.2-.7.3-.35.25-.7.45-.3.15-.65.4-.25.25-.55.45l-.5.5-.5.6-.5.6-.5.6q-.2.3-.45.6-.2.35-.4.65-.25.3-.5.7-.25.35-.45.7-.35.3-.65.6l-.6.6q-.25.25-.45.55-.25.25-.4.5-.2.2-.35.45-.15.25-.3.45-.15.3-.3.5-.15.3-.25.6-.15.35-.3.65-.15.3-.25.6-.15.3-.25.65-.1.3-.2.65-.1.3-.2.7-.25.25-.45.55-.5.6-.95 1.2-.45.6-.9 1.15-.4.6-.8 1.25-.35.65-.8 1.25-.4.7-.85 1.35-.5.7-.95 1.35-.5.75-.95 1.55-.5.75-.95 1.45l-.9 1.5q-.45.65-.9 1.4-.45.75-.9 1.45-.3.25-.55.6-.3.25-.6.55l-.6.5q-.3.2-.65.4-.3.25-.65.45-.3.2-.6.45-.35.2-.65.45-.25.25-.55.5l-.6.6q-.3.3-.55.65-.3.3-.6.65-.25.3-.55.65-.25.3-.55.6-.25.35-.5.6-.25.35-.45.65-.25.35-.5.65-.25.35-.45.7-.25.3-.45.65-.2.3-.35.65-.2.25-.4.6m43.7 12.35q.15-.1.35-.15-.05.05-.1.05-.1.05-.25.1m-63.85-72.75q-.35-.2-.75-.35-.4-.15-.75-.2-.45-.05-.85-.1h-.8q-.4.1-.8.15-.35.1-.65.2l-.6.3q-.3.1-.55.3l-.5.4q-.25.25-.45.5-.2.2-.4.5-.15.25-.3.55l-.2.6q-.05.3-.15.6 0 .3-.05.65 0 .45-.05.8 0 .4-.05.8v.8q-.05.4-.05.8-.05.4-.05.8-.05.25-.15.5l-.1.5q-.2.25-.3.6l2.5 4.2q2.8 4.7 5.25 9.4.15-.35.3-.75l.3-.7q.15-.4.25-.7.1-.35.2-.8l.2-.8q.05-.45.15-.9l.1-.8q.1-.5.15-.9.05-.4.1-.85.1-.4.2-.75.15-.35.3-.75.1-.3.25-.7.15-.35.25-.7.15-.4.25-.75.1-.4.2-.85.1-.4.15-.8.1-.45.15-.9l.1-.8q0-.4.05-.9-.05-.4-.05-.8t-.05-.8q0-.35-.05-.75 0-.4-.05-.75 0-.4-.05-.75l-.1-.8-.1-.7q-.1-.35-.2-.6-.15-.3-.3-.55-.2-.25-.35-.5l-.5-.5-.5-.4q-.25-.2-.55-.3m-8.75-24.75q2.4-2.2 4.85-4.35-4.55-.85-8.8-3.1-3.2 5.55-7.2 15.6v.05q2.85-2.3 5.95-4.25 2.75-1.8 5.2-3.95m-95.45 67.85q-5.65-7.95-5.25-16.9-7.15 4.35-16.35 3.65-9.15-.7-15.4-6.2-4.35 2.45-9.1 6.25.3.5.6 1.05 3.35 6.1 15.4 24.15 12.35 18.5 23.05 37.5 5.3 1 10.85 4.3 4.15 2.55 9.45 7.1 8.5 7.3 17.1 16.35.3-1.1.55-2.25 2.15-4.05 3.35-8.35.5-1.8.95-3.65h.05l.8-.1q.4-.1.8-.15.35-.1.75-.25.35-.15.75-.3l.7-.3q.35-.25.7-.4.3-.25.65-.45.3-.25.55-.55.3-.25.6-.55.25-.3.5-.65.25-.35.45-.65.2-.4.4-.7l.3-.8q.1-.35.25-.7.05-.45.15-.8.05-.4.1-.85v-.75q-.05-.4-.05-.8.15-.3.3-.7.15-.3.3-.7.15-.35.25-.65.15-.45.3-.8.1-.4.25-.85.1-.35.3-.75l.2-.4.4-.7q.2-.4.4-.75.15-.35.3-.75.2-.35.35-.7l.05-.05q-4.75.65-9.85-.2-8.45-1.45-14.45-6.55-6-5.15-8.2-12.75-2.2-7.65.25-14.85-9.1-3.2-14.8-11.1Z"/><path fill="#999" fill-opacity="0" d="M678.3 490.35q3.6-1.7 7.4-2.95.25-1 .55-1.9.2-.6.4-1.15-.85.35-1.7.75-6.45 3-12.8 6.1-1.25.6-2.45 1.25.75.7 1.55 1.5 3.45-1.95 7.05-3.6m707.15 349.15q-1.55 1-3.2 1.85-1.55.9-3.2 1.6-1.25.55-2.5 1.25-1.35.7-2.7 1.5-1.35.75-2.75 1.4-1.4.75-2.8 1.45-.05.05-.1.05 1.15 1.25 2.25 2.5 3.2 3.65 6.6 7.8 5.05-2.6 9.95-5.5 0-.9.05-1.85.15-2.5.2-5.05.1-2.55.15-5.15.05-1.55.05-3.1-1.05.6-2 1.25m35.05-20.75q.05-.2.15-.4h-1.5q-.35 0-.65.05-.35.1-.65.2-.3.1-.6.25-.3.1-.6.25l-1.3.9q-.4.3-.85.6-.55.35-1.15.7-.55.4-1.15.75-.55.35-1.1.8-.55.4-1.05.8-.55.45-1 .9l-1 1q-.5.5-.95 1l-1 1q-.5.55-1 1.05t-1 .95q-.35.2-.7.35-.35.2-.65.4-.35.15-.7.35-.3.2-.55.35-.3.15-.6.35-.3.2-.55.35-.3.2-.55.4-.3.15-.6.35-.3.2-.6.35-.3.2-.55.4l-.6.3q-.3.2-.65.35-.3.1-.6.3-.3.15-.65.3l-2.2.8q-.4.15-.75.35v.4q.1 2.6.15 5.25l.1 5.7q.05 1.5.05 3 4.05-2.3 8.3-4.25 5.5-2.6 10.15-6.25 1.55-1.25 3-2.55.05-.1.05-.15.35-1.1.75-2.15.45-1.05.85-2.1.4-1.05.75-2.15.35-1.1.75-2.2.45-1.1.85-2.3.35-1.2.65-2.35.25-1.25.65-2.4.4-1.2.85-2.35Z"/></g></defs><use xlink:href="#a"/></svg>